<?xml version="1.0" encoding="utf-8"?>
<!-- Generator: Adobe Illustrator 23.1.1, SVG Export Plug-In . SVG Version: 6.00 Build 0)  -->
<svg version="1.1" id="Layer_1" xmlns="http://www.w3.org/2000/svg" xmlns:xlink="http://www.w3.org/1999/xlink" x="0px" y="0px"
	 viewBox="0 0 920.49 920.49" style="enable-background:new 0 0 920.49 920.49;" xml:space="preserve">
<style type="text/css">
	.st0{fill:#666666;}
	.st1{fill:#CCCCCC;stroke:#333333;stroke-width:2.27;stroke-miterlimit:10;}
	.st2{opacity:0.3;fill:#CCCCCC;stroke:#333333;stroke-width:2.27;stroke-miterlimit:10;enable-background:new    ;}
	.st3{fill:#FFFFFF;}
	.st4{fill:none;}
	.st5{fill:#333333;}
	.st6{fill:none;stroke:#333333;stroke-width:0.9988;stroke-miterlimit:10;}
	.st7{fill:#999999;stroke:#333333;stroke-width:2.27;stroke-miterlimit:10;}
	.st8{fill:#666666;stroke:#333333;stroke-width:2.27;stroke-miterlimit:10;}
	.st9{fill:#B0AEAF;stroke:#333333;stroke-width:2.27;stroke-miterlimit:10;}
</style>
<path class="st0" d="M460.1,539.15c-105.23,0-198.83,49.71-258.67,126.91c-0.97,1.25-1.91,2.53-2.86,3.8
	c61.47,76.45,155.76,125.4,261.49,125.4c105.77,0,200.08-48.98,261.55-125.47C661.92,590.47,567.01,539.15,460.1,539.15z"/>
<title>vers-dei-logo-bw</title>
<path class="st1" d="M624.15,497.87L475.27,365.36c0,0-16.98,4.99-43.95,10.99L190.62,653.02c0,0,0.15,0.53,10.81,13.05
	c0.09-0.12,0.19-0.24,0.28-0.35c59.84-77,153.32-126.56,258.39-126.56c107.86,0,203.51,52.23,263.1,132.75
	c1.08-1.48,33.74-55.85,33.74-55.85L624.15,497.87z"/>
<path class="st2" d="M460.1,539.15c-105.07,0-198.54,49.56-258.39,126.56c-0.03,0.1-0.07,0.19-0.1,0.29
	c0,0,239.71,204.75,517.6,0.91C659.62,586.38,567.96,539.15,460.1,539.15z"/>
<path class="st3" d="M424.43,542.23c-2.75,0.89-5.44,1.96-8.1,3.07l-3.97,1.72l-3.92,1.82c-5.21,2.47-10.29,5.19-15.27,8.07
	c-9.94,5.77-19.46,12.22-28.51,19.31c-9.02,7.09-17.55,14.77-25.54,23c-8,8.21-15.49,16.9-22.42,26.02
	c-6.89,9.16-13.28,18.7-19.11,28.57c-0.77,1.21-1.46,2.47-2.16,3.72l-2.1,3.76c-1.38,2.51-2.85,4.98-4.09,7.57l-3.88,7.69
	l-0.98,1.92l-0.9,1.96l-1.8,3.92c-9.5,21.03-17.31,42.79-23.35,65.06c4.16-22.86,10.79-45.2,19.78-66.63
	c4.49-10.75,9.62-21.22,15.37-31.35l4.47-7.52l1.12-1.88l1.2-1.83l2.4-3.66c3.12-4.93,6.64-9.59,10.04-14.33
	c7.11-9.26,14.81-18.05,23.05-26.32c8.26-8.25,17.13-15.86,26.54-22.77c9.39-6.9,19.32-13.04,29.69-18.36
	c5.2-2.6,10.47-5.08,15.88-7.19C413.27,545.4,418.8,543.61,424.43,542.23z"/>
<path class="st3" d="M297.99,591.59c2.92,2.04,5.95,3.91,9.01,5.72c3.06,1.82,6.16,3.55,9.3,5.23c6.28,3.33,12.66,6.45,19.16,9.29
	c6.49,2.86,13.07,5.49,19.75,7.88c6.67,2.39,13.41,4.57,20.23,6.48c54.76,15.5,112.77,15.35,167.45-0.45
	c6.81-1.93,13.55-4.1,20.22-6.5c6.67-2.38,13.27-4.99,19.78-7.83c6.52-2.8,12.93-5.87,19.24-9.13c3.15-1.65,6.28-3.34,9.36-5.11
	c3.09-1.76,6.15-3.59,9.11-5.57c-5.69,4.31-11.63,8.29-17.8,11.89c-6.15,3.64-12.47,7-18.89,10.16
	c-12.89,6.27-26.23,11.56-39.91,15.83c-3.41,1.1-6.86,2.07-10.31,3.06c-1.73,0.48-3.47,0.9-5.21,1.35
	c-1.74,0.46-3.48,0.88-5.23,1.27c-6.98,1.68-14.05,2.96-21.13,4.15c-14.21,2.16-28.56,3.29-42.93,3.38
	c-14.37-0.03-28.72-1.09-42.94-3.16c-7.09-1.14-14.16-2.38-21.15-4.03c-1.75-0.38-3.5-0.78-5.24-1.24l-5.21-1.33
	c-3.45-0.99-6.91-1.93-10.32-3.03c-13.7-4.23-27.04-9.54-39.9-15.86c-6.41-3.18-12.71-6.59-18.82-10.3
	C309.49,600.06,303.6,596.01,297.99,591.59z"/>
<path class="st3" d="M239.06,640.53c15.38,12.8,31.96,24.07,49.52,33.67c17.42,9.72,35.6,18.02,54.35,24.82
	c37.47,13.67,77.01,20.79,116.89,21.06c9.93,0.05,19.86-0.35,29.77-1.21c9.89-0.9,19.74-2.24,29.53-4.03
	c19.59-3.58,38.83-8.86,57.5-15.76c9.35-3.42,18.55-7.28,27.61-11.45c9.06-4.16,17.95-8.72,26.65-13.59
	c17.53-9.64,34.15-20.85,49.64-33.51c-7.37,6.81-15.15,13.15-23.32,18.98c-8.12,5.9-16.48,11.45-25.1,16.65
	c-17.25,10.37-35.35,19.26-54.11,26.57c-18.79,7.34-38.21,12.95-58.01,16.76c-9.9,1.92-19.92,3.27-29.96,4.24
	c-10.05,0.92-20.13,1.36-30.24,1.34c-40.44-0.27-80.49-7.86-118.22-22.41c-18.8-7.2-36.94-16.02-54.22-26.35
	c-8.61-5.19-16.97-10.74-25.1-16.65C254.11,653.8,246.36,647.41,239.06,640.53z"/>
<path class="st3" d="M492.43,541.73c5.64,1.38,11.17,3.17,16.55,5.34c5.42,2.11,10.68,4.59,15.88,7.19
	c10.37,5.32,20.3,11.46,29.69,18.36c9.41,6.91,18.28,14.52,26.54,22.77c8.24,8.27,15.94,17.06,23.05,26.32
	c3.4,4.74,6.92,9.4,10.04,14.33l2.4,3.66l1.2,1.83l1.12,1.88l4.47,7.52c5.75,10.13,10.88,20.6,15.37,31.35
	c8.99,21.42,15.63,43.77,19.78,66.63c-6.04-22.27-13.85-44.03-23.35-65.06l-1.8-3.92l-0.9-1.96l-0.98-1.92l-3.88-7.69
	c-1.24-2.59-2.71-5.06-4.09-7.57l-2.1-3.76c-0.7-1.25-1.38-2.51-2.16-3.72c-5.84-9.87-12.22-19.41-19.11-28.57
	c-6.94-9.12-14.42-17.81-22.42-26.02c-7.99-8.23-16.52-15.91-25.54-23c-9.04-7.09-18.57-13.54-28.51-19.31
	c-4.98-2.88-10.06-5.6-15.27-8.07l-3.92-1.82l-3.97-1.72C497.87,543.7,495.19,542.63,492.43,541.73z"/>
<path class="st3" d="M447.1,539.42c-7.65,21.93-14.81,43.98-21.5,66.15c-6.69,22.18-12.96,44.47-18.5,66.94
	c-2.85,11.22-5.4,22.5-7.84,33.81c-2.5,11.3-4.57,22.68-6.64,34.06l-1.43,8.56c-0.5,2.85-0.85,5.72-1.32,8.58
	c-0.93,5.71-1.6,11.46-2.38,17.2c-1.42,11.49-2.46,23.03-3.29,34.62c-0.27-11.61,0.11-23.24,0.85-34.85
	c0.89-11.6,2.08-23.18,3.72-34.7c0.85-5.75,1.65-11.52,2.71-17.24c0.51-2.86,0.98-5.74,1.52-8.59l1.64-8.57
	c2.31-11.4,4.85-22.76,7.63-34.06c2.86-11.27,5.87-22.51,9.13-33.67c3.33-11.14,6.76-22.25,10.52-33.25
	C429.36,582.37,437.53,560.59,447.1,539.42z"/>
<path class="st3" d="M471.45,539c9.57,21.17,17.74,42.96,25.2,64.97c3.76,11,7.18,22.11,10.52,33.25
	c3.26,11.16,6.27,22.4,9.13,33.67c2.78,11.29,5.33,22.65,7.63,34.06l1.64,8.57c0.53,2.86,1.01,5.73,1.52,8.59
	c1.05,5.72,1.86,11.49,2.71,17.24c1.64,11.52,2.83,23.11,3.72,34.7c0.74,11.61,1.13,23.24,0.85,34.85
	c-0.84-11.59-1.88-23.12-3.29-34.62c-0.78-5.74-1.45-11.48-2.38-17.2c-0.46-2.86-0.82-5.73-1.32-8.58l-1.43-8.56
	c-2.07-11.38-4.15-22.76-6.64-34.06c-2.44-11.31-4.99-22.59-7.84-33.81c-5.54-22.47-11.82-44.76-18.5-66.94
	C486.22,582.99,479.05,560.94,471.45,539z"/>
<path class="st3" d="M361.91,559.63c15.49,3.57,31.1,6.25,46.76,8.29c15.64,2.05,31.38,3.2,47.15,3.42
	c7.87,0.19,15.74-0.09,23.59-0.55c7.86-0.36,15.67-1.35,23.46-2.41l5.83-0.92l5.8-1.11c0.97-0.19,1.94-0.35,2.9-0.56l2.88-0.67
	c1.91-0.46,3.85-0.85,5.75-1.37c7.66-1.99,15.22-4.36,22.65-7.12c-7.06,3.72-14.4,6.88-21.95,9.47c-7.59,2.54-15.34,4.59-23.2,6.12
	c-1.96,0.44-3.94,0.73-5.91,1.08c-1.98,0.32-3.95,0.67-5.94,0.89l-5.96,0.75l-5.98,0.56c-7.98,0.61-15.99,0.93-23.99,0.82
	c-8-0.16-15.99-0.56-23.94-1.31c-7.95-0.83-15.87-1.83-23.73-3.26c-7.86-1.36-15.66-3.07-23.38-5.03
	C376.99,564.77,369.38,562.4,361.91,559.63z"/>
<path class="st4" d="M460.06,124.51c-185.22,0-335.37,150.15-335.37,335.37c0,79.49,27.67,152.5,73.88,209.97
	c0.95-1.27,1.89-2.54,2.86-3.8c59.83-77.2,153.44-126.91,258.67-126.91c106.91,0,201.82,51.31,261.51,130.64
	c46.18-57.46,73.83-130.45,73.83-209.9C795.43,274.66,645.28,124.51,460.06,124.51z"/>
<path class="st5" d="M460.25,7.99c249.84,0.16,452.25,202.83,452.08,452.67c-0.12,181.6-108.82,345.52-276.05,416.31
	c-230.22,97.05-495.53-10.91-592.58-241.13c-96.95-229.98,10.67-495.02,240.5-592.31C339.9,19.96,399.78,7.87,460.25,7.99
	 M460.06,799.25c186.85-0.24,338.14-151.91,337.9-338.76S646.05,122.35,459.2,122.59S121.06,274.49,121.3,461.35
	C121.53,648.2,273.2,799.49,460.06,799.25 M460.25,0C206.06,0,0,206.06,0,460.25s206.06,460.25,460.25,460.25
	s460.25-206.06,460.25-460.25S714.43,0,460.25,0z M460.06,791.26c-183.02,0-331.38-148.36-331.38-331.38S277.04,128.5,460.06,128.5
	s331.38,148.36,331.38,331.38S643.07,791.26,460.06,791.26L460.06,791.26z"/>
<path class="st5" d="M108.82,240.73l24.34,13.35c6.3,3.46,10.14,7.82,11.51,13.09c1.37,5.27,0.23,11.23-3.42,17.88
	c-3.65,6.65-7.86,10.83-12.64,12.53c-4.78,1.71-10.34,0.82-16.69-2.67l-25.23-13.84c-0.45-0.28-0.95-0.48-1.48-0.57
	c-0.45,0.01-0.89,0.16-1.25,0.43c-1.18,0.84-2.26,1.8-3.23,2.88l-0.56,0.66l-2.62-2.11c4.43-5.96,8.01-12.49,10.66-19.43l3.19,1.07
	c-1.15,3.5-1.37,5.67-0.67,6.51c0.32,0.41,0.74,0.74,1.22,0.96L116,284.66c4.81,2.64,8.89,3.59,12.24,2.84
	c3.35-0.74,6.14-3.15,8.37-7.22c2.23-4.07,2.8-7.76,1.71-11.07c-1.09-3.31-3.57-6.02-7.44-8.15l-25.53-14.01
	c-0.45-0.28-0.95-0.48-1.48-0.57c-0.45,0.01-0.89,0.16-1.25,0.43c-1.17,0.8-2.24,1.74-3.18,2.8l-0.6,0.74l-2.62-2.11
	c1.85-2.31,3.49-4.78,4.92-7.37c1.53-2.82,2.85-5.76,3.94-8.78l3.19,1.07c-1.15,3.5-1.38,5.7-0.71,6.58
	C107.93,240.21,108.36,240.51,108.82,240.73z"/>
<path class="st5" d="M158.98,253.15c-3.39,0.67-6.69-1.53-7.36-4.92c0,0,0,0,0,0c-0.02-0.11-0.04-0.22-0.06-0.33
	c-0.16-1.85,0.38-3.7,1.52-5.16c1.02-1.57,2.58-2.71,4.39-3.19c3.33-0.72,6.61,1.4,7.33,4.73c0,0,0,0,0,0
	c0.04,0.17,0.07,0.34,0.09,0.52c0.15,1.86-0.4,3.72-1.54,5.2C162.34,251.56,160.78,252.69,158.98,253.15z"/>
<path class="st5" d="M178.4,222.75c1.57-1.73,2.39-4.02,2.28-6.36c-0.2-2.43-1.42-4.66-3.36-6.14c-2.05-1.7-4.77-2.37-7.38-1.81
	c-2.57,0.44-5.1,1.11-7.55,2c-2.61,0.94-4.26,1.52-4.95,1.76c-0.68,0.24-1.89,0.59-3.62,1.05c-1.32,0.4-2.69,0.64-4.07,0.72
	c-0.98,0.02-2.16,0.01-3.53-0.04c-2.75-0.24-5.34-1.39-7.37-3.25c-3.45-2.69-5.35-6.9-5.08-11.27c0.24-4.44,2.14-8.75,5.69-12.93
	c1.28-1.51,5.17-4.96,11.68-10.35c1.63,1.61,3.16,3.3,4.6,5.08c2.07,2.46,3.47,4.22,4.2,5.29l-2.24,3.56
	c-3.75-2.66-6.52-4.31-8.29-4.92c-2.32,0.55-4.62,2.17-6.89,4.84c-2.76,2.94-2.61,7.55,0.33,10.31c0.22,0.2,0.45,0.39,0.68,0.57
	c1.81,1.54,4.2,1.97,7.15,1.28c2.64-0.64,5.24-1.44,7.78-2.41c2.98-1.11,5.22-1.88,6.71-2.33c1.81-0.51,3.65-0.93,5.5-1.23
	c4.02-0.66,8.13,0.53,11.17,3.24c4.27,3.63,6.24,7.91,5.9,12.86c-0.34,4.95-2.39,9.64-6.17,14.09c-3.54,4.26-7.9,7.75-12.83,10.27
	c-0.63-0.39-2.41-1.82-5.32-4.29c-1.92-1.53-3.72-3.2-5.38-5.01l2.14-3.97c2.79,2.14,6.15,3.41,9.66,3.64
	C173.07,227.09,175.91,225.68,178.4,222.75z"/>
<path class="st5" d="M199.51,204.01c-3.46,0.07-6.31-2.68-6.38-6.13c0-0.11,0-0.22,0-0.33c0.16-1.85,1.02-3.57,2.4-4.82
	c1.28-1.37,3.01-2.21,4.88-2.37c3.4-0.12,6.26,2.54,6.39,5.94c0.01,0.18,0.01,0.35,0,0.53c-0.18,1.86-1.05,3.59-2.43,4.85
	C203.1,203.03,201.36,203.87,199.51,204.01z"/>
<path class="st5" d="M196.71,131.64l16.28-12.27c8.22-5.83,15.85-8.81,22.9-8.96c7.38-0.17,13.75,3.54,19.12,11.11
	c5.37,7.57,7.45,15.2,6.25,22.89c-1.21,7.69-5.71,14.3-13.51,19.84c-2.12,1.51-4.7,3.2-7.74,5.08c-3.04,1.88-5.14,3.23-6.29,4.05
	c-1.15,0.82-3.61,2.88-7.38,6.17l-2.47-2.31c1.13-1.15,2.1-2.45,2.88-3.86c0.47-0.99,0.33-2.17-0.37-3.02l-24.07-33.93
	c-0.25-0.41-0.58-0.76-0.98-1.02c-0.42-0.15-0.87-0.2-1.31-0.16c-1.45,0.15-2.87,0.52-4.21,1.11l-0.84,0.28l-1.26-2.96
	C194.5,133.17,195.51,132.49,196.71,131.64z M234.36,162.7c1.7,2.4,5.11,1.79,10.21-1.83c5.1-3.62,7.76-8.14,7.97-13.56
	c0.21-5.42-1.9-11.26-6.34-17.52c-4.44-6.25-9.27-9.89-14.5-10.9c-5.23-1.01-11,0.73-17.33,5.21c-1.71,1.12-3.22,2.5-4.47,4.11
	L234.36,162.7z"/>
<path class="st5" d="M288.67,75.73l3.45,6.53c0.89,1.77,1.69,3.58,2.43,5.43l-3.19,2.35c-2.66-3.54-4.71-5.62-6.15-6.23l-14.43,7.21
	l8.34,16.71l8.74-4.36c1.26-0.63,1.91-1.43,1.94-2.39c-0.07-1.37-0.27-2.73-0.61-4.06l-0.23-0.84l3.46-1.25
	c0.85,2.67,1.89,5.27,3.13,7.78c1.22,2.43,2.64,4.75,4.23,6.95l-3.11,1.93c-0.99-1.28-2.1-2.45-3.32-3.51
	c-0.77-0.59-1.82-0.56-3.13,0.09l-8.73,4.36l9.29,18.61l15.19-7.59c0.45-1.65,0.58-3.37,0.36-5.07c-0.08-1.98-0.29-3.95-0.62-5.9
	l3.8-1.14c0.68,1.5,1.61,3.86,2.79,7.1c0.85,2.18,1.55,4.41,2.1,6.68l-26.51,13.24c-2.08,1.04-5.18,2.87-9.3,5.5l-2.09-2.66
	c2.96-2.3,4.43-3.98,4.41-5.05c-0.11-0.53-0.3-1.05-0.57-1.52l-18.74-37.52c-0.35-1-1.29-1.67-2.35-1.67
	c-1.43,0.06-2.84,0.29-4.21,0.68l-0.95,0.19l-0.8-3.3c5.11-1.92,8.43-3.26,9.95-4.02l18.68-9.33
	C284.24,78.52,286.5,77.2,288.67,75.73z"/>
<path class="st5" d="M330.49,90.34l2.76-0.6c5.94-2.06,7.55-7.01,4.82-14.88c-2.72-7.86-7.32-10.67-13.79-8.43
	c-1,0.38-1.94,0.92-2.77,1.59l14.3,41.32c0.18,0.63,0.5,1.21,0.95,1.69c0.52,0.38,1.15,0.56,1.79,0.5l7.03-0.73l0.52,3.59
	c-5.19,1.26-9.18,2.37-11.96,3.33c-2.78,0.96-6.49,2.52-11.14,4.67l-1.73-2.91c1.44-0.79,2.76-1.78,3.93-2.93
	c0.73-0.82,0.92-1.99,0.49-3l-13.61-39.31c-0.39-1.12-0.96-1.73-1.71-1.83c-1.52-0.21-3.07-0.22-4.59-0.03l-0.89,0.04l-0.39-3.19
	c1-0.06,1.98-0.31,2.89-0.73L323,62.47c13.85-4.79,22.48-2.27,25.89,7.57c1.52,4.38,1.02,9.21-1.36,13.19
	c-2.12,4.14-5.75,7.31-10.14,8.86c-0.98,0.27-2.01,0.35-3.02,0.24c-1-0.04-2-0.17-2.97-0.41L330.49,90.34z"/>
<path class="st5" d="M372.8,99.1c0.2,1,1.04,1.61,2.53,1.83l4.96,0.57l0.15,3.35c-3.12,0.15-6.23,0.51-9.31,1.07
	c-3.17,0.68-6.29,1.57-9.34,2.64l-1.31-3.11c2.4-1,3.86-1.89,4.4-2.69c0.53-0.8,1.01-2.62,1.42-5.48l7.47-47.71
	c2.48-1,4.8-2.34,6.91-3.97l27.5,43.35c0.91,1.66,2.09,3.17,3.48,4.46c0.8,0.56,2.34,0.88,4.6,0.94l0.06,3.36
	c-3.81,0.25-7.6,0.74-11.35,1.48c-3.91,0.8-7.76,1.82-11.55,3.08l-1.15-3.15c1.72-0.92,3.19-1.76,4.39-2.52
	c1.2-0.76,1.71-1.61,1.53-2.55c-0.08-0.4-0.25-0.78-0.48-1.12l-6.55-10.73l-16.82,3.35l-1.61,12.35
	C372.69,98.3,372.71,98.71,372.8,99.1z M377.5,62.68l-2.38,17.18l13.07-2.6l-8.66-14.38l-1.61-3.31l-0.63-0.13L377.5,62.68z"/>
<path class="st5" d="M419.52,41.55l17.02-1.39c6.5-0.31,11.81,0.56,15.93,2.61c4.12,2.05,6.3,5.61,6.54,10.7
	c0.2,3.67-1.11,7.26-3.61,9.94c-2.43,2.82-5.84,4.62-9.54,5.04l0.03,0.59c2.08,0.53,3.94,1.69,5.34,3.32
	c1.82,1.87,3.43,3.93,4.79,6.15c3.74,6.11,6.75,9.88,9.03,11.3c2.04,1.36,4.45,2.05,6.89,1.97l-0.36,3.16l-15.01,0.7
	c-1.36,0.06-3.13-1.44-5.31-4.51c-1.95-2.8-3.75-5.62-5.41-8.46c-1.66-2.84-2.94-4.99-3.83-6.45c-0.69-1.21-1.56-2.32-2.58-3.28
	c-0.92-0.75-2.1-1.11-3.28-0.99l-1.53,0.07l0.78,16.71c-0.01,0.66,0.14,1.3,0.43,1.89c0.39,0.51,0.95,0.86,1.58,0.99l6.86,1.29
	l-0.43,3.59c-5.34-0.26-9.49-0.32-12.46-0.18c-2.97,0.14-6.99,0.58-12.05,1.33l-0.75-3.28c3.47-0.9,5.41-1.84,5.82-2.82
	c0.12-0.53,0.15-1.08,0.09-1.62l-1.95-41.55c0.09-0.95-0.34-1.87-1.13-2.41c-1.38-0.59-2.83-1.01-4.31-1.24l-0.86-0.13l0.45-3.17
	C417.63,41.65,418.58,41.7,419.52,41.55z M434.41,67.2l2.54-0.12c7.24-0.34,10.68-4.3,10.32-11.87c-0.18-3.9-1.11-6.73-2.78-8.5
	c-1.67-1.76-4.26-2.56-7.76-2.4c-1.16,0.03-2.3,0.28-3.36,0.75L434.41,67.2z"/>
<path class="st5" d="M506.95,99.01c-8.41-1.83-17-2.65-25.61-2.45l-0.44-3.45c4.76-0.45,7.47-1.13,8.13-2.04
	c0.25-0.46,0.39-0.97,0.4-1.5l4.08-42.76l-11.16-1.07c-0.71,1.47-1.62,4.74-2.73,9.8l-4.74-1.22c-0.14-3.25-0.09-6.51,0.16-9.75
	c0.23-2.45,0.44-4.26,0.61-5.44c2.93,0.68,5.9,1.19,8.89,1.53l29.83,2.85c3,0.23,6.01,0.29,9.02,0.18
	c-0.01,0.68-0.11,2.05-0.31,4.11c-0.2,2.06-0.83,5.71-1.9,10.95l-4.8,0.31c0.2-3.4-0.08-6.82-0.82-10.14l-11.16-1.06l-4.08,42.76
	c-0.21,0.86,0.11,1.76,0.81,2.29c1.74,1.05,3.61,1.86,5.57,2.41l1.33,0.38L506.95,99.01z"/>
<path class="st5" d="M586.06,58.55c2.7,1.33,5.51,2.4,8.41,3.2c3.06,0.83,6.19,1.4,9.35,1.69l-0.3,3.35
	c-1.64-0.09-3.28-0.02-4.91,0.23c-1.15,0.26-2,1.24-2.08,2.42l-8.52,40.54c-0.36,1.11-0.09,2.33,0.71,3.19
	c1.2,0.99,2.49,1.88,3.85,2.64l-1.45,3.03c-3.25-1.42-6.61-2.61-10.03-3.55c-3.87-1.03-7.79-1.85-11.74-2.44l0.35-3.51
	c4.16,0.26,6.63,0.01,7.43-0.77c0.38-0.38,0.61-0.87,0.65-1.41l7.7-35.66l-0.38-0.54c-0.97,1.95-2.11,3.82-3.38,5.58l-16.5,21.87
	c-2.02,2.73-3.89,5.57-5.6,8.5l-0.99,1.67l-8.32-0.18c-0.1-5.6-0.33-9.98-0.7-13.14l-2.88-27.92l-0.07-5.83l-0.69,0.25l-11.75,33.4
	c-0.23,0.49-0.3,1.04-0.21,1.57c0.17,0.44,0.44,0.83,0.79,1.14c1.3,1.09,2.73,2.01,4.26,2.76l1,0.54l-1.58,3.18
	c-2.95-1.3-5.99-2.4-9.09-3.29c-3.06-0.81-6.18-1.4-9.33-1.78l0.22-3.37c1.62,0.14,3.24,0.09,4.84-0.16c1.11-0.24,1.98-1.1,2.24-2.2
	l14.14-39.52c0.43-1,0.18-2.16-0.61-2.9c-1.13-0.92-2.36-1.7-3.67-2.33l-0.83-0.49l1.45-3.04c2.97,1.42,6.06,2.56,9.23,3.42
	c3.19,0.89,6.46,1.49,9.76,1.81c-0.04,2.69-0.01,4.72,0.08,6.1l3.02,35.09l0.01,4.14l0.53,0.32c0.38-1.34,1-2.6,1.82-3.73
	l20.36-28.21L586.06,58.55z"/>
<path class="st5" d="M656.36,88.13l-3,6.75c-0.84,1.79-1.77,3.55-2.77,5.27l-3.82-1.05c1.14-4.28,1.51-7.17,1.09-8.68l-14.59-6.88
	l-7.97,16.89l8.83,4.17c0.93,0.61,2.13,0.62,3.08,0.04c1.04-0.9,1.98-1.9,2.82-2.99l0.52-0.7l3.12,1.94
	c-1.57,2.32-2.97,4.75-4.18,7.27c-1.15,2.46-2.1,5.01-2.85,7.62l-3.45-1.25c0.39-1.57,0.63-3.17,0.71-4.78
	c-0.01-0.97-0.68-1.77-2.01-2.4l-8.83-4.17l-8.88,18.81l15.36,7.25c1.58-0.66,3-1.63,4.21-2.85c1.5-1.29,2.93-2.67,4.25-4.14
	l3.24,2.28c-0.75,1.46-2.04,3.65-3.86,6.58c-1.19,2.02-2.51,3.95-3.95,5.79l-26.8-12.65c-2.1-0.99-5.46-2.29-10.08-3.91l0.8-3.28
	c3.64,0.91,5.87,1.02,6.69,0.34c0.35-0.41,0.64-0.88,0.84-1.39l17.9-37.93c0.57-0.89,0.52-2.05-0.14-2.88
	c-0.93-1.08-1.98-2.05-3.14-2.89l-0.74-0.63l2.1-2.67c4.67,2.83,7.78,4.61,9.31,5.33l18.89,8.91
	C651.43,86.38,653.87,87.34,656.36,88.13z"/>
<path class="st5" d="M656.03,143.69c-0.4,0.53-0.68,1.15-0.81,1.81c-0.02,0.64,0.24,1.26,0.69,1.7c1.12,1.5,2.37,2.89,3.74,4.17
	l0.98,0.97l-2.56,2.57c-2.6-2.34-5.34-4.5-8.22-6.49c-2.98-1.98-6.08-3.77-9.28-5.37l1.29-3.12c1.64,0.82,3.4,1.39,5.21,1.69
	c1.08,0.13,2.12-0.44,2.6-1.42l23.52-34.72c0.68-0.81,0.8-1.94,0.3-2.87l-3.29-4.07l2.35-2.41c2.18,2.15,4.55,4.1,7.08,5.82
	c2.56,1.72,5.27,3.22,8.1,4.46c-0.19,2.6-0.28,5.86-0.26,9.77l0.33,30.99c-0.07,1.85-0.35,3.69-0.84,5.48l-0.29,1.03l0.54-0.04
	l17.81-26.29c0.68-0.83,0.78-1.99,0.23-2.92c-0.88-1.33-1.9-2.57-3.03-3.7l-0.77-0.83l2.45-2.55c2.51,2.29,5.16,4.42,7.92,6.39
	c2.64,1.71,5.39,3.23,8.24,4.56l-1.37,3.08c-1.53-0.68-3.15-1.18-4.8-1.46c-1.09-0.18-2.18,0.32-2.75,1.26l-18.09,26.71
	c-2.48,3.65-4.86,7.47-7.15,11.46l-1.15,1.99l-8.59-3.67c0.95-6.26,1.33-12.59,1.13-18.92l-0.44-29.63
	c-0.03-1.77,0.1-3.53,0.39-5.27l0.17-1.01l-0.54,0.04L656.03,143.69z"/>
<path class="st5" d="M716.95,202.35c-5.56-6.57-11.88-12.45-18.83-17.53l1.75-3.01c4.05,2.54,6.62,3.65,7.69,3.33
	c0.48-0.21,0.9-0.54,1.23-0.94l29.27-31.45l-8.2-7.63c-1.46,0.73-4.17,2.77-8.13,6.12l-3.02-3.86c1.87-2.66,3.89-5.21,6.06-7.64
	c1.68-1.8,2.94-3.12,3.79-3.95c1.92,2.32,3.96,4.54,6.12,6.63l21.94,20.42c2.24,2.01,4.6,3.89,7.05,5.63
	c-0.42,0.54-1.34,1.56-2.74,3.07c-1.41,1.51-4.13,4.02-8.17,7.53l-4-2.68c2.23-2.58,4.09-5.46,5.52-8.55l-8.2-7.63l-29.27,31.45
	c-0.69,0.55-0.99,1.46-0.76,2.31c0.74,1.89,1.73,3.67,2.95,5.3l0.82,1.11L716.95,202.35z"/>
<path class="st5" d="M754.92,248.4c-5.2-7.27-7.35-14.5-6.44-21.7c0.91-7.19,4.88-13.31,11.93-18.35
	c7.04-5.04,14.43-7.07,22.16-6.09c7.73,0.98,14.19,5.1,19.4,12.37c5.2,7.27,7.35,14.5,6.44,21.7c-0.91,7.19-4.88,13.31-11.93,18.35
	c-7.04,5.04-14.43,7.07-22.16,6.09C766.59,259.79,760.12,255.67,754.92,248.4z M797.65,217.08c-3.33-4.65-7.48-6.88-12.46-6.69
	c-4.98,0.19-10.29,2.3-15.93,6.34c-5.64,4.04-9.56,8.75-11.75,14.15c-2.24,4.95-1.59,10.74,1.7,15.07
	c3.33,4.65,7.48,6.88,12.46,6.69c4.98-0.19,10.29-2.3,15.93-6.34c5.64-4.03,9.55-8.75,11.75-14.15
	C801.6,227.2,800.94,221.41,797.65,217.08L797.65,217.08z"/>
<path class="st5" d="M810.27,288.53l-4.11-8l-16.23,8.35c-0.6,0.27-1.13,0.67-1.54,1.17c-0.3,0.56-0.39,1.22-0.25,1.84l1.67,6.78
	l-3.44,1.1c-1.44-3.9-3.12-7.71-5.01-11.41c-1.85-3.6-3.93-7.07-6.21-10.41l2.67-2.04c0.99,1.31,2.15,2.48,3.46,3.47
	c0.91,0.61,2.1,0.63,3.04,0.06l37.3-19.18c1.13-0.44,1.83-1.58,1.71-2.79c-0.18-1.52-0.47-3.03-0.89-4.51l3.29-0.83
	c1.16,3.3,2.5,6.53,4.02,9.67l9.36,18.2c1.12,2.2,2.4,4.32,3.83,6.34c-1.11,0.7-2.67,1.56-4.68,2.6c-2.01,1.04-4.48,2.24-7.4,3.61
	l-2.39-3.16c3.74-3.13,5.81-5.28,6.23-6.45l-6.95-13.51l-16.91,8.7l4.12,8c0.7,1.36,1.5,2,2.41,1.91l4.77-1.31l1.1,3.06
	c-2.69,0.89-5.3,1.98-7.82,3.26c-2.44,1.26-4.77,2.72-6.98,4.35l-1.85-2.68c1.38-0.91,2.67-1.95,3.84-3.12
	C811.02,290.92,810.97,289.89,810.27,288.53z"/>
<path class="st5" d="M92.77,444.12l-6.76-0.46c-1.81-0.17-3.61-0.41-5.41-0.73l-0.3-3.62c4.05-0.36,6.66-0.96,7.83-1.79l1.34-14.73
	l-17.06-1.56l-0.81,8.92c-0.23,0.99,0.13,2.03,0.93,2.67c1.1,0.61,2.26,1.11,3.46,1.49l0.76,0.23l-0.69,3.3
	c-2.49-0.63-5.02-1.07-7.58-1.32c-2.48-0.22-4.98-0.23-7.46-0.05l0-3.36c1.47-0.16,2.93-0.46,4.34-0.89
	c0.84-0.31,1.32-1.14,1.44-2.49l0.81-8.92l-19-1.73l-1.41,15.51c1.07,1.15,2.35,2.08,3.78,2.73c1.58,0.89,3.22,1.68,4.91,2.36
	l-0.95,3.51c-1.5-0.19-3.79-0.61-6.88-1.25c-2.11-0.39-4.19-0.92-6.23-1.58l2.47-27.06c0.19-2.12,0.26-5.42,0.2-9.91l3.08-0.35
	c0.36,3.42,0.97,5.38,1.81,5.87c0.47,0.17,0.96,0.27,1.46,0.29l38.3,3.49c0.95,0.21,1.93-0.2,2.44-1.03
	c0.64-1.14,1.14-2.36,1.5-3.62l0.31-0.83l2.96,0.97c-0.97,4.92-1.52,8.15-1.67,9.7l-1.74,19.07
	C92.73,439.33,92.67,441.73,92.77,444.12z"/>
<path class="st5" d="M44.43,477.49c1.18,4.01,2.35,5.99,3.49,5.95c0.47,0.01,0.94-0.14,1.31-0.44l14.02-10.72l-14.79-10.21
	c-0.38-0.23-0.81-0.35-1.26-0.34c-0.78,0.03-1.45,0.78-2.02,2.25l-1.1,3.94l-3.05-0.43c0.33-2.94,0.45-5.9,0.38-8.86
	c-0.15-3.01-0.52-6-1.11-8.96l3.01-0.73c0.36,1.29,0.96,2.49,1.77,3.56c1.13,1.32,2.43,2.49,3.87,3.48l18.25,13.28l16.3-12.36
	c1.59-1.13,3.02-2.46,4.26-3.97c0.85-1.28,1.39-2.74,1.6-4.26l3.06,0.51c-0.35,3.68-0.45,7.38-0.3,11.07
	c0.12,3.75,0.49,7.48,1.11,11.18l-3.01,0.66c-0.26-1.33-0.71-2.61-1.35-3.81c-0.31-0.75-1.03-1.25-1.84-1.3
	c-0.55-0.01-1.1,0.11-1.58,0.37L73,476.91l13.1,8.95c0.38,0.22,0.82,0.32,1.26,0.27c1.61-0.06,2.66-1.89,3.15-5.49l3.05,0.43
	c-0.33,2.9-0.46,5.82-0.38,8.74c0.13,2.81,0.46,5.61,1.01,8.38L91.18,499c-0.34-1.5-0.92-2.94-1.71-4.26
	c-1.13-1.23-2.43-2.3-3.85-3.17l-16.4-11.71l-18.03,13.98c-1.61,1.11-3.07,2.44-4.34,3.94c-0.79,1.17-1.32,2.51-1.53,3.91
	l-3.06-0.51c0.35-3.8,0.45-7.61,0.29-11.42c-0.12-3.89-0.5-7.77-1.12-11.61L44.43,477.49z"/>
<path class="st5" d="M48.46,539.36c-0.35-7.88-1.63-15.7-3.83-23.28l2.96-1.2c1.52,4.12,2.75,6.36,3.71,6.73
	c0.47,0.12,0.95,0.12,1.42,0l38.88-6.39l-1.67-10.14c-3.1-0.33-6.22-0.37-9.33-0.12l-0.03-4.49c2.85-0.89,5.75-1.6,8.68-2.14
	c2.23-0.37,3.88-0.61,4.97-0.74c0.09,2.76,0.33,5.51,0.72,8.25l4.46,27.12c0.5,2.72,1.15,5.4,1.95,8.04
	c-0.61,0.15-1.84,0.38-3.71,0.69c-1.87,0.31-5.25,0.6-10.15,0.88l-1.4-4.19c3.06-0.62,6.03-1.67,8.8-3.1l-1.67-10.14l-38.88,6.39
	c-1.02,0.17-1.64,0.59-1.85,1.25c-0.52,1.79-0.8,3.64-0.83,5.5l-0.03,1.27L48.46,539.36z"/>
<path class="st5" d="M101.89,544.96l4.94,14.86c1.68,5.73,2.06,10.65,1.13,14.76c-0.93,4.11-3.63,6.83-8.12,8.15
	c-3.22,0.97-6.71,0.59-9.64-1.06c-3.04-1.56-5.38-4.2-6.56-7.4l-0.52,0.15c-0.02,1.97-0.65,3.88-1.8,5.48
	c-1.27,2.03-2.76,3.91-4.44,5.61c-4.64,4.66-7.34,8.16-8.11,10.5c-0.77,2.11-0.86,4.4-0.26,6.57l-2.9,0.37l-3.89-13.22
	c-0.35-1.2,0.6-3.1,2.87-5.71c2.07-2.34,4.19-4.56,6.36-6.66c2.17-2.1,3.81-3.7,4.91-4.81c0.93-0.88,1.73-1.89,2.36-3.01
	c0.47-0.98,0.54-2.11,0.17-3.13l-0.39-1.34l-14.71,4.33c-0.59,0.14-1.13,0.41-1.59,0.79c-0.37,0.46-0.56,1.03-0.54,1.62l0.34,6.39
	l-3.29,0.4c-0.93-4.81-1.78-8.53-2.55-11.14c-0.77-2.61-2.03-6.1-3.8-10.45l2.76-1.38c1.55,2.9,2.81,4.42,3.78,4.57
	c0.5-0.01,0.99-0.1,1.46-0.27l36.6-10.76c1.1-0.32,1.73-0.83,1.9-1.53c0.23-1.36,0.29-2.74,0.17-4.11l-0.07-0.79l2.92-0.29
	C101.39,543.3,101.56,544.16,101.89,544.96z M82.27,563.8l0.66,2.24c1.87,6.38,6.15,8.58,12.82,6.62c3.44-1.01,5.76-2.45,6.97-4.32
	c1.21-1.87,1.36-4.35,0.45-7.44c-0.28-1.03-0.75-1.99-1.4-2.83L82.27,563.8z"/>
<path class="st5" d="M77,613.37c-0.85,0.38-1.23,1.25-1.14,2.63l0.48,4.55l-2.97,0.8c-0.76-2.77-1.7-5.48-2.82-8.12
	c-1.24-2.7-2.65-5.32-4.23-7.84l2.53-1.79c1.37,1.95,2.47,3.08,3.29,3.4c0.82,0.32,2.55,0.38,5.19,0.18l44.2-2.82
	c1.39,2.02,3.05,3.83,4.93,5.4l-33.32,33.26c-1.31,1.15-2.42,2.5-3.3,4.01c-0.35,1.42-0.32,2.9,0.07,4.31l-3,0.73
	c-0.98-3.36-2.18-6.66-3.59-9.86c-1.49-3.34-3.18-6.59-5.06-9.73l2.59-1.65c1.17,1.36,2.21,2.5,3.13,3.43
	c0.92,0.93,1.78,1.21,2.59,0.86c0.34-0.15,0.65-0.38,0.9-0.65l8.3-8l-6.35-14.39l-11.38,1.02C77.69,613.11,77.33,613.21,77,613.37z
	 M110.55,610.32l-15.85,1.29l4.94,11.18l11.14-10.62l2.64-2.1l0-0.59L110.55,610.32z"/>
<path class="st5" d="M105.86,683.9c-3.2-7.21-7.24-14.02-12.05-20.28l2.32-2.19c2.91,3.28,4.88,4.92,5.91,4.91
	c0.48-0.06,0.93-0.24,1.32-0.51l33.87-20.12l-5.25-8.84c-3.01,0.83-5.93,1.93-8.73,3.29l-1.67-4.17c2.33-1.86,4.77-3.59,7.31-5.16
	c1.94-1.15,3.4-1.98,4.36-2.5c1.09,2.54,2.31,5.01,3.68,7.41l14.04,23.63c1.46,2.35,3.04,4.61,4.75,6.78
	c-0.51,0.36-1.58,1.03-3.21,1.99c-1.63,0.97-4.67,2.48-9.13,4.52l-2.83-3.39c2.63-1.7,5-3.75,7.06-6.1l-5.25-8.84l-33.87,20.12
	c-0.89,0.53-1.31,1.14-1.26,1.84c0.17,1.86,0.58,3.68,1.23,5.43l0.44,1.19L105.86,683.9z"/>
<path class="st5" d="M178.48,696.15l-5.29,4.23c-1.45,1.1-2.94,2.14-4.48,3.12l-2.67-2.47c2.74-3,4.26-5.2,4.56-6.61l-8.96-11.77
	l-13.63,10.38l5.42,7.12c0.5,0.89,1.47,1.41,2.49,1.34c1.22-0.29,2.42-0.71,3.56-1.24l0.71-0.35l1.72,2.9
	c-2.26,1.22-4.43,2.61-6.48,4.15c-1.98,1.52-3.83,3.19-5.54,5l-2.28-2.47c0.98-1.11,1.85-2.31,2.6-3.59c0.4-0.8,0.2-1.73-0.62-2.81
	l-5.42-7.12L129,707.5l9.43,12.39c1.56,0.13,3.14-0.06,4.63-0.54c1.77-0.41,3.51-0.94,5.21-1.57l1.67,3.23
	c-1.23,0.87-3.21,2.11-5.92,3.73c-1.82,1.14-3.71,2.15-5.66,3.04l-16.46-21.62c-1.29-1.69-3.47-4.17-6.55-7.44l2.04-2.34
	c2.58,2.28,4.35,3.31,5.3,3.11c0.46-0.19,0.89-0.45,1.27-0.77l30.6-23.3c0.85-0.48,1.29-1.45,1.1-2.41
	c-0.3-1.28-0.75-2.51-1.33-3.68L154,668.5l2.84-1.28c2.61,4.28,4.38,7.04,5.32,8.28l11.6,15.24
	C175.22,692.64,176.79,694.45,178.48,696.15z"/>
<path class="st5" d="M184.21,703.55l11.33,10.81c4.17,4.27,6.81,8.44,7.92,12.5c1.11,4.07,0,7.74-3.35,11
	c-2.39,2.37-5.65,3.67-9.01,3.59c-3.41,0.05-6.72-1.19-9.27-3.46l-0.39,0.38c0.9,1.75,1.24,3.73,0.98,5.68
	c-0.17,2.39-0.6,4.74-1.29,7.03c-1.91,6.29-2.65,10.65-2.24,13.08c0.31,2.22,1.31,4.29,2.85,5.92l-2.39,1.68l-9.63-9.85
	c-0.87-0.89-0.92-3.02-0.15-6.39c0.73-3.04,1.56-5.99,2.49-8.86c0.93-2.87,1.63-5.06,2.08-6.56c0.41-1.21,0.64-2.48,0.68-3.76
	c-0.04-1.09-0.52-2.11-1.32-2.85l-0.98-1l-10.97,10.72c-0.45,0.39-0.81,0.89-1.04,1.45c-0.11,0.58-0.01,1.18,0.28,1.68l3.3,5.49
	l-2.72,1.9c-3.08-3.82-5.57-6.7-7.47-8.65c-1.91-1.95-4.66-4.43-8.26-7.44l1.79-2.51c2.73,1.83,4.56,2.58,5.48,2.26
	c0.44-0.24,0.83-0.55,1.17-0.92l27.28-26.67c0.71-0.52,1.07-1.38,0.96-2.25c-0.43-1.31-1.03-2.55-1.77-3.71l-0.43-0.67l2.44-1.62
	C182.58,701.77,183.12,702.43,184.21,703.55z M175.71,729.38l1.63,1.67c4.64,4.75,9.45,4.69,14.43-0.17
	c2.56-2.5,3.94-4.87,4.13-7.08c0.19-2.22-0.84-4.48-3.09-6.78c-0.73-0.78-1.6-1.4-2.57-1.85L175.71,729.38z"/>
<path class="st5" d="M218.33,737.51l12.65,9.24c4.69,3.69,7.86,7.47,9.49,11.36c1.63,3.89,1,7.67-1.88,11.34
	c-2.06,2.66-5.12,4.37-8.47,4.73c-3.38,0.5-6.82-0.3-9.64-2.22l-0.34,0.43c1.12,1.62,1.72,3.54,1.71,5.5
	c0.15,2.39,0.02,4.78-0.36,7.14c-1.07,6.49-1.24,10.91-0.51,13.26c0.6,2.16,1.86,4.08,3.6,5.5l-2.15,1.98l-10.84-8.51
	c-0.98-0.77-1.31-2.87-0.98-6.31c0.33-3.11,0.77-6.15,1.32-9.11c0.55-2.97,0.95-5.22,1.21-6.77c0.25-1.26,0.31-2.54,0.18-3.82
	c-0.18-1.07-0.79-2.03-1.68-2.65l-1.1-0.87l-9.47,12.06c-0.4,0.45-0.68,0.99-0.84,1.57c-0.04,0.59,0.14,1.17,0.5,1.63l3.99,5.01
	l-2.45,2.24c-3.55-3.38-6.39-5.91-8.54-7.6c-2.14-1.68-5.2-3.78-9.16-6.3l1.45-2.73c2.95,1.46,4.86,1.97,5.73,1.53
	c0.4-0.3,0.75-0.66,1.04-1.07l23.56-30c0.63-0.61,0.88-1.51,0.66-2.35c-0.6-1.24-1.35-2.4-2.24-3.45l-0.52-0.6l2.21-1.93
	C216.48,735.96,217.1,736.55,218.33,737.51z M213.28,764.24l1.84,1.44c5.23,4.1,9.99,3.42,14.28-2.05c2.21-2.82,3.27-5.34,3.17-7.56
	c-0.1-2.22-1.42-4.33-3.95-6.32c-0.82-0.68-1.77-1.18-2.79-1.5L213.28,764.24z"/>
<path class="st5" d="M285.73,783.62l-3.35,5.89c-0.94,1.56-1.94,3.08-3.01,4.55l-3.39-1.31c1.43-3.8,2.03-6.41,1.79-7.82
	l-12.68-7.62l-8.82,14.68l7.67,4.61c0.79,0.64,1.89,0.77,2.8,0.32c1.03-0.72,1.98-1.55,2.84-2.47l0.54-0.59l2.67,2.06
	c-1.65,1.97-3.15,4.06-4.49,6.25c-1.27,2.14-2.38,4.38-3.29,6.7l-3.03-1.46c0.5-1.39,0.86-2.83,1.08-4.3
	c0.08-0.89-0.46-1.68-1.61-2.38l-7.67-4.61l-9.82,16.35l13.35,8.02c1.5-0.46,2.89-1.21,4.1-2.21c1.49-1.04,2.91-2.17,4.26-3.39
	l2.75,2.38c-0.82,1.26-2.19,3.15-4.12,5.65c-1.27,1.73-2.65,3.37-4.14,4.92l-23.29-13.99c-1.82-1.1-4.77-2.59-8.84-4.49l1.03-2.92
	c3.24,1.16,5.26,1.47,6.08,0.92c0.36-0.34,0.66-0.75,0.9-1.19l19.81-32.97c0.6-0.76,0.66-1.82,0.14-2.64
	c-0.75-1.07-1.62-2.06-2.6-2.93l-0.61-0.64l2.17-2.24c4,3.01,6.67,4.92,8.01,5.72l16.42,9.86
	C281.4,781.57,283.53,782.67,285.73,783.62z"/>
<path class="st5" d="M285.68,836.73c1.92,0.96,4.14,1.12,6.18,0.44c2.1-0.78,3.77-2.41,4.59-4.49c0.99-2.23,0.91-4.8-0.23-6.96
	c-1.03-2.16-2.24-4.22-3.64-6.17c-1.47-2.08-2.4-3.39-2.78-3.93c-0.38-0.54-0.99-1.52-1.82-2.93c-0.68-1.07-1.23-2.22-1.65-3.41
	c-0.26-0.86-0.54-1.9-0.84-3.13c-0.47-2.49-0.1-5.06,1.04-7.32c1.52-3.71,4.77-6.44,8.69-7.28c3.97-0.89,8.25-0.28,12.83,1.82
	c1.65,0.76,5.66,3.34,12.04,7.75c-1.01,1.83-2.13,3.61-3.34,5.32c-1.66,2.44-2.87,4.11-3.63,5.02l-3.7-1.1
	c1.11-2.74,1.88-5.61,2.29-8.54c-1.06-1.92-3.06-3.54-5.98-4.89c-3.28-1.71-7.32-0.43-9.02,2.84c-0.13,0.24-0.24,0.49-0.33,0.75
	c-0.91,1.98-0.7,4.19,0.64,6.63c1.22,2.18,2.57,4.27,4.06,6.27c1.72,2.36,2.95,4.14,3.71,5.35c0.9,1.47,1.72,2.99,2.45,4.55
	c1.58,3.39,1.55,7.31-0.09,10.66c-2.14,4.67-5.44,7.47-9.89,8.4c-4.74,0.89-9.65,0.2-13.97-1.95c-4.64-2.07-8.8-5.06-12.25-8.79
	c0.19-0.66,1.01-2.58,2.47-5.76c0.87-2.07,1.91-4.08,3.09-5.99l4.04,0.91c-1.2,3-1.48,6.28-0.82,9.43
	C280.52,833.1,282.47,835.26,285.68,836.73z"/>
<path class="st5" d="M338.55,861.05c-7.14-3.36-14.65-5.86-22.38-7.45l0.32-3.18c4.35,0.57,6.91,0.52,7.68-0.15
	c0.32-0.36,0.55-0.79,0.66-1.26l12.44-37.38l-9.75-3.25c-1.73,2.59-3.22,5.34-4.45,8.2l-3.99-2.07c0.54-2.93,1.26-5.83,2.15-8.68
	c0.71-2.14,1.27-3.72,1.66-4.74c2.48,1.21,5.03,2.27,7.63,3.2l26.08,8.68c2.64,0.82,5.32,1.49,8.03,2.01
	c-0.15,0.61-0.52,1.81-1.12,3.61c-0.6,1.8-1.91,4.93-3.95,9.39l-4.36-0.71c0.88-3,1.33-6.11,1.35-9.23l-9.75-3.25l-12.44,37.38
	c-0.37,0.72-0.27,1.59,0.25,2.21c1.34,1.3,2.85,2.41,4.48,3.3l1.11,0.61L338.55,861.05z"/>
<path class="st5" d="M367.78,816.56l15.48,2.34c5.87,1.09,10.42,2.99,13.67,5.68c3.25,2.69,4.44,6.33,3.58,10.93
	c-0.6,3.32-2.51,6.25-5.32,8.12c-2.76,2-6.18,2.89-9.57,2.49l-0.1,0.54c1.74,0.91,3.16,2.34,4.07,4.09c1.23,2.05,2.23,4.23,2.98,6.5
	c2.06,6.25,3.95,10.24,5.68,11.99c1.53,1.64,3.54,2.76,5.74,3.21l-0.99,2.75l-13.55-2.53c-1.22-0.23-2.49-1.94-3.79-5.14
	c-1.15-2.91-2.17-5.8-3.05-8.69c-0.89-2.88-1.58-5.07-2.06-6.56c-0.36-1.23-0.91-2.4-1.61-3.47c-0.66-0.87-1.64-1.43-2.72-1.58
	l-1.38-0.26l-2.81,15.08c-0.14,0.58-0.15,1.19-0.02,1.78c0.24,0.54,0.67,0.97,1.2,1.21l5.85,2.6l-1.14,3.11
	c-4.71-1.35-8.4-2.28-11.08-2.78c-2.68-0.5-6.36-0.95-11.04-1.35l0.02-3.09c3.29-0.07,5.21-0.5,5.79-1.3
	c0.22-0.45,0.36-0.93,0.42-1.43l7-37.5c0.28-0.83,0.09-1.75-0.5-2.39c-1.11-0.82-2.31-1.5-3.58-2.02l-0.74-0.3l1.06-2.73
	C366.07,816.25,366.91,816.49,367.78,816.56z M375.67,842.58l2.3,0.43c6.53,1.22,10.43-1.59,11.71-8.43
	c0.66-3.52,0.43-6.24-0.69-8.17c-1.12-1.92-3.26-3.18-6.42-3.77c-1.04-0.22-2.12-0.23-3.16-0.04L375.67,842.58z"/>
<path class="st5" d="M428.2,832.36l-3.86,38.27c-0.08,0.48-0.06,0.98,0.05,1.45c0.19,0.39,0.5,0.71,0.89,0.91
	c1.12,0.71,2.32,1.28,3.59,1.69l0.84,0.24l-0.85,2.97c-6.61-1.61-13.42-2.29-20.22-2.04l-0.24-3.08c3.27-0.35,5.16-0.94,5.66-1.78
	c0.17-0.44,0.27-0.91,0.29-1.38l3.86-38.27c0.08-0.48,0.06-0.98-0.05-1.45c-0.17-0.38-0.45-0.69-0.81-0.9
	c-1.13-0.7-2.33-1.26-3.58-1.69l-0.76-0.23l0.85-2.97c6.61,1.61,13.42,2.29,20.22,2.04l0.24,3.08c-3.37,0.29-5.28,0.88-5.74,1.77
	C428.34,831.4,428.21,831.87,428.2,832.36z"/>
<path class="st5" d="M446.83,872.43c0,0.94,0.65,1.64,1.95,2.1l4.36,1.4l-0.47,3.04c-2.84-0.42-5.7-0.66-8.57-0.7
	c-2.97,0.05-5.93,0.28-8.88,0.7l-0.62-3.04c2.34-0.47,3.82-1.01,4.44-1.64c0.62-0.62,1.38-2.18,2.26-4.67l15.25-41.58
	c2.41-0.46,4.74-1.24,6.93-2.34l16.98,43.91c0.52,1.66,1.31,3.23,2.34,4.63c1.16,0.89,2.53,1.47,3.97,1.67l-0.54,3.04
	c-3.47-0.46-6.97-0.69-10.47-0.7c-3.66,0.02-7.31,0.25-10.94,0.7l-0.47-3.04c1.71-0.52,3.18-1.01,4.4-1.48
	c1.22-0.47,1.83-1.14,1.83-2.02c0-0.38-0.08-0.75-0.23-1.09l-3.97-10.82l-15.73,0l-3.66,10.82
	C446.86,871.7,446.81,872.06,446.83,872.43z M457.57,840.51l-5.21,15.03l12.22,0l-5.22-14.48l-0.86-3.27l-0.54-0.23L457.57,840.51z"
	/>
<path class="st5" d="M502.86,832.03l4.6,38.66l13.61-1.62c0.94-1.3,1.66-2.75,2.12-4.29c0.65-1.68,1.17-3.4,1.54-5.16l3.79,0.25
	c0.1,1.3,0.13,3.55,0.1,6.77c0.02,2.17-0.08,4.35-0.32,6.51l-25.82,3.07c-1.13,0.13-4.23,0.74-9.27,1.81l-0.97-2.87
	c1.44-0.43,2.82-1.05,4.09-1.86c0.83-0.62,1.22-1.66,1.01-2.67l-4.52-38.04c0.02-0.88-0.44-1.69-1.19-2.13
	c-1.3-0.46-2.66-0.77-4.03-0.93l-0.79-0.06l0.34-3.1c3.68,0.04,7.37-0.16,11.02-0.6c3.73-0.44,7.44-1.12,11.09-2.02l1,3.17
	c-2.1,0.61-4.16,1.37-6.16,2.26C503.08,829.74,502.57,830.91,502.86,832.03z"/>
<path class="st5" d="M556.93,821.05l9.48,37.28c0.09,0.48,0.28,0.94,0.54,1.35c0.31,0.3,0.71,0.5,1.15,0.55
	c1.3,0.29,2.62,0.41,3.95,0.36l0.87-0.06l0.22,3.08c-6.76,0.76-13.39,2.44-19.69,5.01l-1.28-2.81c2.95-1.45,4.52-2.65,4.71-3.61
	c0.01-0.47-0.05-0.94-0.2-1.4l-9.48-37.28c-0.09-0.48-0.28-0.94-0.54-1.35c-0.29-0.3-0.66-0.49-1.07-0.57
	c-1.3-0.27-2.62-0.39-3.95-0.36l-0.79,0.04l-0.22-3.08c6.76-0.76,13.39-2.44,19.69-5.01l1.28,2.81c-3.07,1.42-4.66,2.63-4.78,3.63
	C556.74,820.11,556.78,820.59,556.93,821.05z"/>
<path class="st5" d="M592.25,849.98c0.19,0.58,0.5,1.12,0.92,1.57c0.47,0.35,1.07,0.49,1.64,0.38c1.71-0.05,3.42-0.25,5.1-0.6
	l1.25-0.22l0.57,3.28c-3.12,0.71-6.2,1.62-9.21,2.73c-3.06,1.19-6.04,2.57-8.93,4.12l-1.66-2.62c1.48-0.8,2.84-1.82,4.02-3.02
	c0.67-0.74,0.79-1.82,0.31-2.7l-13.6-35.98c-0.25-0.93-1.03-1.62-1.99-1.75l-4.79,0.31l-0.56-3.03c2.76-0.5,5.48-1.24,8.1-2.23
	c2.65-1.01,5.2-2.25,7.63-3.71c1.85,1.52,4.25,3.31,7.19,5.36l23.41,16.13c1.35,1.03,2.58,2.22,3.66,3.53l0.62,0.76l0.25-0.43
	l-10.29-27.24c-0.26-0.95-1.08-1.64-2.06-1.72c-1.46-0.04-2.93,0.07-4.37,0.32l-1.03,0.14l-0.62-3.18c3.04-0.67,6.04-1.53,8.98-2.56
	c2.68-1.07,5.27-2.33,7.77-3.77l1.58,2.65c-1.32,0.79-2.54,1.74-3.63,2.83c-0.71,0.72-0.91,1.8-0.51,2.73l10.46,27.68
	c1.43,3.79,3.04,7.59,4.81,11.41l0.89,1.91l-7.29,4.5c-4.19-4.02-8.74-7.65-13.59-10.85l-22.44-15.33
	c-1.34-0.91-2.59-1.94-3.74-3.08l-0.67-0.66l-0.25,0.43L592.25,849.98z"/>
<path class="st5" d="M651.09,781.26c-0.47-0.86-1.4-1.16-2.78-0.88l-4.7,0.97l-0.98-2.93c2.72-0.99,5.36-2.17,7.92-3.52
	c2.44-1.36,4.77-2.9,6.98-4.61l2,2.37c-1.55,1.38-2.43,2.49-2.62,3.33c-0.14,1.69,0.01,3.39,0.44,5.04l6.21,45.04l-6.42,3.5
	l-33.82-29.97c-1.22-1.22-2.63-2.23-4.17-3c-1.4-0.25-2.85-0.12-4.18,0.38l-0.84-3c3.21-1.22,6.34-2.66,9.36-4.31
	c3.21-1.77,6.32-3.73,9.3-5.87l1.93,2.4c-1.17,1.11-2.27,2.29-3.31,3.53c-0.76,0.7-0.98,1.8-0.55,2.74
	c0.15,0.28,0.35,0.53,0.58,0.75l23.41,21.29l2.21,2.43l0.59-0.06l-1.23-3.23l-5.02-31.32C651.38,781.96,651.27,781.59,651.09,781.26
	z"/>
<path class="st5" d="M687.69,748.69l4.06,5.42c1.06,1.48,2.05,3,2.98,4.57l-2.55,2.59c-2.91-2.83-5.07-4.42-6.46-4.76l-12.04,8.6
	l9.95,13.94l7.29-5.2c0.9-0.47,1.45-1.42,1.41-2.44c-0.25-1.23-0.63-2.44-1.13-3.59l-0.33-0.72l2.95-1.63
	c1.15,2.3,2.47,4.5,3.95,6.6c1.46,2.02,3.07,3.92,4.83,5.69l-2.54,2.2c-1.08-1.02-2.26-1.92-3.51-2.71
	c-0.78-0.43-1.72-0.25-2.82,0.53l-7.29,5.2l11.08,15.52l12.67-9.05c0.17-1.56,0.04-3.14-0.4-4.64c-0.36-1.78-0.83-3.54-1.41-5.26
	l3.28-1.57c0.83,1.26,2.01,3.27,3.54,6.03c1.08,1.85,2.04,3.77,2.86,5.75l-22.11,15.79c-1.73,1.24-4.28,3.34-7.64,6.32l-2.27-2.11
	c2.35-2.51,3.44-4.24,3.27-5.2c-0.17-0.47-0.42-0.91-0.73-1.29l-22.35-31.3c-0.46-0.86-1.41-1.33-2.37-1.18
	c-1.28,0.26-2.53,0.67-3.72,1.22l-0.83,0.31l-1.19-2.88c4.36-2.47,7.17-4.16,8.44-5.07l15.59-11.13
	C684.09,751.84,685.95,750.32,687.69,748.69z"/>
<path class="st5" d="M736.38,769.94c1.65-1.38,2.68-3.35,2.87-5.49c0.13-2.23-0.7-4.42-2.28-6c-1.65-1.8-4.04-2.75-6.47-2.57
	c-2.39,0.08-4.77,0.37-7.11,0.87c-2.49,0.52-4.06,0.85-4.71,0.98c-0.65,0.13-1.79,0.29-3.42,0.5c-1.25,0.19-2.52,0.24-3.79,0.15
	c-0.89-0.1-1.96-0.27-3.2-0.48c-2.47-0.57-4.68-1.93-6.29-3.88c-2.8-2.88-3.99-6.95-3.2-10.88c0.78-4,3.04-7.68,6.79-11.03
	c1.35-1.21,5.32-3.86,11.91-7.93c1.27,1.66,2.46,3.4,3.54,5.19c1.57,2.5,2.62,4.27,3.15,5.33l-2.48,2.95
	c-2.07-2.11-4.39-3.97-6.92-5.52c-2.18,0.21-4.47,1.39-6.87,3.53c-2.87,2.32-3.32,6.54-1,9.41c0.17,0.21,0.35,0.41,0.55,0.6
	c1.45,1.63,3.57,2.31,6.33,2.06c2.48-0.24,4.95-0.65,7.38-1.21c2.85-0.63,4.98-1.05,6.38-1.27c1.71-0.24,3.43-0.38,5.15-0.43
	c3.74-0.1,7.32,1.5,9.74,4.35c3.42,3.83,4.67,7.97,3.74,12.42c-1.08,4.7-3.67,8.93-7.37,12.02c-3.75,3.42-8.15,6.05-12.95,7.71
	c-0.53-0.43-1.96-1.96-4.29-4.57c-1.55-1.63-2.98-3.38-4.26-5.23l2.45-3.34c2.27,2.3,5.16,3.87,8.32,4.52
	C730.99,773.21,733.75,772.29,736.38,769.94z"/>
<path class="st5" d="M779.84,731.19c-5.94,5.2-11.24,11.08-15.78,17.53l-2.79-1.56c2.27-3.76,3.25-6.12,2.94-7.1
	c-0.2-0.44-0.5-0.82-0.88-1.11l-29.28-26.36l-6.88,7.64c1.68,2.62,3.6,5.09,5.73,7.36l-3.49,2.83c-2.47-1.67-4.84-3.49-7.1-5.44
	c-1.68-1.51-2.9-2.65-3.68-3.42c2.1-1.79,4.1-3.7,5.98-5.72l18.39-20.43c1.81-2.09,3.5-4.27,5.06-6.55c0.5,0.38,1.45,1.2,2.86,2.47
	c1.41,1.27,3.75,3.73,7.03,7.38l-2.4,3.71c-2.4-2-5.07-3.66-7.92-4.93l-6.88,7.64l29.28,26.36c0.52,0.62,1.35,0.88,2.13,0.66
	c1.72-0.71,3.34-1.65,4.82-2.79l1.01-0.77L779.84,731.19z"/>
<path class="st5" d="M763.4,678.7l30.87,22.95c0.37,0.31,0.81,0.55,1.27,0.7c0.43,0.04,0.87-0.06,1.24-0.29
	c1.19-0.59,2.29-1.34,3.29-2.21l0.64-0.59l2.11,2.25c-4.77,4.85-8.85,10.34-12.13,16.31l-2.76-1.38c1.38-2.98,1.84-4.91,1.38-5.77
	c-0.29-0.38-0.64-0.7-1.03-0.96l-30.87-22.95c-0.38-0.31-0.81-0.55-1.27-0.7c-0.41-0.05-0.83,0.03-1.19,0.23
	c-1.18,0.61-2.28,1.35-3.29,2.21l-0.59,0.53l-2.11-2.25c4.77-4.85,8.85-10.34,12.13-16.31l2.76,1.38c-1.48,3.04-1.96,4.98-1.42,5.83
	C762.66,678.09,763,678.45,763.4,678.7z"/>
<path class="st5" d="M777.85,642.89c3.26-5.12,7.04-9.89,11.28-14.23c3.57,2.51,6.95,5.29,10.1,8.31l-1.6,3.94
	c-4.4-1.93-7.61-2.83-9.62-2.69c-2.24,1.15-4.61,3.83-7.1,8.06c-2.47,3.9-2.77,8.8-0.78,12.96c1.98,4.42,5.7,8.24,11.18,11.47
	c4.91,3.09,10.67,4.54,16.45,4.14c5.49-0.47,9.54-2.92,12.15-7.34c1.41-2.18,2.1-4.74,1.97-7.33l-8.45-4.98
	c-0.96-0.72-2.3-0.68-3.22,0.09l-4.16,4.14l-2.46-2.26c2.88-3.96,5.16-7.37,6.83-10.21c1.47-2.42,2.71-4.98,3.69-7.63l2.89,1.07
	c-0.3,1.18-0.45,2.4-0.46,3.62c0.05,0.95,0.6,1.79,1.45,2.21l12.14,7.16c-1.3,6.02-3.63,11.77-6.87,17.01
	c-4.11,6.98-9.38,11.54-15.8,13.69c-6.42,2.15-12.85,1.33-19.29-2.47c-7.24-4.27-11.86-9.96-13.84-17.07
	C772.36,657.44,773.53,650.22,777.85,642.89z"/>
<path class="st5" d="M834.99,632.95c0.86,0.36,1.76,0.03,2.69-0.98l2.98-3.48l2.62,1.61c-1.49,2.45-2.82,5-3.97,7.62
	c-1.11,2.76-2.04,5.58-2.79,8.45l-3.04-0.6c0.47-2.33,0.55-3.91,0.21-4.72c-0.33-0.82-1.48-2.11-3.43-3.89l-32.41-30.18
	c0.51-2.4,0.69-4.85,0.53-7.29l47.06,1.38c1.73,0.16,3.48,0.04,5.18-0.36c1.27-0.72,2.33-1.76,3.08-3.01l2.59,1.68
	c-1.77,3.02-3.34,6.16-4.71,9.38c-1.4,3.38-2.6,6.84-3.59,10.36l-2.98-0.75c0.19-1.78,0.3-3.32,0.34-4.63
	c0.04-1.3-0.34-2.13-1.16-2.47c-0.35-0.14-0.72-0.21-1.1-0.21l-11.51-0.54l-6.1,14.5l8.56,7.57
	C834.32,632.63,834.64,632.82,834.99,632.95z M809.72,610.67l11.83,10.63l4.74-11.27l-15.37-0.8l-3.35-0.48l-0.43,0.41
	L809.72,610.67z"/>
<path class="st5" d="M866.4,563.5c-3.04,7.28-5.21,14.9-6.45,22.69l-3.19-0.18c0.38-4.37,0.22-6.93-0.49-7.67
	c-0.37-0.3-0.81-0.51-1.28-0.61l-37.9-10.77l-2.81,9.89c2.67,1.62,5.47,2.98,8.39,4.09l-1.89,4.08c-2.96-0.41-5.88-1-8.77-1.76
	c-2.17-0.62-3.77-1.1-4.81-1.45c1.1-2.53,2.05-5.13,2.85-7.77l7.52-26.44c0.7-2.67,1.26-5.38,1.66-8.11
	c0.61,0.12,1.83,0.44,3.65,0.96c1.82,0.52,5.01,1.69,9.56,3.53l-0.52,4.39c-3.04-0.74-6.16-1.06-9.29-0.94l-2.81,9.89l37.9,10.77
	c0.74,0.33,1.6,0.2,2.2-0.35c1.23-1.4,2.28-2.95,3.09-4.62l0.57-1.13L866.4,563.5z"/>
<path class="st5" d="M828.54,523.75l37.81,7.06c0.47,0.12,0.97,0.14,1.45,0.07c0.41-0.15,0.75-0.44,0.98-0.81
	c0.8-1.06,1.47-2.21,1.99-3.43l0.31-0.81l2.88,1.09c-2.16,6.46-3.41,13.18-3.73,19.98l-3.08-0.02c-0.07-3.29-0.5-5.22-1.3-5.79
	c-0.42-0.21-0.88-0.35-1.35-0.41l-37.81-7.06c-0.47-0.12-0.97-0.14-1.45-0.07c-0.39,0.14-0.73,0.39-0.97,0.73
	c-0.79,1.07-1.45,2.22-1.99,3.43l-0.3,0.74l-2.88-1.09c2.16-6.46,3.41-13.18,3.73-19.98l3.08,0.02c0,3.38,0.43,5.34,1.28,5.86
	C827.6,523.53,828.06,523.7,828.54,523.75z"/>
<path class="st5" d="M878.71,490.57c-0.61,8.18-3.35,14.53-8.22,19.06c-4.87,4.53-11.26,6.5-19.18,5.91
	c-7.92-0.59-14.31-3.5-19.18-8.74c-4.87-5.23-6.99-11.94-6.38-20.11c0.61-8.18,3.35-14.53,8.22-19.06
	c4.87-4.53,11.26-6.5,19.18-5.91c7.92,0.59,14.31,3.5,19.18,8.74C877.2,475.69,879.32,482.39,878.71,490.57z M830.22,487.49
	c-0.39,5.23,1.22,9.24,4.84,12.04c3.62,2.8,8.6,4.43,14.94,4.9c5.71,0.6,11.46-0.46,16.59-3.05c4.49-2.17,7.43-6.62,7.66-11.61
	c0.39-5.23-1.22-9.24-4.84-12.04c-3.62-2.79-8.6-4.43-14.94-4.9c-5.71-0.59-11.46,0.47-16.59,3.05
	C833.39,478.05,830.45,482.51,830.22,487.49z"/>
<path class="st5" d="M871.71,441.64c0.61-0.02,1.22-0.17,1.76-0.45c0.47-0.35,0.77-0.89,0.82-1.47c0.43-1.66,0.72-3.35,0.86-5.07
	l0.14-1.26l3.31,0.37c-0.19,3.2-0.18,6.41,0.04,9.6c0.29,3.27,0.77,6.52,1.46,9.73l-2.98,0.86c-0.35-1.65-0.95-3.23-1.77-4.7
	c-0.53-0.85-1.53-1.27-2.5-1.05l-38.35,2.98c-0.96-0.02-1.85,0.54-2.23,1.42l-1.04,4.69l-3.07-0.31c0.3-2.79,0.34-5.61,0.13-8.41
	c-0.23-2.82-0.71-5.62-1.43-8.36c1.98-1.35,4.36-3.15,7.16-5.4l22.03-17.96c1.37-1.01,2.85-1.86,4.41-2.53l0.91-0.38l-0.34-0.36
	l-29.03,2.26c-0.98-0.02-1.87,0.58-2.23,1.5c-0.45,1.4-0.76,2.83-0.92,4.29l-0.15,1.03l-3.22-0.3c0.21-3.11,0.23-6.23,0.06-9.34
	c-0.28-2.87-0.76-5.71-1.44-8.52l2.99-0.78c0.39,1.49,0.96,2.93,1.7,4.28c0.49,0.88,1.48,1.38,2.48,1.25l29.5-2.29
	c4.04-0.31,8.14-0.79,12.31-1.43l2.08-0.32l2.28,8.26c-5.03,2.9-9.79,6.25-14.22,10.01l-21,17.25c-1.25,1.03-2.59,1.94-4,2.73
	l-0.82,0.45l0.34,0.36L871.71,441.64z"/>
<circle class="st5" cx="838.34" cy="348.88" r="14.48"/>
<circle class="st5" cx="80.25" cy="348.88" r="14.48"/>
<path class="st4" d="M460.25,774.29"/>
<path class="st4" d="M460.25,512.08"/>
<path class="st5" d="M225.63,456.09c0.83,0.03,1.52-0.62,1.55-1.45c0.03-0.83-0.62-1.52-1.45-1.55c-0.83-0.03-1.52,0.62-1.55,1.45
	c0,0.03,0,0.07,0,0.1C224.21,455.43,224.84,456.06,225.63,456.09z"/>
<path class="st5" d="M195.05,408.03c0.83,0.03,1.52-0.62,1.55-1.45c0.03-0.83-0.62-1.52-1.45-1.55c-0.83-0.03-1.52,0.62-1.55,1.45
	c0,0.03,0,0.07,0,0.1C193.63,407.37,194.26,408,195.05,408.03z"/>
<path class="st5" d="M340.69,304.62c0.83,0.03,1.52-0.62,1.55-1.45c0.03-0.83-0.62-1.52-1.45-1.55c-0.83-0.03-1.52,0.62-1.55,1.45
	c0,0.03,0,0.07,0,0.1C339.27,303.96,339.9,304.6,340.69,304.62z"/>
<path class="st5" d="M323.21,243.45c0.83,0.03,1.52-0.62,1.55-1.45c0.03-0.83-0.62-1.52-1.45-1.55c-0.83-0.03-1.52,0.62-1.55,1.45
	c0,0.03,0,0.07,0,0.1C321.79,242.8,322.42,243.43,323.21,243.45z"/>
<path class="st5" d="M505.26,223.06c0.83,0.03,1.52-0.62,1.55-1.45c0.03-0.83-0.62-1.52-1.45-1.55c-0.83-0.03-1.52,0.62-1.55,1.45
	c0,0.03,0,0.07,0,0.1C503.84,222.41,504.47,223.04,505.26,223.06z"/>
<path class="st5" d="M640.71,253.65c0.83,0.03,1.52-0.62,1.55-1.45c0.03-0.83-0.62-1.52-1.45-1.55c-0.83-0.03-1.52,0.62-1.55,1.45
	c0,0.03,0,0.07,0,0.1C639.29,252.99,639.92,253.62,640.71,253.65z"/>
<path class="st5" d="M640.71,396.38c0.83,0.03,1.52-0.62,1.55-1.45c0.03-0.83-0.62-1.52-1.45-1.55c-0.83-0.03-1.52,0.62-1.55,1.45
	c0,0.03,0,0.07,0,0.1C639.29,395.72,639.92,396.35,640.71,396.38z"/>
<path class="st5" d="M594.1,383.27c0.83,0.03,1.52-0.62,1.55-1.45c0.03-0.83-0.62-1.52-1.45-1.55c-0.83-0.03-1.52,0.62-1.55,1.45
	c0,0.03,0,0.07,0,0.1C592.68,382.61,593.31,383.24,594.1,383.27z"/>
<path class="st5" d="M710.61,383.27c0.83,0.03,1.52-0.62,1.55-1.45c0.03-0.83-0.62-1.52-1.45-1.55c-0.83-0.03-1.52,0.62-1.55,1.45
	c0,0.03,0,0.07,0,0.1C709.19,382.61,709.83,383.24,710.61,383.27z"/>
<path class="st5" d="M675.66,467.74c0.83,0.03,1.52-0.62,1.55-1.45c0.03-0.83-0.62-1.52-1.45-1.55c-0.83-0.03-1.52,0.62-1.55,1.45
	c0,0.03,0,0.07,0,0.1C674.24,467.08,674.87,467.71,675.66,467.74z"/>
<path class="st5" d="M763.04,493.96c0.83,0.03,1.52-0.62,1.55-1.45c0.03-0.83-0.62-1.52-1.45-1.55c-0.83-0.03-1.52,0.62-1.55,1.45
	c0,0.03,0,0.07,0,0.1C761.63,493.3,762.26,493.93,763.04,493.96z"/>
<path class="st5" d="M206.7,543.47c0.83,0.03,1.52-0.62,1.55-1.45c0.03-0.83-0.62-1.52-1.45-1.55c-0.83-0.03-1.52,0.62-1.55,1.45
	c0,0.03,0,0.07,0,0.1C205.28,542.81,205.91,543.45,206.7,543.47z"/>
<path class="st5" d="M417.88,154.61c0.83,0.03,1.52-0.62,1.55-1.45c0.03-0.83-0.62-1.52-1.45-1.55c-0.83-0.03-1.52,0.62-1.55,1.45
	c0,0.03,0,0.07,0,0.1C416.46,153.95,417.09,154.59,417.88,154.61z"/>
<path class="st5" d="M208.15,324.14c6.43,0,6.44-9.99,0-9.99C201.73,314.15,201.72,324.14,208.15,324.14z"/>
<path class="st5" d="M401.86,225.1c6.43,0,6.44-9.99,0-9.99C395.43,215.12,395.42,225.1,401.86,225.1z"/>
<path class="st5" d="M286.8,217.82c6.43,0,6.44-9.99,0-9.99C280.37,207.83,280.36,217.82,286.8,217.82z"/>
<path class="st5" d="M611.58,458.13c6.43,0,6.44-9.99,0-9.99C605.15,448.14,605.14,458.13,611.58,458.13z"/>
<path class="st5" d="M696.05,303.75c6.43,0,6.44-9.99,0-9.99C689.62,293.76,689.61,303.75,696.05,303.75z"/>
<path class="st5" d="M285.34,466.87c6.43,0,6.44-9.99,0-9.99C278.92,456.88,278.91,466.87,285.34,466.87z"/>
<path class="st5" d="M576.62,187.24c6.43,0,6.44-9.99,0-9.99C570.2,177.25,570.19,187.24,576.62,187.24z"/>
<path class="st5" d="M716.44,551.34c6.43,0,6.44-9.99,0-9.99C710.01,541.35,710,551.34,716.44,551.34z"/>
<path class="st6" d="M201.43,666.06"/>
<path class="st7" d="M500.67,304.34c-0.01-0.02-0.04-0.03-0.11-0.03c-4,0-15.98-12.98-24.97-17.98s-32.96,0-46.94,4
	s-42.95,15.98-45.94,21.97c-2.29,4.57-9.22,19.59-12.38,26.47c46.34-13.48,121.25-31.46,129.4-34.17
	C499.96,304.52,500.28,304.43,500.67,304.34z"/>
<path class="st8" d="M382.7,374.22c9.99,0,27.97,9.99,44.95,5.99s40.64-8.86,51.94-14.98c8.75-4.74,23.66-20.85,30.96-25.97
	c6.23-4.37,82.9-30.96,88.89-41.95c-7.19,4.49-257.51,76.03-307.85,86.03C313.46,380.92,374.52,374.22,382.7,374.22z"/>
<path class="st9" d="M500.67,304.34c-0.39,0.09-0.71,0.17-0.94,0.25c-8.16,2.71-83.07,20.69-129.4,34.17c0,0-87.5,39.45-87.5,45.45
	c0,0.6,3.13,0.25,8.77-0.87c50.34-10,300.66-81.54,307.85-86.03C607.2,292.47,513.58,301.34,500.67,304.34z"/>
</svg>
