<?xml version="1.0" encoding="utf-8"?>
<!-- Generator: Adobe Illustrator 23.1.1, SVG Export Plug-In . SVG Version: 6.00 Build 0)  -->
<svg version="1.1" id="Layer_1" xmlns="http://www.w3.org/2000/svg" xmlns:xlink="http://www.w3.org/1999/xlink" x="0px" y="0px"
	 viewBox="0 0 921.6 921.6" style="enable-background:new 0 0 921.6 921.6;" xml:space="preserve">
<style type="text/css">
	.st0{fill:#439798;}
	.st1{fill:#F19F9B;}
	.st2{fill:#999999;}
	.st3{opacity:0.3;fill:#F19F9B;enable-background:new    ;}
	.st4{fill:#FFFFFF;}
	.st5{fill:none;}
	.st6{fill:#439698;}
	.st7{fill:#666666;}
	.st8{fill:#B0AEAF;}
</style>
<title>vers-dei-logo-color</title>
<circle class="st0" cx="461.34" cy="460.29" r="340.49"/>
<path class="st1" d="M624.9,498.47L475.85,365.8c0,0-17,5-44,11l-243,279c0,0-1.85,2.53,8.83,15.06c0.09-0.12,4.19-4.24,4.28-4.35
	c59.92-77.09,153.5-126.71,258.7-126.71c107.99,0,203.76,52.29,263.41,132.91c1.08-1.48,33.78-55.91,33.78-55.91L624.9,498.47z"/>
<path class="st2" d="M460.85,791.8c167.35,2.76,250.85-102.17,263.22-119.09C664.41,592.09,568.64,539.8,460.65,539.8
	c-105.36,0-199.07,49.77-258.98,127.06C235.49,706.56,322.52,789.52,460.85,791.8z"/>
<path class="st3" d="M460.65,539.8c-105.2,0-198.78,49.62-258.7,126.71c-0.03,0.1-0.07,0.19-0.1,0.29c0,0,240,205,518.22,0.91
	C660.41,587.09,568.64,539.8,460.65,539.8z"/>
<path class="st4" d="M424.94,542.88c-2.76,0.89-5.45,1.97-8.11,3.08l-3.98,1.72l-3.93,1.82c-5.21,2.47-10.3,5.19-15.28,8.08
	c-9.95,5.77-19.49,12.23-28.54,19.33c-9.03,7.09-17.57,14.79-25.57,23.03c-8.01,8.22-15.51,16.92-22.45,26.05
	c-6.9,9.17-13.29,18.72-19.14,28.61c-0.78,1.21-1.46,2.47-2.16,3.73l-2.1,3.76c-1.38,2.52-2.86,4.99-4.1,7.58l-3.88,7.7l-0.98,1.92
	l-0.9,1.96l-1.8,3.92c-9.51,21.06-17.33,42.84-23.38,65.14c4.16-22.89,10.8-45.26,19.81-66.71c4.49-10.76,9.63-21.25,15.39-31.39
	l4.48-7.53l1.12-1.88l1.2-1.83l2.4-3.66c3.12-4.94,6.64-9.6,10.05-14.35c7.12-9.27,14.83-18.07,23.08-26.35
	c8.27-8.26,17.15-15.88,26.57-22.8c9.4-6.91,19.34-13.05,29.73-18.38c5.21-2.6,10.48-5.09,15.9-7.2
	C413.76,546.05,419.3,544.26,424.94,542.88z"/>
<path class="st4" d="M298.35,592.3c2.92,2.04,5.96,3.92,9.02,5.73c3.06,1.82,6.17,3.55,9.31,5.23c6.29,3.33,12.67,6.46,19.19,9.3
	c6.5,2.87,13.09,5.49,19.77,7.89c6.68,2.39,13.43,4.58,20.25,6.48c54.83,15.52,112.91,15.37,167.65-0.45
	c6.82-1.94,13.57-4.11,20.25-6.51c6.68-2.38,13.28-4.99,19.8-7.84c6.53-2.81,12.94-5.88,19.27-9.14c3.15-1.65,6.28-3.34,9.37-5.12
	c3.09-1.76,6.16-3.59,9.12-5.57c-5.7,4.32-11.65,8.3-17.82,11.91c-6.16,3.65-12.48,7.01-18.91,10.17
	c-12.9,6.27-26.26,11.57-39.96,15.85c-3.42,1.1-6.87,2.08-10.33,3.06c-1.73,0.48-3.48,0.9-5.22,1.35c-1.74,0.46-3.48,0.88-5.24,1.27
	c-6.99,1.68-14.06,2.96-21.15,4.15c-14.23,2.17-28.59,3.3-42.98,3.39c-14.39-0.03-28.75-1.09-42.99-3.17
	c-7.1-1.14-14.18-2.39-21.18-4.03c-1.75-0.38-3.51-0.79-5.24-1.24l-5.22-1.33c-3.45-0.99-6.92-1.93-10.34-3.03
	c-13.71-4.24-27.07-9.55-39.95-15.88c-6.42-3.19-12.72-6.6-18.84-10.31C309.86,600.79,303.96,596.73,298.35,592.3z"/>
<path class="st4" d="M239.35,641.3c15.4,12.81,32,24.1,49.58,33.71c17.44,9.73,35.64,18.04,54.42,24.85
	c37.51,13.68,77.1,20.81,117.03,21.08c9.94,0.05,19.88-0.35,29.8-1.21c9.91-0.9,19.76-2.25,29.57-4.03
	c19.61-3.59,38.87-8.87,57.57-15.78c9.36-3.43,18.57-7.29,27.64-11.46c9.07-4.16,17.97-8.73,26.69-13.61
	c17.55-9.65,34.19-20.88,49.7-33.55c-7.38,6.82-15.17,13.16-23.34,19c-8.13,5.91-16.5,11.47-25.13,16.67
	c-17.27,10.39-35.4,19.28-54.18,26.6c-18.81,7.35-38.25,12.97-58.08,16.78c-9.91,1.93-19.94,3.27-29.99,4.24
	c-10.06,0.92-20.15,1.36-30.27,1.34c-40.48-0.27-80.59-7.87-118.36-22.44c-18.82-7.21-36.98-16.04-54.28-26.38
	c-8.62-5.2-16.99-10.76-25.13-16.67C254.42,654.59,246.65,648.19,239.35,641.3z"/>
<path class="st4" d="M493.02,542.38c5.64,1.39,11.18,3.17,16.57,5.35c5.42,2.11,10.69,4.6,15.9,7.2
	c10.38,5.32,20.32,11.47,29.73,18.38c9.42,6.92,18.3,14.54,26.57,22.8c8.25,8.28,15.96,17.09,23.08,26.35
	c3.4,4.75,6.93,9.41,10.05,14.35l2.4,3.66l1.2,1.83l1.12,1.88l4.48,7.53c5.76,10.14,10.89,20.63,15.39,31.39
	c9,21.45,15.65,43.82,19.81,66.71c-6.05-22.3-13.87-44.08-23.38-65.14l-1.8-3.92l-0.9-1.96l-0.98-1.92l-3.88-7.7
	c-1.24-2.59-2.71-5.07-4.1-7.58l-2.1-3.76c-0.7-1.25-1.38-2.52-2.16-3.73c-5.85-9.88-12.24-19.43-19.14-28.61
	c-6.94-9.13-14.44-17.83-22.45-26.05c-8-8.24-16.54-15.93-25.57-23.03c-9.06-7.1-18.59-13.55-28.54-19.33
	c-4.98-2.88-10.07-5.61-15.28-8.08l-3.93-1.82l-3.98-1.72C498.47,544.35,495.78,543.28,493.02,542.38z"/>
<path class="st4" d="M447.64,540.06c-7.66,21.95-14.83,44.03-21.53,66.23c-6.7,22.21-12.98,44.52-18.53,67.02
	c-2.85,11.23-5.41,22.53-7.85,33.85c-2.5,11.31-4.58,22.7-6.65,34.1l-1.43,8.57c-0.5,2.85-0.86,5.73-1.32,8.59
	c-0.94,5.72-1.6,11.47-2.39,17.22c-1.42,11.51-2.46,23.06-3.3,34.66c-0.27-11.63,0.11-23.27,0.86-34.89
	c0.89-11.61,2.08-23.21,3.73-34.74c0.85-5.76,1.66-11.54,2.71-17.26c0.51-2.87,0.99-5.74,1.52-8.6l1.64-8.58
	c2.31-11.42,4.86-22.78,7.64-34.1c2.87-11.29,5.88-22.54,9.14-33.71c3.34-11.15,6.76-22.28,10.53-33.29
	C429.87,583.07,438.05,561.26,447.64,540.06z"/>
<path class="st4" d="M472.02,539.65c9.58,21.2,17.76,43.01,25.23,65.05c3.76,11.01,7.19,22.14,10.53,33.29
	c3.26,11.17,6.28,22.42,9.14,33.71c2.79,11.31,5.33,22.67,7.64,34.1l1.64,8.58c0.54,2.86,1.01,5.74,1.52,8.6
	c1.05,5.73,1.86,11.5,2.71,17.26c1.64,11.54,2.84,23.13,3.73,34.74c0.74,11.62,1.13,23.27,0.85,34.9
	c-0.84-11.6-1.88-23.15-3.3-34.66c-0.78-5.75-1.45-11.5-2.39-17.22c-0.47-2.86-0.82-5.73-1.32-8.59l-1.43-8.57
	c-2.07-11.4-4.15-22.79-6.65-34.1c-2.44-11.32-5-22.62-7.85-33.85c-5.55-22.5-11.83-44.82-18.53-67.02
	C486.81,583.69,479.63,561.61,472.02,539.65z"/>
<path class="st4" d="M362.35,560.3c15.51,3.57,31.14,6.25,46.82,8.3c15.66,2.06,31.42,3.2,47.21,3.42
	c7.88,0.19,15.76-0.09,23.62-0.55c7.87-0.36,15.69-1.35,23.49-2.41l5.84-0.92l5.8-1.11c0.97-0.19,1.94-0.35,2.91-0.56l2.88-0.67
	c1.92-0.46,3.86-0.85,5.76-1.38c7.67-1.99,15.24-4.37,22.68-7.13c-7.07,3.72-14.42,6.89-21.98,9.48c-7.6,2.55-15.36,4.6-23.22,6.13
	c-1.96,0.44-3.94,0.73-5.92,1.08c-1.98,0.32-3.96,0.67-5.95,0.89l-5.97,0.75l-5.99,0.57c-7.99,0.61-16.01,0.93-24.02,0.82
	c-8.01-0.16-16.01-0.56-23.97-1.31c-7.96-0.83-15.89-1.83-23.76-3.26c-7.87-1.36-15.68-3.07-23.41-5.04
	C377.44,565.45,369.82,563.08,362.35,560.3z"/>
<path class="st5" d="M460.61,124.66c-185.44,0-335.78,150.33-335.78,335.78c0,79.58,27.7,152.68,73.97,210.23
	c0.95-1.27,1.9-2.55,2.87-3.8c33.82,39.7,120.85,122.66,259.17,124.94c52.72,0.87,97.12-8.96,133.59-23.34
	c118.84-51.71,201.95-170.15,201.95-308.02C796.39,274.99,646.05,124.66,460.61,124.66z"/>
<path class="st2" d="M460.85,791.8c-138.32-2.28-225.36-86.24-259.17-125.94c-0.97,1.25-2.41,2.53-3.37,3.8
	c61.54,76.54,156.44,126.55,262.31,126.55c47.57,0,92.82-9.91,133.83-27.76C557.96,782.84,513.57,792.67,460.85,791.8z"/>
<circle class="st5" cx="460.61" cy="460.43" r="331.78"/>
<path class="st5" d="M460.8,8c-60.54-0.12-120.49,11.98-176.25,35.58C54.39,140.98-53.38,406.4,43.73,636.68
	c97.2,230.48,362.83,338.54,593.32,241.34c167.43-70.87,276.26-234.99,276.38-416.81C913.59,211.07,710.94,8.16,460.8,8z"/>
<path class="st2" d="M460.8,0C206.31,0,0,206.31,0,460.8s206.31,460.8,460.8,460.8s460.8-206.31,460.8-460.8S715.29,0,460.8,0z
	 M637.05,878.02c-230.48,97.2-496.12-10.86-593.32-241.34c-97.11-230.28,10.66-495.7,240.82-593.1C340.31,19.98,400.26,7.88,460.8,8
	c250.14,0.16,452.79,203.07,452.63,453.21C913.31,643.03,804.48,807.15,637.05,878.02z"/>
<path class="st2" d="M460.61,796.21c-183.23,0-336.28-152.54-336.28-335.78s153.04-335.78,336.28-335.78S796.39,277.2,796.39,460.43
	S643.84,796.21,460.61,796.21z M459.75,117.74c-187.08,0.24-343.54,157.09-343.31,344.17c0.1,80.31,33.16,154.04,79.93,212.03
	c62.18,77.11,157.46,131.91,264.24,131.77c106.76-0.14,204.4-53.16,266.38-130.41c46.64-58.12,77.02-133.94,76.92-214.26
	C803.68,273.96,646.83,117.5,459.75,117.74z"/>
<path class="st0" d="M108.95,241.03l24.37,13.37c6.31,3.46,10.15,7.83,11.52,13.11c1.37,5.28,0.23,11.24-3.42,17.9
	c-3.65,6.66-7.87,10.84-12.65,12.55c-4.78,1.71-10.35,0.82-16.71-2.67l-25.26-13.86c-0.45-0.28-0.96-0.48-1.48-0.57
	c-0.45,0.01-0.89,0.16-1.25,0.43c-1.18,0.84-2.26,1.81-3.23,2.88l-0.56,0.66l-2.62-2.12c4.43-5.96,8.03-12.51,10.67-19.45l3.19,1.07
	c-1.15,3.51-1.37,5.68-0.67,6.52c0.32,0.41,0.74,0.74,1.22,0.96l24.07,13.21c4.82,2.64,8.9,3.59,12.26,2.85
	c3.35-0.75,6.14-3.16,8.38-7.23c2.23-4.07,2.81-7.77,1.72-11.08c-1.09-3.31-3.57-6.03-7.45-8.16l-25.56-14.02
	c-0.45-0.28-0.96-0.48-1.48-0.57c-0.45,0.01-0.89,0.16-1.25,0.43c-1.17,0.8-2.24,1.74-3.19,2.81l-0.6,0.74l-2.62-2.12
	c1.85-2.31,3.5-4.78,4.92-7.38c1.53-2.83,2.85-5.77,3.95-8.79l3.19,1.07c-1.15,3.51-1.39,5.7-0.71,6.59
	C108.06,240.51,108.49,240.81,108.95,241.03z"/>
<path class="st0" d="M159.17,253.47c-3.39,0.68-6.69-1.53-7.37-4.92c0,0,0,0,0,0c-0.02-0.11-0.04-0.22-0.06-0.33
	c-0.16-1.85,0.38-3.7,1.52-5.17c1.02-1.57,2.58-2.71,4.39-3.19c3.33-0.72,6.62,1.4,7.34,4.74v0c0.04,0.17,0.07,0.34,0.09,0.51
	c0.15,1.87-0.4,3.72-1.55,5.21C162.53,251.88,160.97,253.01,159.17,253.47z"/>
<path class="st0" d="M178.64,223c1.58-1.73,2.4-4.03,2.28-6.37c-0.2-2.43-1.42-4.67-3.37-6.15c-2.05-1.7-4.78-2.37-7.38-1.81
	c-2.57,0.44-5.1,1.11-7.56,2c-2.62,0.94-4.27,1.53-4.95,1.76c-0.68,0.24-1.89,0.59-3.62,1.05c-1.33,0.4-2.69,0.64-4.07,0.72
	c-0.98,0.02-2.16,0.01-3.53-0.04c-2.75-0.24-5.35-1.39-7.38-3.26c-3.45-2.69-5.36-6.91-5.08-11.28c0.24-4.44,2.14-8.76,5.7-12.95
	c1.28-1.51,5.18-4.97,11.7-10.36c1.63,1.61,3.17,3.3,4.61,5.08c2.07,2.46,3.47,4.23,4.2,5.29l-2.24,3.56
	c-3.76-2.67-6.52-4.31-8.3-4.93c-2.33,0.55-4.63,2.17-6.9,4.85c-2.76,2.94-2.62,7.56,0.32,10.32c0.22,0.2,0.45,0.4,0.69,0.57
	c1.81,1.54,4.2,1.97,7.16,1.28c2.65-0.63,5.25-1.44,7.79-2.41c2.98-1.11,5.22-1.88,6.71-2.33c1.81-0.52,3.65-0.93,5.51-1.23
	c4.03-0.66,8.14,0.53,11.18,3.25c4.28,3.63,6.25,7.92,5.91,12.87c-0.34,4.95-2.4,9.65-6.17,14.1c-3.54,4.26-7.91,7.76-12.85,10.28
	c-0.63-0.39-2.41-1.82-5.33-4.3c-1.92-1.53-3.72-3.21-5.38-5.02l2.15-3.97c2.79,2.14,6.16,3.41,9.67,3.64
	C173.3,227.35,176.14,225.94,178.64,223z"/>
<path class="st0" d="M199.75,204.27c-3.46,0.07-6.32-2.68-6.39-6.14c0-0.11,0-0.22,0-0.33c0.17-1.85,1.02-3.58,2.41-4.82
	c1.28-1.37,3.02-2.22,4.88-2.37c3.41-0.12,6.27,2.54,6.39,5.95c0.01,0.17,0.01,0.35,0,0.52c-0.18,1.86-1.05,3.59-2.44,4.85
	C203.34,203.29,201.61,204.13,199.75,204.27z"/>
<path class="st0" d="M196.95,131.81l16.29-12.29c8.23-5.84,15.87-8.82,22.92-8.97c7.39-0.17,13.77,3.54,19.14,11.12
	c5.38,7.58,7.46,15.22,6.25,22.92c-1.21,7.7-5.72,14.32-13.53,19.86c-2.13,1.51-4.71,3.2-7.75,5.08c-3.04,1.88-5.14,3.23-6.3,4.05
	c-1.16,0.82-3.62,2.88-7.39,6.18l-2.47-2.31c1.13-1.15,2.1-2.45,2.88-3.87c0.48-0.99,0.33-2.17-0.37-3.02l-24.1-33.97
	c-0.25-0.41-0.58-0.76-0.98-1.02c-0.42-0.15-0.87-0.2-1.31-0.16c-1.45,0.15-2.88,0.53-4.21,1.11l-0.84,0.28l-1.26-2.96
	C194.73,133.35,195.74,132.67,196.95,131.81z M234.64,162.91c1.71,2.4,5.11,1.79,10.22-1.83c5.11-3.62,7.77-8.15,7.98-13.58
	c0.21-5.43-1.9-11.28-6.35-17.54c-4.44-6.26-9.28-9.9-14.51-10.91c-5.23-1.01-11.02,0.73-17.35,5.22c-1.71,1.12-3.22,2.51-4.48,4.12
	L234.64,162.91z"/>
<path class="st0" d="M289.01,75.84l3.46,6.54c0.89,1.78,1.7,3.59,2.43,5.44l-3.19,2.35c-2.66-3.55-4.71-5.63-6.15-6.24l-14.45,7.21
	l8.35,16.73l8.75-4.37c1.27-0.63,1.91-1.43,1.94-2.39c-0.06-1.37-0.27-2.74-0.61-4.07l-0.23-0.84l3.46-1.25
	c0.85,2.67,1.9,5.28,3.13,7.79c1.22,2.43,2.64,4.76,4.23,6.96l-3.12,1.94c-0.99-1.28-2.1-2.46-3.32-3.52
	c-0.77-0.59-1.82-0.56-3.14,0.09l-8.74,4.37l9.3,18.63l15.21-7.59c0.45-1.65,0.58-3.38,0.36-5.08c-0.08-1.98-0.29-3.96-0.62-5.91
	l3.8-1.14c0.68,1.5,1.61,3.87,2.79,7.11c0.85,2.18,1.55,4.42,2.11,6.69l-26.54,13.25c-2.08,1.04-5.19,2.88-9.32,5.51l-2.09-2.66
	c2.97-2.3,4.44-3.99,4.41-5.05c-0.11-0.53-0.3-1.05-0.57-1.52L261.9,97.26c-0.35-1-1.29-1.68-2.36-1.67
	c-1.43,0.06-2.84,0.29-4.22,0.68l-0.95,0.19l-0.8-3.31c5.12-1.92,8.44-3.26,9.96-4.02l18.71-9.34
	C284.58,78.63,286.85,77.31,289.01,75.84z"/>
<path class="st0" d="M330.89,90.46l2.76-0.6c5.94-2.06,7.55-7.02,4.83-14.89c-2.73-7.87-7.33-10.69-13.81-8.44
	c-1,0.38-1.94,0.92-2.78,1.59l14.32,41.37c0.18,0.63,0.5,1.21,0.95,1.7c0.52,0.38,1.15,0.56,1.79,0.5l7.03-0.73l0.53,3.6
	c-5.2,1.26-9.19,2.37-11.98,3.34c-2.79,0.96-6.5,2.52-11.16,4.67l-1.73-2.91c1.44-0.79,2.76-1.78,3.93-2.93
	c0.73-0.82,0.93-1.99,0.49-3l-13.63-39.36c-0.39-1.12-0.96-1.74-1.71-1.83c-1.52-0.21-3.07-0.22-4.6-0.03l-0.89,0.04l-0.39-3.19
	c1-0.06,1.98-0.31,2.89-0.73l15.63-6.04c13.87-4.8,22.51-2.28,25.92,7.58c1.52,4.39,1.02,9.22-1.37,13.2
	c-2.13,4.15-5.76,7.32-10.15,8.87c-0.98,0.27-2.01,0.35-3.02,0.24c-1-0.04-2-0.17-2.97-0.41L330.89,90.46z"/>
<path class="st0" d="M373.25,99.23c0.2,1,1.04,1.61,2.53,1.84l4.97,0.57l0.15,3.35c-3.13,0.15-6.24,0.51-9.32,1.08
	c-3.17,0.68-6.29,1.57-9.35,2.64l-1.31-3.12c2.4-1,3.87-1.9,4.4-2.7c0.53-0.8,1.01-2.63,1.42-5.48l7.47-47.77
	c2.48-1,4.81-2.34,6.92-3.98l27.54,43.4c0.91,1.67,2.09,3.17,3.49,4.46c0.81,0.56,2.34,0.88,4.61,0.95l0.06,3.37
	c-3.82,0.25-7.61,0.74-11.36,1.48c-3.91,0.8-7.77,1.83-11.56,3.08l-1.15-3.15c1.72-0.92,3.19-1.76,4.39-2.52
	c1.21-0.76,1.72-1.61,1.53-2.56c-0.08-0.4-0.25-0.78-0.48-1.12l-6.56-10.74l-16.84,3.35l-1.61,12.37
	C373.13,98.44,373.16,98.84,373.25,99.23z M377.95,62.77l-2.38,17.2l13.09-2.61l-8.67-14.39l-1.61-3.32l-0.63-0.13L377.95,62.77z"/>
<path class="st0" d="M420.06,41.61l17.04-1.39c6.51-0.3,11.83,0.57,15.95,2.61c4.12,2.05,6.3,5.62,6.54,10.71
	c0.2,3.67-1.11,7.27-3.62,9.96c-2.44,2.82-5.85,4.62-9.55,5.04l0.03,0.59c2.08,0.53,3.95,1.69,5.35,3.32
	c1.82,1.87,3.43,3.93,4.8,6.16c3.75,6.12,6.76,9.89,9.04,11.32c2.04,1.36,4.45,2.05,6.9,1.97l-0.36,3.17l-15.03,0.7
	c-1.36,0.06-3.13-1.44-5.32-4.52c-1.95-2.8-3.75-5.62-5.42-8.47c-1.67-2.84-2.94-5-3.83-6.46c-0.69-1.21-1.56-2.32-2.58-3.28
	c-0.92-0.76-2.1-1.11-3.28-1l-1.53,0.07l0.78,16.73c-0.01,0.66,0.14,1.31,0.43,1.89c0.39,0.51,0.95,0.86,1.58,0.99l6.87,1.29
	l-0.43,3.59c-5.35-0.26-9.5-0.32-12.48-0.18c-2.97,0.14-6.99,0.58-12.06,1.33l-0.75-3.28c3.47-0.9,5.42-1.84,5.83-2.83
	c0.12-0.53,0.15-1.08,0.09-1.62l-1.95-41.6c0.09-0.95-0.34-1.88-1.13-2.42c-1.38-0.59-2.83-1.01-4.31-1.24l-0.86-0.13l0.45-3.17
	C418.17,41.71,419.13,41.76,420.06,41.61z M434.97,67.3l2.55-0.12c7.24-0.34,10.69-4.3,10.34-11.89c-0.18-3.9-1.11-6.74-2.78-8.51
	c-1.67-1.76-4.26-2.56-7.77-2.4c-1.16,0.03-2.31,0.28-3.37,0.75L434.97,67.3z"/>
<path class="st0" d="M507.56,99.14c-8.42-1.83-17.03-2.65-25.64-2.45l-0.44-3.46c4.77-0.45,7.48-1.13,8.14-2.04
	c0.25-0.46,0.39-0.97,0.4-1.5l4.09-42.81l-11.17-1.07c-0.71,1.47-1.62,4.74-2.73,9.81l-4.75-1.22c-0.14-3.25-0.09-6.51,0.16-9.76
	c0.23-2.45,0.44-4.27,0.61-5.45c2.94,0.68,5.91,1.19,8.91,1.53L515,43.59c3.01,0.23,6.02,0.29,9.04,0.18
	c-0.01,0.68-0.11,2.05-0.31,4.11c-0.2,2.06-0.83,5.71-1.9,10.96l-4.81,0.31c0.2-3.41-0.08-6.82-0.82-10.15l-11.17-1.07l-4.09,42.82
	c-0.21,0.86,0.1,1.76,0.8,2.3c1.74,1.05,3.62,1.86,5.58,2.41l1.33,0.38L507.56,99.14z"/>
<path class="st0" d="M586.76,58.64c2.7,1.33,5.52,2.4,8.42,3.2c3.07,0.83,6.2,1.4,9.36,1.7l-0.31,3.35
	c-1.64-0.09-3.29-0.01-4.91,0.23c-1.16,0.26-2,1.24-2.08,2.43l-8.53,40.59c-0.36,1.11-0.09,2.33,0.71,3.19
	c1.2,0.99,2.49,1.88,3.86,2.65l-1.45,3.04c-3.26-1.42-6.61-2.61-10.04-3.56c-3.87-1.03-7.8-1.85-11.76-2.44l0.35-3.52
	c4.16,0.26,6.64,0,7.44-0.77c0.38-0.38,0.61-0.88,0.65-1.41l7.71-35.7l-0.38-0.54c-0.98,1.95-2.11,3.82-3.39,5.59l-16.52,21.9
	c-2.02,2.73-3.89,5.57-5.6,8.51l-0.99,1.67l-8.33-0.18c-0.1-5.61-0.33-10-0.7-13.15l-2.89-27.95l-0.07-5.84l-0.69,0.25l-11.76,33.44
	c-0.23,0.49-0.3,1.04-0.21,1.57c0.17,0.44,0.44,0.83,0.79,1.14c1.31,1.09,2.74,2.01,4.26,2.76l1,0.54l-1.58,3.18
	c-2.95-1.3-5.99-2.41-9.1-3.3c-3.07-0.81-6.19-1.4-9.34-1.78l0.22-3.38c1.62,0.14,3.25,0.09,4.85-0.16c1.11-0.24,1.98-1.1,2.24-2.21
	l14.15-39.57c0.42-1,0.18-2.16-0.61-2.9c-1.13-0.92-2.36-1.7-3.68-2.33l-0.83-0.49l1.45-3.04c2.97,1.42,6.06,2.56,9.24,3.42
	c3.2,0.89,6.47,1.5,9.77,1.81c-0.04,2.69-0.01,4.73,0.08,6.11l3.03,35.13l0,4.14l0.53,0.32c0.39-1.34,1-2.6,1.82-3.73l20.38-28.24
	L586.76,58.64z"/>
<path class="st0" d="M657.14,88.25l-3,6.76c-0.85,1.79-1.77,3.55-2.77,5.27l-3.83-1.05c1.14-4.28,1.51-7.18,1.09-8.69l-14.6-6.89
	l-7.98,16.91l8.84,4.17c0.93,0.61,2.13,0.63,3.08,0.04c1.04-0.9,1.98-1.9,2.82-2.99l0.52-0.7l3.12,1.94
	c-1.58,2.32-2.98,4.75-4.19,7.28c-1.15,2.46-2.1,5.02-2.85,7.63l-3.45-1.25c0.39-1.57,0.63-3.17,0.71-4.79
	c-0.01-0.97-0.68-1.78-2.01-2.41l-8.84-4.17l-8.89,18.83l15.38,7.25c1.58-0.67,3.01-1.63,4.21-2.85c1.51-1.29,2.93-2.67,4.26-4.15
	l3.25,2.28c-0.75,1.46-2.04,3.66-3.86,6.59c-1.19,2.02-2.51,3.95-3.96,5.79l-26.83-12.66c-2.1-0.99-5.46-2.3-10.09-3.92l0.8-3.29
	c3.64,0.91,5.88,1.02,6.7,0.34c0.35-0.41,0.64-0.88,0.84-1.39l17.92-37.97c0.58-0.89,0.52-2.05-0.14-2.89
	c-0.93-1.08-1.99-2.06-3.15-2.89l-0.74-0.63l2.11-2.67c4.68,2.83,7.79,4.61,9.32,5.34l18.91,8.92
	C652.22,86.5,654.65,87.46,657.14,88.25z"/>
<path class="st0" d="M656.85,143.89c-0.4,0.53-0.68,1.15-0.82,1.81c-0.02,0.64,0.24,1.26,0.69,1.7c1.12,1.5,2.37,2.9,3.74,4.18
	l0.98,0.97l-2.56,2.57c-2.6-2.34-5.35-4.51-8.23-6.5c-2.99-1.98-6.09-3.78-9.29-5.38l1.3-3.13c1.65,0.82,3.41,1.39,5.22,1.69
	c1.08,0.13,2.13-0.44,2.6-1.42l23.56-34.76c0.68-0.81,0.8-1.94,0.3-2.87l-3.29-4.08l2.35-2.41c2.18,2.15,4.55,4.1,7.09,5.83
	c2.57,1.73,5.28,3.22,8.11,4.47c-0.19,2.61-0.28,5.87-0.26,9.78l0.33,31.03c-0.07,1.85-0.35,3.69-0.84,5.49l-0.29,1.04l0.54-0.04
	l17.83-26.32c0.68-0.83,0.78-2,0.23-2.92c-0.89-1.33-1.9-2.57-3.04-3.7l-0.77-0.83l2.45-2.55c2.51,2.29,5.16,4.43,7.93,6.4
	c2.64,1.71,5.4,3.24,8.25,4.56l-1.37,3.08c-1.54-0.69-3.15-1.18-4.81-1.46c-1.09-0.18-2.18,0.32-2.76,1.26l-18.12,26.74
	c-2.48,3.66-4.87,7.48-7.16,11.47l-1.15,2l-8.6-3.67c0.95-6.27,1.33-12.61,1.13-18.95l-0.44-29.66c-0.03-1.77,0.1-3.53,0.39-5.28
	l0.17-1.01l-0.54,0.04L656.85,143.89z"/>
<path class="st0" d="M717.81,202.61c-5.57-6.57-11.9-12.46-18.85-17.54l1.75-3.01c4.06,2.54,6.63,3.65,7.7,3.33
	c0.48-0.21,0.9-0.54,1.23-0.95l29.3-31.48l-8.21-7.64c-1.46,0.73-4.17,2.78-8.14,6.13l-3.03-3.86c1.87-2.67,3.89-5.22,6.07-7.65
	c1.68-1.8,2.95-3.12,3.8-3.96c1.92,2.33,3.97,4.54,6.13,6.64l21.96,20.44c2.25,2.01,4.6,3.89,7.06,5.64
	c-0.42,0.54-1.34,1.56-2.75,3.08c-1.41,1.51-4.14,4.03-8.18,7.54l-4.01-2.68c2.23-2.58,4.09-5.46,5.53-8.56l-8.21-7.64l-29.3,31.48
	c-0.69,0.55-0.99,1.46-0.76,2.31c0.74,1.89,1.74,3.68,2.96,5.31l0.82,1.11L717.81,202.61z"/>
<path class="st0" d="M755.84,248.73c-5.21-7.28-7.36-14.52-6.45-21.72c0.91-7.2,4.89-13.32,11.94-18.37
	c7.05-5.04,14.45-7.08,22.18-6.1c7.74,0.98,14.21,5.11,19.42,12.39c5.21,7.28,7.36,14.52,6.45,21.72
	c-0.91,7.2-4.89,13.32-11.94,18.37c-7.05,5.04-14.45,7.08-22.18,6.1C767.53,260.15,761.05,256.02,755.84,248.73z M798.63,217.39
	c-3.33-4.66-7.49-6.89-12.47-6.7c-4.99,0.19-10.3,2.3-15.95,6.34c-5.64,4.04-9.57,8.76-11.76,14.16c-2.25,4.96-1.59,10.75,1.7,15.09
	c3.33,4.65,7.49,6.89,12.48,6.7c4.99-0.19,10.3-2.3,15.95-6.34c5.64-4.04,9.57-8.76,11.76-14.16
	C802.58,227.52,801.93,221.72,798.63,217.39z"/>
<path class="st0" d="M811.25,288.91l-4.12-8.01l-16.25,8.36c-0.6,0.27-1.13,0.67-1.55,1.18c-0.3,0.57-0.39,1.22-0.25,1.85l1.67,6.79
	l-3.45,1.1c-1.45-3.9-3.12-7.72-5.01-11.42c-1.86-3.6-3.93-7.08-6.22-10.42l2.68-2.04c0.99,1.31,2.15,2.48,3.46,3.48
	c0.92,0.61,2.1,0.63,3.04,0.06l37.35-19.2c1.13-0.44,1.83-1.58,1.72-2.79c-0.18-1.53-0.47-3.04-0.89-4.51l3.3-0.84
	c1.16,3.3,2.5,6.54,4.02,9.69l9.37,18.22c1.12,2.21,2.4,4.33,3.83,6.34c-1.11,0.7-2.67,1.56-4.68,2.6
	c-2.02,1.04-4.49,2.24-7.41,3.62l-2.39-3.17c3.74-3.13,5.82-5.29,6.24-6.46l-6.96-13.53l-16.93,8.71l4.12,8.01
	c0.7,1.36,1.5,2,2.41,1.91l4.78-1.31l1.1,3.07c-2.69,0.89-5.31,1.98-7.83,3.26c-2.44,1.26-4.78,2.72-6.98,4.36l-1.86-2.68
	c1.38-0.91,2.67-1.96,3.84-3.12C812,291.3,811.95,290.27,811.25,288.91z"/>
<path class="st6" d="M92.91,444.66l-6.77-0.46c-1.81-0.17-3.62-0.41-5.42-0.73l-0.3-3.63c4.05-0.36,6.67-0.96,7.84-1.79l1.35-14.76
	l-17.09-1.56l-0.81,8.93c-0.23,0.99,0.13,2.03,0.93,2.67c1.1,0.61,2.26,1.11,3.47,1.49l0.76,0.23l-0.69,3.3
	c-2.49-0.63-5.03-1.07-7.59-1.32c-2.49-0.22-4.98-0.23-7.47-0.05l-0.01-3.37c1.48-0.16,2.93-0.46,4.35-0.9
	c0.84-0.32,1.32-1.15,1.44-2.49l0.81-8.93l-19.03-1.74l-1.42,15.54c1.07,1.15,2.36,2.08,3.78,2.73c1.59,0.89,3.23,1.68,4.91,2.37
	l-0.95,3.52c-1.5-0.19-3.8-0.61-6.9-1.26c-2.11-0.39-4.2-0.92-6.24-1.59l2.47-27.11c0.19-2.12,0.26-5.43,0.2-9.93l3.09-0.34
	c0.37,3.43,0.97,5.39,1.81,5.88c0.47,0.18,0.96,0.27,1.46,0.29l38.37,3.5c0.95,0.21,1.93-0.2,2.44-1.03
	c0.64-1.14,1.15-2.36,1.5-3.62l0.31-0.83l2.97,0.97c-0.97,4.92-1.53,8.16-1.67,9.72l-1.74,19.11
	C92.87,439.87,92.81,442.27,92.91,444.66z"/>
<path class="st6" d="M44.49,478.1c1.19,4.01,2.35,6,3.5,5.96c0.48,0.01,0.94-0.14,1.31-0.44l14.05-10.74l-14.81-10.23
	c-0.38-0.23-0.82-0.35-1.26-0.34c-0.78,0.03-1.46,0.78-2.03,2.26l-1.1,3.94l-3.06-0.43c0.33-2.95,0.45-5.91,0.38-8.87
	c-0.15-3.01-0.52-6.01-1.11-8.97l3.02-0.73c0.36,1.29,0.96,2.5,1.77,3.56c1.13,1.33,2.44,2.5,3.87,3.49l18.28,13.3l16.33-12.38
	c1.6-1.13,3.03-2.47,4.26-3.98c0.85-1.28,1.4-2.75,1.6-4.27l3.06,0.51c-0.35,3.69-0.45,7.39-0.3,11.09c0.12,3.75,0.5,7.49,1.11,11.2
	l-3.02,0.66c-0.26-1.33-0.71-2.62-1.35-3.81c-0.32-0.75-1.03-1.25-1.84-1.3c-0.55-0.01-1.1,0.12-1.59,0.37l-12.45,9.59l13.13,8.96
	c0.38,0.23,0.82,0.32,1.26,0.27c1.61-0.06,2.66-1.89,3.16-5.5l3.06,0.43c-0.33,2.91-0.46,5.83-0.38,8.75
	c0.13,2.82,0.47,5.62,1.01,8.39l-3.01,0.81c-0.34-1.51-0.92-2.95-1.72-4.27c-1.13-1.23-2.43-2.3-3.86-3.18l-16.43-11.73
	l-18.06,14.01c-1.62,1.12-3.08,2.44-4.34,3.94c-0.8,1.18-1.32,2.52-1.53,3.92l-3.06-0.51c0.35-3.8,0.45-7.63,0.28-11.45
	c-0.13-3.9-0.5-7.78-1.13-11.63L44.49,478.1z"/>
<path class="st6" d="M48.53,540.09c-0.18-3.95-0.59-7.88-1.23-11.77c-0.64-3.9-1.52-7.75-2.61-11.55l2.97-1.2
	c1.52,4.12,2.76,6.37,3.72,6.74c0.47,0.12,0.96,0.12,1.42,0l38.95-6.41l-1.67-10.16c-3.11-0.33-6.23-0.37-9.35-0.12l-0.03-4.5
	c2.85-0.89,5.76-1.6,8.7-2.14c2.23-0.37,3.89-0.61,4.98-0.74c0.09,2.76,0.33,5.52,0.73,8.26l4.47,27.17
	c0.5,2.72,1.16,5.41,1.96,8.06c-0.61,0.15-1.85,0.38-3.72,0.69c-1.87,0.31-5.26,0.6-10.17,0.88l-1.4-4.2
	c3.07-0.62,6.04-1.67,8.82-3.11l-1.67-10.16l-38.94,6.41c-1.03,0.17-1.64,0.59-1.85,1.25c-0.52,1.79-0.8,3.65-0.83,5.51l-0.03,1.27
	L48.53,540.09z"/>
<path class="st6" d="M102.06,545.68l4.95,14.89c1.69,5.74,2.07,10.66,1.14,14.79c-0.93,4.12-3.64,6.84-8.13,8.16
	c-3.23,0.98-6.72,0.59-9.66-1.06c-3.05-1.56-5.39-4.21-6.57-7.42l-0.52,0.15c-0.02,1.97-0.65,3.89-1.8,5.49
	c-1.27,2.03-2.76,3.91-4.44,5.62c-4.64,4.67-7.35,8.18-8.12,10.52c-0.77,2.11-0.86,4.41-0.26,6.58l-2.9,0.37l-3.9-13.24
	c-0.35-1.2,0.6-3.1,2.87-5.72c2.07-2.35,4.2-4.57,6.37-6.67c2.17-2.1,3.81-3.71,4.92-4.82c0.93-0.88,1.73-1.9,2.36-3.01
	c0.47-0.98,0.54-2.11,0.17-3.14l-0.4-1.35l-14.74,4.34c-0.59,0.14-1.13,0.41-1.6,0.79c-0.37,0.46-0.56,1.03-0.54,1.62l0.34,6.41
	l-3.3,0.4c-0.93-4.82-1.78-8.54-2.55-11.16c-0.77-2.62-2.04-6.11-3.81-10.46l2.77-1.38c1.56,2.9,2.82,4.43,3.79,4.58
	c0.5-0.01,1-0.1,1.47-0.27l36.66-10.79c1.1-0.32,1.73-0.83,1.91-1.54c0.23-1.36,0.29-2.74,0.17-4.12l-0.07-0.79l2.92-0.29
	C101.56,544.01,101.73,544.87,102.06,545.68z M82.41,564.55l0.66,2.24c1.88,6.39,6.16,8.6,12.85,6.63c3.44-1.01,5.77-2.46,6.98-4.33
	c1.21-1.88,1.36-4.36,0.45-7.45c-0.28-1.03-0.76-1.99-1.4-2.84L82.41,564.55z"/>
<path class="st6" d="M77.14,614.21c-0.86,0.38-1.24,1.26-1.14,2.63l0.48,4.56l-2.97,0.8c-0.76-2.77-1.7-5.49-2.82-8.13
	c-1.25-2.7-2.66-5.32-4.24-7.85l2.53-1.8c1.37,1.95,2.47,3.09,3.29,3.41c0.82,0.32,2.55,0.38,5.2,0.18l44.28-2.84
	c1.39,2.02,3.06,3.84,4.95,5.41l-33.37,33.33c-1.31,1.15-2.43,2.51-3.3,4.02c-0.35,1.42-0.32,2.91,0.07,4.32l-3,0.73
	c-0.98-3.37-2.18-6.67-3.6-9.88c-1.49-3.35-3.19-6.6-5.07-9.74l2.59-1.66c1.17,1.36,2.21,2.5,3.14,3.43
	c0.92,0.93,1.79,1.21,2.59,0.86c0.34-0.15,0.65-0.38,0.91-0.66l8.31-8.02l-6.36-14.41l-11.4,1.03
	C77.83,613.94,77.47,614.04,77.14,614.21z M110.74,611.13l-15.88,1.3l4.95,11.2l11.16-10.64l2.65-2.11l-0.01-0.59L110.74,611.13z"/>
<path class="st6" d="M106.08,684.86c-3.21-7.23-7.26-14.05-12.08-20.31l2.32-2.2c2.92,3.29,4.89,4.93,5.92,4.92
	c0.48-0.06,0.93-0.24,1.33-0.52l33.92-20.17l-5.26-8.85c-3.01,0.83-5.94,1.93-8.75,3.3l-1.67-4.18c2.33-1.87,4.78-3.59,7.32-5.17
	c1.94-1.16,3.4-1.99,4.36-2.5c1.09,2.54,2.32,5.02,3.69,7.43l14.07,23.67c1.46,2.35,3.05,4.62,4.76,6.79
	c-0.51,0.36-1.58,1.03-3.21,2c-1.63,0.97-4.68,2.48-9.15,4.53l-2.84-3.4c2.63-1.7,5.01-3.76,7.07-6.11l-5.26-8.85l-33.92,20.17
	c-0.89,0.53-1.32,1.15-1.27,1.84c0.17,1.86,0.58,3.69,1.24,5.44l0.44,1.19L106.08,684.86z"/>
<path class="st6" d="M178.83,697.09l-5.3,4.24c-1.45,1.1-2.94,2.15-4.48,3.12l-2.67-2.48c2.74-3.01,4.26-5.21,4.57-6.62l-8.98-11.79
	l-13.65,10.4l5.44,7.13c0.5,0.89,1.47,1.41,2.49,1.34c1.23-0.29,2.42-0.71,3.56-1.24l0.71-0.35l1.72,2.9
	c-2.26,1.22-4.43,2.61-6.49,4.16c-1.98,1.52-3.83,3.2-5.55,5.01l-2.28-2.48c0.98-1.11,1.85-2.32,2.6-3.6c0.4-0.8,0.2-1.73-0.62-2.81
	l-5.44-7.13l-15.2,11.58l9.45,12.41c1.57,0.12,3.14-0.06,4.64-0.54c1.77-0.41,3.52-0.94,5.22-1.58l1.68,3.23
	c-1.23,0.87-3.21,2.12-5.93,3.73c-1.82,1.14-3.71,2.16-5.67,3.05l-16.5-21.65c-1.29-1.7-3.48-4.18-6.56-7.45l2.04-2.34
	c2.58,2.28,4.35,3.32,5.31,3.11c0.46-0.19,0.89-0.45,1.27-0.77l30.65-23.35c0.85-0.48,1.29-1.45,1.1-2.41
	c-0.3-1.28-0.75-2.51-1.34-3.69l-0.33-0.82l2.85-1.28c2.61,4.29,4.39,7.05,5.34,8.29l11.63,15.26
	C175.55,693.58,177.13,695.39,178.83,697.09z"/>
<path class="st6" d="M184.57,704.5l11.36,10.82c4.18,4.27,6.83,8.45,7.95,12.52c1.11,4.08,0,7.75-3.35,11.02
	c-2.4,2.38-5.66,3.68-9.03,3.6c-3.42,0.05-6.73-1.18-9.28-3.46l-0.39,0.38c0.9,1.75,1.25,3.74,0.99,5.69
	c-0.17,2.39-0.6,4.75-1.29,7.05c-1.91,6.3-2.65,10.67-2.24,13.1c0.31,2.23,1.31,4.3,2.86,5.93l-2.39,1.68l-9.66-9.87
	c-0.87-0.89-0.92-3.03-0.15-6.4c0.73-3.04,1.56-6,2.5-8.88c0.93-2.88,1.63-5.07,2.08-6.57c0.41-1.22,0.63-2.49,0.67-3.77
	c-0.04-1.09-0.52-2.12-1.32-2.85l-0.98-1l-10.98,10.75c-0.45,0.4-0.81,0.89-1.04,1.45c-0.11,0.58-0.01,1.18,0.28,1.68l3.31,5.5
	l-2.72,1.9c-3.09-3.82-5.58-6.71-7.49-8.66c-1.91-1.95-4.67-4.44-8.28-7.45l1.79-2.52c2.74,1.83,4.57,2.59,5.49,2.27
	c0.44-0.24,0.83-0.56,1.17-0.93l27.32-26.73c0.71-0.52,1.08-1.38,0.96-2.25c-0.44-1.31-1.03-2.56-1.78-3.71l-0.43-0.67l2.45-1.63
	C182.93,702.72,183.48,703.39,184.57,704.5z M176.07,730.39l1.64,1.67c4.65,4.76,9.47,4.7,14.45-0.17c2.56-2.51,3.94-4.88,4.13-7.1
	c0.19-2.22-0.84-4.49-3.1-6.79c-0.73-0.78-1.6-1.41-2.57-1.85L176.07,730.39z"/>
<path class="st6" d="M218.76,738.5l12.67,9.25c4.71,3.69,7.88,7.48,9.51,11.38c1.64,3.89,1.01,7.68-1.88,11.37
	c-2.06,2.67-5.13,4.38-8.48,4.75c-3.38,0.5-6.83-0.29-9.66-2.22l-0.34,0.43c1.12,1.62,1.73,3.54,1.72,5.51
	c0.15,2.39,0.03,4.79-0.36,7.16c-1.07,6.5-1.24,10.93-0.51,13.28c0.6,2.17,1.86,4.09,3.61,5.51l-2.15,1.98l-10.86-8.52
	c-0.98-0.77-1.31-2.88-0.99-6.33c0.33-3.11,0.76-6.16,1.31-9.13c0.55-2.97,0.95-5.24,1.21-6.79c0.25-1.26,0.31-2.55,0.18-3.83
	c-0.18-1.07-0.79-2.03-1.68-2.66l-1.1-0.87l-9.48,12.09c-0.4,0.45-0.68,0.99-0.84,1.57c-0.04,0.59,0.14,1.17,0.5,1.63l4,5.02
	l-2.45,2.24c-3.56-3.39-6.41-5.92-8.56-7.61c-2.15-1.68-5.21-3.79-9.18-6.31l1.45-2.73c2.95,1.46,4.87,1.97,5.74,1.53
	c0.4-0.3,0.75-0.66,1.04-1.07l23.59-30.07c0.63-0.61,0.89-1.51,0.66-2.36c-0.6-1.24-1.36-2.4-2.25-3.45l-0.52-0.6l2.21-1.93
	C216.91,736.95,217.53,737.54,218.76,738.5z M213.72,765.28l1.84,1.44c5.24,4.11,10.01,3.42,14.31-2.06
	c2.21-2.82,3.27-5.35,3.17-7.58c-0.1-2.23-1.42-4.34-3.96-6.33c-0.82-0.68-1.77-1.18-2.79-1.5L213.72,765.28z"/>
<path class="st6" d="M286.28,784.64l-3.36,5.9c-0.94,1.56-1.94,3.08-3.01,4.56l-3.4-1.31c1.43-3.81,2.03-6.42,1.79-7.84l-12.71-7.62
	l-8.83,14.71l7.69,4.62c0.8,0.64,1.89,0.76,2.81,0.32c1.03-0.73,1.99-1.56,2.85-2.47l0.53-0.59l2.68,2.06
	c-1.65,1.97-3.15,4.07-4.49,6.27c-1.28,2.15-2.38,4.39-3.3,6.71l-3.04-1.46c0.5-1.4,0.86-2.84,1.08-4.31
	c0.08-0.89-0.46-1.69-1.62-2.38l-7.69-4.62l-9.83,16.39l13.38,8.03c1.5-0.46,2.9-1.22,4.11-2.22c1.49-1.04,2.92-2.18,4.27-3.4
	l2.75,2.38c-0.82,1.27-2.2,3.15-4.13,5.66c-1.27,1.73-2.65,3.38-4.14,4.93l-23.34-14.01c-1.83-1.1-4.78-2.6-8.85-4.5l1.03-2.93
	c3.25,1.16,5.28,1.47,6.09,0.92c0.36-0.35,0.66-0.75,0.9-1.19l19.83-33.04c0.61-0.76,0.66-1.83,0.13-2.65
	c-0.75-1.08-1.63-2.06-2.61-2.93l-0.61-0.64l2.17-2.25c4.01,3.01,6.69,4.92,8.03,5.73l16.45,9.87
	C281.94,782.59,284.08,783.69,286.28,784.64z"/>
<path class="st6" d="M286.28,837.85c1.92,0.96,4.15,1.12,6.19,0.43c2.1-0.78,3.77-2.42,4.59-4.5c0.99-2.24,0.91-4.81-0.24-6.97
	c-1.03-2.16-2.25-4.23-3.65-6.18c-1.48-2.08-2.41-3.39-2.79-3.94c-0.38-0.54-0.99-1.52-1.83-2.94c-0.68-1.07-1.23-2.22-1.65-3.42
	c-0.26-0.86-0.54-1.91-0.84-3.13c-0.47-2.49-0.1-5.07,1.04-7.33c1.52-3.72,4.78-6.45,8.7-7.3c3.98-0.89,8.27-0.29,12.85,1.81
	c1.66,0.76,5.68,3.34,12.06,7.75c-1.02,1.84-2.13,3.62-3.34,5.33c-1.66,2.44-2.87,4.12-3.63,5.03l-3.7-1.09
	c1.11-2.75,1.88-5.62,2.29-8.56c-1.07-1.92-3.07-3.55-6-4.89c-3.28-1.71-7.33-0.43-9.04,2.85c-0.13,0.24-0.24,0.49-0.33,0.75
	c-0.91,1.99-0.69,4.2,0.65,6.64c1.22,2.18,2.58,4.28,4.07,6.28c1.72,2.36,2.96,4.15,3.73,5.35c0.91,1.47,1.73,2.99,2.46,4.56
	c1.59,3.39,1.56,7.32-0.09,10.68c-2.14,4.68-5.44,7.49-9.9,8.42c-4.75,0.9-9.67,0.21-13.99-1.95c-4.64-2.07-8.82-5.06-12.27-8.79
	c0.19-0.66,1.01-2.58,2.47-5.77c0.87-2.08,1.91-4.09,3.09-6l4.04,0.91c-1.2,3-1.48,6.29-0.81,9.45
	C281.11,834.21,283.06,836.38,286.28,837.85z"/>
<path class="st6" d="M339.26,862.17c-7.16-3.36-14.68-5.86-22.43-7.45l0.32-3.18c4.36,0.57,6.92,0.52,7.69-0.16
	c0.32-0.36,0.55-0.79,0.67-1.26l12.43-37.46l-9.77-3.24c-1.73,2.6-3.22,5.35-4.45,8.22l-4-2.07c0.54-2.94,1.26-5.84,2.15-8.7
	c0.71-2.15,1.27-3.73,1.66-4.75c2.49,1.21,5.04,2.28,7.65,3.2l26.13,8.67c2.64,0.82,5.33,1.49,8.04,2.01
	c-0.15,0.61-0.52,1.81-1.12,3.61c-0.6,1.8-1.91,4.94-3.95,9.42l-4.37-0.71c0.88-3.01,1.33-6.12,1.35-9.25l-9.77-3.24l-12.43,37.46
	c-0.36,0.72-0.27,1.59,0.25,2.22c1.34,1.3,2.85,2.41,4.49,3.3l1.11,0.62L339.26,862.17z"/>
<path class="st6" d="M368.55,817.57l15.51,2.34c5.88,1.1,10.44,2.99,13.7,5.69c3.25,2.7,4.45,6.35,3.59,10.95
	c-0.6,3.32-2.52,6.26-5.33,8.13c-2.77,2.01-6.19,2.9-9.59,2.49l-0.1,0.54c1.75,0.91,3.17,2.34,4.08,4.09
	c1.23,2.05,2.24,4.24,2.99,6.51c2.06,6.26,3.96,10.26,5.69,12.01c1.54,1.64,3.54,2.77,5.75,3.21l-0.99,2.75l-13.57-2.53
	c-1.23-0.23-2.49-1.95-3.8-5.15c-1.15-2.91-2.17-5.81-3.06-8.7c-0.89-2.89-1.58-5.08-2.07-6.57c-0.36-1.23-0.91-2.4-1.61-3.47
	c-0.66-0.87-1.64-1.44-2.72-1.58l-1.38-0.26l-2.82,15.11c-0.14,0.58-0.15,1.2-0.02,1.78c0.24,0.54,0.67,0.97,1.2,1.22l5.86,2.6
	l-1.14,3.12c-4.72-1.36-8.42-2.28-11.1-2.79c-2.68-0.5-6.37-0.95-11.05-1.35l0.02-3.09c3.29-0.07,5.22-0.51,5.8-1.3
	c0.22-0.45,0.36-0.93,0.43-1.43l7.01-37.57c0.28-0.83,0.09-1.75-0.51-2.4c-1.11-0.82-2.31-1.5-3.59-2.02l-0.74-0.3l1.07-2.74
	C366.83,817.26,367.68,817.5,368.55,817.57z M376.45,843.64l2.3,0.43c6.54,1.22,10.45-1.59,11.73-8.44c0.66-3.53,0.43-6.26-0.7-8.18
	c-1.12-1.93-3.27-3.19-6.44-3.78c-1.04-0.22-2.12-0.23-3.17-0.04L376.45,843.64z"/>
<path class="st6" d="M429.03,833.35l-3.83,38.34c-0.08,0.48-0.06,0.98,0.05,1.46c0.19,0.39,0.5,0.71,0.89,0.91
	c1.12,0.71,2.33,1.28,3.59,1.69l0.84,0.24l-0.85,2.97c-6.63-1.6-13.44-2.28-20.26-2.02l-0.24-3.08c3.28-0.35,5.17-0.95,5.67-1.79
	c0.17-0.44,0.27-0.91,0.29-1.38l3.83-38.34c0.08-0.48,0.06-0.98-0.05-1.46c-0.17-0.38-0.45-0.69-0.81-0.9
	c-1.13-0.7-2.34-1.26-3.59-1.69l-0.76-0.23l0.85-2.97c6.63,1.6,13.44,2.28,20.26,2.02l0.24,3.08c-3.37,0.29-5.29,0.88-5.74,1.78
	C429.17,832.4,429.04,832.87,429.03,833.35z"/>
<path class="st6" d="M447.74,873.49c0,0.94,0.65,1.64,1.95,2.1l4.37,1.4l-0.46,3.04c-2.84-0.42-5.71-0.65-8.58-0.69
	c-2.98,0.05-5.95,0.29-8.89,0.71l-0.63-3.04c2.34-0.47,3.82-1.02,4.44-1.64c0.62-0.62,1.38-2.19,2.26-4.68l15.24-41.67
	c2.41-0.46,4.74-1.25,6.94-2.35l17.05,43.97c0.52,1.66,1.32,3.23,2.34,4.64c1.16,0.89,2.53,1.47,3.98,1.67l-0.54,3.04
	c-3.48-0.46-6.98-0.69-10.49-0.69c-3.66,0.02-7.32,0.26-10.96,0.71l-0.47-3.04c1.72-0.52,3.18-1.02,4.41-1.49
	c1.22-0.47,1.83-1.15,1.83-2.03c0-0.38-0.08-0.75-0.24-1.09l-3.99-10.84l-15.75,0.02l-3.65,10.85
	C447.77,872.75,447.72,873.12,447.74,873.49z M458.47,841.5l-5.21,15.06l12.25-0.01l-5.24-14.5l-0.86-3.28l-0.55-0.23L458.47,841.5z
	"/>
<path class="st6" d="M503.82,832.96l4.64,38.72l13.63-1.63c0.94-1.3,1.66-2.76,2.12-4.3c0.65-1.68,1.17-3.41,1.54-5.17l3.8,0.25
	c0.1,1.3,0.14,3.56,0.11,6.78c0.03,2.18-0.08,4.35-0.32,6.52l-25.87,3.1c-1.14,0.14-4.23,0.74-9.29,1.82l-0.97-2.87
	c1.45-0.43,2.82-1.06,4.1-1.87c0.83-0.62,1.23-1.66,1.01-2.67l-4.57-38.1c0.02-0.88-0.44-1.69-1.2-2.13
	c-1.31-0.46-2.66-0.77-4.04-0.93l-0.79-0.06l0.33-3.1c3.69,0.03,7.38-0.17,11.04-0.62c3.74-0.45,7.45-1.13,11.11-2.04l1.01,3.18
	c-2.11,0.62-4.17,1.38-6.17,2.27C504.04,830.67,503.53,831.84,503.82,832.96z"/>
<path class="st6" d="M557.96,821.91l9.53,37.33c0.09,0.48,0.28,0.94,0.55,1.35c0.31,0.31,0.71,0.5,1.15,0.55
	c1.3,0.29,2.63,0.41,3.96,0.36l0.87-0.06l0.22,3.08c-6.78,0.76-13.41,2.46-19.72,5.04l-1.28-2.81c2.96-1.45,4.53-2.66,4.71-3.62
	c0.01-0.47-0.05-0.95-0.2-1.4l-9.54-37.33c-0.09-0.48-0.28-0.94-0.55-1.35c-0.29-0.3-0.66-0.5-1.07-0.57
	c-1.3-0.27-2.63-0.39-3.96-0.36l-0.79,0.04l-0.22-3.08c6.78-0.76,13.41-2.46,19.73-5.04l1.28,2.81c-3.07,1.43-4.67,2.64-4.79,3.64
	C557.77,820.96,557.81,821.45,557.96,821.91z"/>
<path class="st6" d="M593.36,850.85c0.19,0.59,0.51,1.12,0.93,1.57c0.47,0.35,1.07,0.49,1.64,0.38c1.72-0.05,3.43-0.25,5.11-0.6
	l1.25-0.22l0.58,3.28c-3.13,0.72-6.21,1.63-9.22,2.74c-3.06,1.2-6.05,2.58-8.94,4.14l-1.66-2.62c1.48-0.8,2.84-1.82,4.02-3.03
	c0.67-0.74,0.79-1.83,0.31-2.7l-13.66-36.03c-0.25-0.93-1.04-1.63-2-1.75l-4.8,0.32l-0.57-3.04c2.77-0.5,5.48-1.25,8.12-2.24
	c2.65-1.02,5.21-2.26,7.64-3.73c1.85,1.52,4.26,3.31,7.2,5.36l23.46,16.13c1.35,1.03,2.59,2.22,3.67,3.53l0.62,0.76l0.25-0.43
	l-10.34-27.28c-0.26-0.95-1.09-1.64-2.07-1.72c-1.47-0.04-2.94,0.07-4.38,0.33l-1.03,0.14l-0.62-3.18c3.05-0.68,6.05-1.54,8.99-2.58
	c2.68-1.08,5.28-2.34,7.78-3.78l1.59,2.65c-1.33,0.79-2.55,1.74-3.64,2.84c-0.71,0.72-0.91,1.81-0.51,2.74l10.5,27.71
	c1.44,3.79,3.05,7.6,4.83,11.43l0.89,1.91l-7.29,4.52c-4.2-4.02-8.76-7.65-13.62-10.85l-22.49-15.33c-1.34-0.91-2.6-1.94-3.75-3.08
	l-0.67-0.66l-0.25,0.43L593.36,850.85z"/>
<path class="st6" d="M652.23,781.95c-0.47-0.87-1.4-1.16-2.79-0.87l-4.71,0.98l-0.98-2.93c2.72-1,5.37-2.18,7.93-3.54
	c2.44-1.37,4.77-2.91,6.99-4.62l2.01,2.37c-1.56,1.38-2.43,2.5-2.62,3.34c-0.13,1.69,0.02,3.4,0.45,5.04l6.27,45.11l-6.43,3.52
	l-33.92-29.99c-1.22-1.22-2.63-2.23-4.18-3c-1.41-0.25-2.85-0.12-4.19,0.38l-0.84-3c3.22-1.23,6.35-2.67,9.37-4.33
	c3.22-1.78,6.33-3.75,9.31-5.89l1.94,2.41c-1.17,1.12-2.28,2.3-3.31,3.54c-0.76,0.7-0.98,1.81-0.54,2.74
	c0.15,0.28,0.35,0.53,0.59,0.75l23.48,21.3l2.22,2.43l0.59-0.06l-1.24-3.24l-5.07-31.37C652.52,782.65,652.41,782.29,652.23,781.95z
	"/>
<path class="st6" d="M688.87,749.27l4.08,5.43c1.06,1.48,2.06,3,2.99,4.58l-2.55,2.6c-2.92-2.83-5.08-4.42-6.48-4.76l-12.05,8.63
	l9.99,13.95l7.29-5.22c0.9-0.48,1.45-1.43,1.41-2.45c-0.26-1.23-0.64-2.44-1.14-3.6l-0.33-0.72l2.96-1.63
	c1.15,2.3,2.48,4.51,3.96,6.61c1.46,2.02,3.08,3.93,4.84,5.69l-2.55,2.21c-1.08-1.02-2.26-1.92-3.52-2.71
	c-0.79-0.43-1.73-0.25-2.83,0.54l-7.29,5.22l11.12,15.54l12.68-9.08c0.17-1.56,0.03-3.14-0.4-4.65c-0.36-1.78-0.83-3.54-1.42-5.27
	l3.28-1.58c0.84,1.26,2.02,3.27,3.56,6.04c1.09,1.85,2.05,3.78,2.88,5.76l-22.14,15.84c-1.73,1.24-4.28,3.35-7.65,6.34l-2.28-2.11
	c2.36-2.52,3.44-4.25,3.27-5.22c-0.17-0.47-0.42-0.91-0.74-1.3l-22.43-31.33c-0.46-0.86-1.42-1.33-2.38-1.18
	c-1.29,0.26-2.54,0.68-3.72,1.23l-0.83,0.31l-1.2-2.88c4.36-2.48,7.18-4.18,8.45-5.09l15.6-11.17
	C685.26,752.44,687.12,750.92,688.87,749.27z"/>
<path class="st6" d="M737.67,770.5c1.65-1.38,2.68-3.36,2.87-5.5c0.12-2.24-0.71-4.42-2.29-6.01c-1.65-1.8-4.05-2.75-6.49-2.56
	c-2.39,0.08-4.78,0.37-7.12,0.88c-2.5,0.53-4.07,0.86-4.72,0.98c-0.65,0.13-1.79,0.3-3.42,0.5c-1.25,0.19-2.53,0.25-3.79,0.15
	c-0.9-0.1-1.96-0.26-3.21-0.48c-2.47-0.56-4.69-1.93-6.31-3.88c-2.8-2.88-4.01-6.95-3.22-10.89c0.77-4.01,3.04-7.7,6.79-11.06
	c1.36-1.21,5.33-3.87,11.93-7.96c1.28,1.66,2.47,3.4,3.55,5.19c1.57,2.5,2.63,4.28,3.16,5.34l-2.48,2.96
	c-2.08-2.12-4.41-3.97-6.94-5.52c-2.18,0.21-4.48,1.39-6.88,3.55c-2.88,2.33-3.32,6.55-0.99,9.43c0.17,0.21,0.36,0.41,0.55,0.6
	c1.46,1.63,3.57,2.31,6.35,2.06c2.49-0.25,4.95-0.66,7.39-1.22c2.85-0.63,4.98-1.06,6.39-1.28c1.71-0.24,3.43-0.39,5.16-0.44
	c3.74-0.1,7.33,1.5,9.76,4.35c3.44,3.83,4.69,7.98,3.77,12.44c-1.08,4.71-3.67,8.95-7.37,12.05c-3.75,3.43-8.16,6.07-12.96,7.74
	c-0.53-0.43-1.96-1.96-4.31-4.57c-1.56-1.63-2.99-3.38-4.27-5.23l2.45-3.35c2.27,2.3,5.18,3.87,8.34,4.52
	C732.28,773.78,735.04,772.86,737.67,770.5z"/>
<path class="st6" d="M781.14,731.64c-5.94,5.22-11.24,11.12-15.79,17.59l-2.79-1.56c2.26-3.77,3.24-6.14,2.93-7.12
	c-0.2-0.44-0.51-0.82-0.89-1.11l-29.37-26.37l-6.88,7.66c1.69,2.63,3.62,5.09,5.75,7.37l-3.49,2.84c-2.48-1.67-4.85-3.49-7.12-5.44
	c-1.68-1.51-2.91-2.65-3.69-3.42c2.1-1.8,4.1-3.71,5.99-5.74l18.4-20.49c1.81-2.09,3.5-4.29,5.06-6.57c0.5,0.38,1.45,1.2,2.87,2.47
	c1.41,1.27,3.76,3.73,7.05,7.38l-2.4,3.72c-2.41-2-5.08-3.66-7.94-4.93l-6.88,7.66l29.37,26.37c0.52,0.62,1.35,0.88,2.13,0.66
	c1.73-0.71,3.35-1.65,4.82-2.8l1.01-0.77L781.14,731.64z"/>
<path class="st6" d="M764.61,679.08l30.95,22.95c0.38,0.31,0.81,0.55,1.28,0.7c0.43,0.04,0.87-0.06,1.24-0.29
	c1.19-0.6,2.29-1.34,3.29-2.22l0.64-0.6l2.12,2.25c-4.77,4.87-8.85,10.37-12.12,16.35l-2.77-1.37c1.38-2.99,1.84-4.92,1.37-5.78
	c-0.29-0.38-0.64-0.7-1.03-0.96l-30.95-22.95c-0.38-0.31-0.81-0.55-1.28-0.7c-0.41-0.05-0.83,0.03-1.19,0.23
	c-1.18,0.61-2.28,1.36-3.3,2.22l-0.59,0.53l-2.12-2.25c4.78-4.87,8.86-10.37,12.13-16.35l2.77,1.37c-1.48,3.04-1.95,4.99-1.42,5.84
	C763.86,678.47,764.2,678.82,764.61,679.08z"/>
<path class="st6" d="M779.03,643.18c3.26-5.13,7.04-9.92,11.28-14.27c3.58,2.51,6.97,5.29,10.14,8.31l-1.6,3.95
	c-4.41-1.93-7.63-2.82-9.64-2.68c-2.25,1.15-4.61,3.85-7.1,8.09c-2.47,3.91-2.76,8.82-0.76,12.99c1.98,4.42,5.72,8.25,11.21,11.48
	c4.92,3.09,10.69,4.53,16.49,4.12c5.5-0.48,9.55-2.94,12.16-7.37c1.41-2.18,2.09-4.75,1.97-7.35l-8.47-4.98
	c-0.97-0.72-2.3-0.68-3.22,0.1l-4.16,4.16l-2.47-2.27c2.88-3.98,5.16-7.39,6.83-10.24c1.47-2.43,2.7-4.99,3.68-7.65l2.9,1.07
	c-0.3,1.18-0.45,2.4-0.46,3.62c0.05,0.95,0.6,1.8,1.46,2.21l12.17,7.15c-1.3,6.03-3.61,11.8-6.85,17.05
	c-4.11,6.99-9.38,11.57-15.81,13.73c-6.43,2.16-12.87,1.35-19.33-2.45c-7.26-4.27-11.89-9.96-13.89-17.08
	C773.55,657.77,774.71,650.54,779.03,643.18z"/>
<path class="st6" d="M836.25,633.15c0.86,0.36,1.76,0.03,2.7-0.99l2.98-3.49l2.63,1.61c-1.49,2.46-2.81,5.01-3.96,7.64
	c-1.11,2.76-2.04,5.59-2.79,8.47l-3.05-0.6c0.47-2.34,0.54-3.92,0.21-4.73c-0.33-0.82-1.48-2.12-3.44-3.89L799,606.98
	c0.51-2.4,0.69-4.86,0.52-7.31l47.15,1.31c1.74,0.16,3.49,0.04,5.18-0.37c1.27-0.72,2.33-1.76,3.08-3.02l2.6,1.68
	c-1.77,3.03-3.34,6.17-4.7,9.41c-1.4,3.39-2.6,6.85-3.59,10.38l-2.99-0.74c0.18-1.78,0.29-3.33,0.33-4.64
	c0.04-1.31-0.35-2.13-1.16-2.47c-0.35-0.14-0.72-0.21-1.1-0.21l-11.54-0.52l-6.09,14.53l8.58,7.57
	C835.58,632.82,835.9,633.02,836.25,633.15z M810.91,610.87l11.87,10.63l4.73-11.3l-15.4-0.78l-3.35-0.47l-0.43,0.41L810.91,610.87z
	"/>
<path class="st6" d="M867.61,563.52c-3.04,7.3-5.19,14.93-6.43,22.74l-3.19-0.17c0.37-4.38,0.21-6.94-0.5-7.68
	c-0.37-0.3-0.82-0.51-1.29-0.61l-37.98-10.73l-2.8,9.91c2.67,1.61,5.49,2.98,8.41,4.08l-1.89,4.09c-2.96-0.41-5.89-0.99-8.78-1.75
	c-2.18-0.61-3.78-1.1-4.82-1.44c1.1-2.54,2.05-5.14,2.85-7.79l7.49-26.5c0.7-2.68,1.25-5.39,1.65-8.13
	c0.62,0.12,1.84,0.44,3.66,0.95c1.83,0.52,5.02,1.69,9.58,3.52l-0.51,4.39c-3.04-0.74-6.17-1.05-9.3-0.93l-2.8,9.91l37.98,10.73
	c0.74,0.33,1.61,0.19,2.21-0.35c1.23-1.4,2.27-2.96,3.09-4.64l0.56-1.14L867.61,563.52z"/>
<path class="st6" d="M829.62,523.76l37.88,7.05c0.48,0.12,0.97,0.14,1.45,0.07c0.41-0.15,0.75-0.44,0.98-0.81
	c0.8-1.06,1.47-2.21,1.99-3.44l0.31-0.81l2.89,1.09c-2.16,6.47-3.41,13.2-3.72,20.01l-3.09-0.02c-0.08-3.29-0.51-5.22-1.3-5.8
	c-0.42-0.21-0.88-0.35-1.35-0.41l-37.88-7.05c-0.48-0.12-0.97-0.14-1.46-0.07c-0.39,0.14-0.73,0.39-0.97,0.73
	c-0.79,1.07-1.46,2.22-1.99,3.44l-0.3,0.74l-2.89-1.09c2.16-6.47,3.41-13.2,3.72-20.01l3.09,0.02c0,3.39,0.43,5.34,1.29,5.87
	C828.68,523.54,829.14,523.71,829.62,523.76z"/>
<path class="st6" d="M879.82,490.47c-0.6,8.19-3.33,14.56-8.2,19.11c-4.87,4.54-11.27,6.53-19.21,5.95
	c-7.93-0.58-14.34-3.49-19.23-8.72c-4.88-5.23-7.02-11.95-6.43-20.14c0.6-8.19,3.33-14.56,8.2-19.11
	c4.87-4.54,11.27-6.52,19.21-5.95c7.93,0.58,14.34,3.49,19.23,8.72C878.28,475.57,880.42,482.28,879.82,490.47z M831.24,487.47
	c-0.38,5.24,1.24,9.26,4.87,12.05c3.63,2.79,8.62,4.42,14.97,4.89c5.72,0.59,11.48-0.49,16.61-3.09c4.5-2.18,7.43-6.65,7.66-11.64
	c0.38-5.24-1.24-9.25-4.87-12.05c-3.63-2.79-8.62-4.42-14.97-4.89c-5.72-0.59-11.48,0.49-16.61,3.09
	C834.4,478.01,831.46,482.48,831.24,487.47L831.24,487.47z"/>
<path class="st6" d="M872.73,441.46c0.61-0.02,1.22-0.17,1.76-0.45c0.47-0.35,0.77-0.89,0.82-1.47c0.43-1.66,0.71-3.36,0.85-5.08
	l0.13-1.26l3.31,0.36c-0.19,3.2-0.17,6.42,0.06,9.62c0.29,3.27,0.79,6.53,1.48,9.74l-2.98,0.86c-0.36-1.65-0.96-3.24-1.78-4.71
	c-0.53-0.85-1.53-1.27-2.51-1.05l-38.41,3.05c-0.97-0.02-1.85,0.54-2.23,1.43l-1.03,4.7l-3.08-0.3c0.29-2.8,0.33-5.62,0.12-8.42
	c-0.24-2.83-0.72-5.63-1.45-8.37c1.98-1.36,4.37-3.16,7.16-5.42l22.04-18.03c1.37-1.01,2.85-1.87,4.41-2.54l0.91-0.38l-0.34-0.36
	l-29.08,2.31c-0.99-0.02-1.88,0.59-2.23,1.51c-0.45,1.4-0.75,2.84-0.91,4.3l-0.15,1.03l-3.23-0.29c0.2-3.11,0.21-6.24,0.04-9.35
	c-0.29-2.87-0.78-5.72-1.46-8.53l2.99-0.79c0.39,1.49,0.96,2.93,1.71,4.29c0.5,0.88,1.48,1.38,2.49,1.25l29.55-2.35
	c4.04-0.32,8.15-0.8,12.33-1.45l2.09-0.32l2.3,8.27c-5.04,2.91-9.8,6.28-14.22,10.05l-21,17.32c-1.25,1.03-2.59,1.95-4.01,2.75
	l-0.83,0.46l0.34,0.36L872.73,441.46z"/>
<circle class="st0" cx="839.35" cy="349.3" r="14.5"/>
<circle class="st0" cx="80.35" cy="349.3" r="14.5"/>
<path class="st5" d="M460.8,775.22"/>
<path class="st5" d="M460.8,512.7"/>
<path class="st4" d="M225.9,456.64c0.83,0.03,1.52-0.62,1.55-1.45s-0.62-1.52-1.45-1.55s-1.52,0.62-1.55,1.45c0,0.03,0,0.07,0,0.1
	C224.48,455.98,225.11,456.61,225.9,456.64z"/>
<path class="st4" d="M195.28,408.52c0.83,0.03,1.52-0.62,1.55-1.45s-0.62-1.52-1.45-1.55s-1.52,0.62-1.55,1.45c0,0.03,0,0.07,0,0.1
	C193.86,407.86,194.49,408.49,195.28,408.52z"/>
<path class="st4" d="M341.1,304.99c0.83,0.03,1.52-0.62,1.55-1.45s-0.62-1.52-1.45-1.55s-1.52,0.62-1.55,1.45c0,0.03,0,0.07,0,0.1
	C339.68,304.33,340.31,304.96,341.1,304.99z"/>
<path class="st4" d="M323.6,243.75c0.83,0.03,1.52-0.62,1.55-1.45s-0.62-1.52-1.45-1.55s-1.52,0.62-1.55,1.45c0,0.03,0,0.07,0,0.1
	C322.18,243.09,322.81,243.72,323.6,243.75z"/>
<path class="st4" d="M505.87,223.33c0.83,0.03,1.52-0.62,1.55-1.45s-0.62-1.52-1.45-1.55s-1.52,0.62-1.55,1.45c0,0.03,0,0.07,0,0.1
	C504.45,222.67,505.08,223.31,505.87,223.33z"/>
<path class="st4" d="M641.48,253.95c0.83,0.03,1.52-0.62,1.55-1.45s-0.62-1.52-1.45-1.55s-1.52,0.62-1.55,1.45c0,0.03,0,0.07,0,0.1
	C640.06,253.29,640.69,253.93,641.48,253.95z"/>
<path class="st4" d="M641.48,396.85c0.83,0.03,1.52-0.62,1.55-1.45s-0.62-1.52-1.45-1.55s-1.52,0.62-1.55,1.45c0,0.03,0,0.07,0,0.1
	C640.06,396.19,640.69,396.83,641.48,396.85z"/>
<path class="st4" d="M594.82,383.73c0.83,0.03,1.52-0.62,1.55-1.45s-0.62-1.52-1.45-1.55s-1.52,0.62-1.55,1.45c0,0.03,0,0.07,0,0.1
	C593.39,383.07,594.03,383.7,594.82,383.73z"/>
<path class="st4" d="M711.47,383.73c0.83,0.03,1.52-0.62,1.55-1.45s-0.62-1.52-1.45-1.55s-1.52,0.62-1.55,1.45c0,0.03,0,0.07,0,0.1
	C710.05,383.07,710.68,383.7,711.47,383.73z"/>
<path class="st4" d="M676.47,468.3c0.83,0.03,1.52-0.62,1.55-1.45s-0.62-1.52-1.45-1.55s-1.52,0.62-1.55,1.45c0,0.03,0,0.07,0,0.1
	C675.05,467.64,675.68,468.28,676.47,468.3z"/>
<path class="st4" d="M763.96,494.55c0.83,0.03,1.52-0.62,1.55-1.45s-0.62-1.52-1.45-1.55s-1.52,0.62-1.55,1.45c0,0.03,0,0.07,0,0.1
	C762.54,493.89,763.17,494.52,763.96,494.55z"/>
<path class="st4" d="M206.95,544.13c0.83,0.03,1.52-0.62,1.55-1.45s-0.62-1.52-1.45-1.55s-1.52,0.62-1.55,1.45c0,0.03,0,0.07,0,0.1
	C205.53,543.47,206.16,544.1,206.95,544.13z"/>
<path class="st4" d="M418.38,154.8c0.83,0.03,1.52-0.62,1.55-1.45s-0.62-1.52-1.45-1.55s-1.52,0.62-1.55,1.45c0,0.03,0,0.07,0,0.1
	C416.96,154.14,417.59,154.77,418.38,154.8z"/>
<path class="st4" d="M208.4,324.53c6.43,0,6.45-10,0-10C201.97,314.53,201.96,324.53,208.4,324.53z"/>
<path class="st4" d="M402.34,225.37c6.43,0,6.45-10,0-10C395.9,215.37,395.89,225.37,402.34,225.37z"/>
<path class="st4" d="M287.15,218.08c6.43,0,6.45-10,0-10C280.71,208.08,280.7,218.08,287.15,218.08z"/>
<path class="st4" d="M612.31,458.68c6.43,0,6.45-10,0-10C605.88,448.68,605.87,458.68,612.31,458.68z"/>
<path class="st4" d="M696.89,304.11c6.43,0,6.45-10,0-10C690.45,294.11,690.44,304.11,696.89,304.11z"/>
<path class="st4" d="M285.69,467.43c6.43,0,6.45-10,0-10C279.25,457.43,279.24,467.43,285.69,467.43z"/>
<path class="st4" d="M577.32,187.46c6.43,0,6.45-10,0-10C570.88,177.46,570.87,187.46,577.32,187.46z"/>
<path class="st4" d="M717.3,552c6.43,0,6.45-10,0-10C710.87,542,710.85,552,717.3,552z"/>
<path class="st1" d="M201.67,666.86"/>
<path class="st2" d="M501.27,304.71c-0.01-0.02-0.04-0.03-0.11-0.03c-4,0-16-13-25-18s-33,0-47,4s-43,16-46,22
	c-2.29,4.58-9.23,19.62-12.39,26.5c46.39-13.5,121.39-31.5,129.56-34.21C500.56,304.88,500.89,304.8,501.27,304.71z"/>
<path class="st7" d="M383.16,374.67c10,0,28,10,45,6s40.69-8.87,52-15c8.76-4.74,23.69-20.87,31-26c6.24-4.37,83-31,89-42
	c-7.19,4.5-257.82,76.12-308.22,86.13C313.84,381.38,374.97,374.67,383.16,374.67z"/>
<path class="st8" d="M501.27,304.71c-0.39,0.09-0.71,0.17-0.95,0.25c-8.17,2.71-83.17,20.71-129.56,34.21c0,0-87.61,39.5-87.61,45.5
	c0,0.6,3.14,0.25,8.78-0.87c50.4-10.02,301.02-81.64,308.22-86.13C607.93,292.82,514.2,301.7,501.27,304.71z"/>
</svg>
