<?xml version="1.0" encoding="utf-8"?>
<!-- Generator: Adobe Illustrator 23.1.1, SVG Export Plug-In . SVG Version: 6.00 Build 0)  -->
<svg version="1.1" id="Layer_1" xmlns="http://www.w3.org/2000/svg" xmlns:xlink="http://www.w3.org/1999/xlink" x="0px" y="0px"
	 viewBox="0 0 910.4 202.75" style="enable-background:new 0 0 910.4 202.75;" xml:space="preserve">
<style type="text/css">
	.st0{fill:#439798;}
	.st1{fill:#999999;}
	.st2{fill:#F19F9B;}
	.st3{opacity:0.3;fill:#F19F9B;enable-background:new    ;}
	.st4{fill:#FFFFFF;}
	.st5{fill:#439698;}
	.st6{fill:none;}
	.st7{fill:#666666;}
	.st8{fill:#B0AEAF;}
</style>
<title>vers-dei-wordmark-color</title>
<path class="st0" d="M280.83,50.18v17.66c0,4.57-1.26,8.05-3.78,10.42c-2.52,2.38-6.19,3.56-11.02,3.56
	c-4.82,0-8.44-1.07-10.85-3.21c-2.41-2.14-3.62-5.52-3.62-10.12V50.18c0.02-0.34-0.03-0.68-0.14-1c-0.14-0.25-0.36-0.45-0.62-0.57
	c-0.83-0.4-1.7-0.71-2.59-0.92l-0.54-0.11l0.38-2.11c4.68,0.65,9.42,0.65,14.09,0l0.38,2.11c-2.3,0.43-3.58,0.97-3.83,1.62
	c-0.13,0.31-0.19,0.64-0.16,0.97v17.44c0,3.49,0.72,6.06,2.16,7.7c1.44,1.64,3.64,2.46,6.59,2.46c2.95,0,5.18-0.81,6.7-2.43
	c1.59-1.84,2.4-4.22,2.27-6.64V50.18c0.02-0.34-0.03-0.68-0.13-1c-0.14-0.25-0.36-0.45-0.62-0.57c-0.81-0.41-1.66-0.72-2.54-0.92
	l-0.59-0.11l0.38-2.11c1.85,0.33,3.73,0.49,5.62,0.49c2.04-0.01,4.08-0.17,6.1-0.49l0.38,2.11c-2.3,0.43-3.6,0.97-3.89,1.62
	C280.85,49.53,280.81,49.86,280.83,50.18z"/>
<path class="st0" d="M289.95,80.83c-1.6-1.51-1.66-4.03-0.15-5.63c0.05-0.05,0.1-0.1,0.15-0.15c0.9-0.76,2.06-1.16,3.24-1.11
	c1.19-0.05,2.35,0.35,3.27,1.11c1.6,1.47,1.7,3.95,0.23,5.54c-0.07,0.08-0.15,0.16-0.23,0.23c-0.91,0.76-2.08,1.16-3.27,1.11
	C292.01,81.99,290.86,81.59,289.95,80.83z"/>
<path class="st0" d="M313.28,78.91c1.49,0.05,2.94-0.49,4.02-1.51c1.1-1.1,1.68-2.61,1.59-4.16c-0.02-1.7-0.81-3.29-2.16-4.32
	c-1.27-1.07-2.64-2.01-4.08-2.83c-1.53-0.88-2.49-1.44-2.89-1.67c-0.4-0.23-1.06-0.67-2-1.32c-0.74-0.48-1.42-1.04-2.02-1.67
	c-0.41-0.47-0.89-1.04-1.43-1.73c-1.01-1.43-1.53-3.16-1.46-4.91c-0.12-2.78,1.15-5.44,3.38-7.1c2.51-1.79,5.54-2.69,8.61-2.56
	c3.3,0.27,6.58,0.74,9.83,1.4c-0.11,1.45-0.3,2.89-0.57,4.32c-0.34,2.02-0.62,3.42-0.84,4.21l-2.65,0.38
	c-0.09-2.05-0.44-4.08-1.03-6.05c-1.54-0.99-3.36-1.46-5.18-1.35c-2.56-0.13-4.74,1.84-4.87,4.4c-0.01,0.19-0.01,0.38,0.01,0.57
	c0.07,1.63,0.93,3.13,2.32,4c1.4,1.02,2.86,1.95,4.37,2.78c1.76,0.99,3.06,1.76,3.89,2.29c0.99,0.67,1.95,1.39,2.86,2.16
	c1.98,1.68,3.09,4.16,3.02,6.75c0.18,3.18-1.25,6.25-3.81,8.15c-2.73,1.93-6.02,2.92-9.37,2.81c-3.52,0.04-7.01-0.64-10.26-2
	c-0.07-0.47-0.11-1.92-0.11-4.35c-0.05-1.56,0.02-3.12,0.22-4.67l2.81-0.59c0.11,2.23,0.88,4.39,2.21,6.18
	C309.08,78.16,311.15,79.05,313.28,78.91z"/>
<path class="st0" d="M331.59,80.83c-1.6-1.51-1.66-4.03-0.15-5.63c0.05-0.05,0.1-0.1,0.15-0.15c0.9-0.76,2.06-1.16,3.24-1.11
	c1.19-0.05,2.35,0.35,3.27,1.11c1.6,1.47,1.7,3.95,0.23,5.54c-0.07,0.08-0.15,0.16-0.23,0.23c-0.91,0.76-2.08,1.16-3.27,1.11
	C333.65,81.99,332.49,81.59,331.59,80.83z"/>
<path class="st0" d="M357.94,45.81l12.96-0.38c6.41,0,11.47,1.26,15.17,3.78c3.89,2.63,5.83,6.9,5.83,12.8
	c0,5.9-1.73,10.63-5.18,14.17c-3.46,3.55-8.23,5.32-14.31,5.32c-1.66,0-3.62-0.07-5.89-0.22c-2.27-0.14-3.85-0.22-4.75-0.22
	c-0.9,0-2.93,0.16-6.1,0.49l-0.43-2.11c1.01-0.18,1.99-0.5,2.92-0.95c0.61-0.34,0.97-1,0.92-1.7V50.35c0.02-0.3-0.02-0.61-0.13-0.89
	c-0.16-0.23-0.38-0.42-0.62-0.57c-0.81-0.46-1.68-0.79-2.59-0.97l-0.54-0.16l0.43-2C356.23,45.79,357,45.81,357.94,45.81z
	 M366.04,75.78c0,1.87,1.99,2.81,5.97,2.81c3.98,0,7.02-1.37,9.13-4.1c2.11-2.74,3.16-6.54,3.16-11.42c0-4.88-1.17-8.54-3.51-10.99
	c-2.34-2.45-5.98-3.67-10.91-3.67c-1.3-0.05-2.59,0.11-3.83,0.49V75.78z"/>
<path class="st0" d="M408.91,77.72c2.44-0.06,4.79-0.87,6.75-2.32l1.13,1.73c-3.46,3.21-6.68,4.81-9.67,4.81
	c-3.15,0.15-6.21-1.03-8.45-3.24c-2.16-2.3-3.3-5.38-3.16-8.53c-0.09-3.29,1.05-6.49,3.19-8.99c2.05-2.43,5.11-3.8,8.29-3.7
	c3.4,0,5.95,1.03,7.64,3.1c1.8,2.4,2.7,5.35,2.54,8.34l-14.69,0.97C402.78,75.11,404.92,77.72,408.91,77.72z M410.16,66.22
	c0-4-1.19-5.99-3.56-5.99c-1.35,0.01-2.55,0.83-3.05,2.08c-0.74,1.56-1.1,3.27-1.05,5L410.16,66.22z"/>
<path class="st0" d="M433.7,94.73c-3.35-0.32-5.62-0.49-6.8-0.49c-1.19,0-3.56,0.16-7.13,0.49l-0.54-1.94
	c0.98-0.17,1.93-0.5,2.81-0.97c0.57-0.36,0.91-1,0.86-1.67V63.2c0-1.22-0.47-1.84-1.4-1.84l-2.48,0.32l-0.27-2.05
	c2.78-1.28,5.76-2.1,8.8-2.43l1.13,1.24c0.03,0.92,0.21,1.84,0.54,2.7l2.38-1.78c1.25-1.1,2.82-1.76,4.48-1.89
	c3.28,0,5.69,0.99,7.24,2.97c1.55,1.98,2.32,4.82,2.32,8.5c0.1,3.43-1.16,6.76-3.51,9.26c-2.33,2.48-5.62,3.84-9.02,3.73
	c-1.33-0.04-2.62-0.45-3.73-1.19v9.5c-0.02,0.65,0.31,1.27,0.86,1.62c1.04,0.42,2.13,0.71,3.24,0.86l0.59,0.11L433.7,94.73z
	 M433.59,79.18c1.53-0.08,2.91-0.98,3.59-2.35c0.99-1.57,1.48-3.86,1.49-6.88c0-5.62-1.64-8.42-4.91-8.42
	c-1.33,0-2.79,0.74-4.37,2.21v12.42c0.39,0.86,1.01,1.61,1.78,2.16C431.86,78.86,432.71,79.16,433.59,79.18L433.59,79.18z"/>
<path class="st0" d="M467.61,65.36V76.1c-0.07,0.55,0.1,1.1,0.46,1.51c0.44,0.3,0.95,0.49,1.49,0.54l1.35,0.11l0.49,1.84
	c-2.47,0.45-4.9,1.07-7.29,1.84c-1.37-0.72-2.38-1.97-2.81-3.46c-2.3,2.3-4.19,3.46-5.67,3.46c-1.83,0.09-3.63-0.53-5.02-1.73
	c-1.29-1.23-1.98-2.97-1.89-4.75c-0.12-1.79,0.75-3.5,2.27-4.46c2.01-1.11,4.24-1.76,6.53-1.92l3.62-0.43v-2.54
	c0.07-1.45-0.14-2.9-0.62-4.27c-0.41-0.94-1.38-1.5-2.4-1.4c-1.1-0.02-2.19,0.22-3.19,0.7c-0.29,1.62-0.39,3.27-0.32,4.91
	l-3.35,0.92c-0.79-2.13-1.33-4.34-1.62-6.59c4.25-1.94,7.42-2.92,9.5-2.92c2.92,0,5.06,0.64,6.43,1.92
	C466.93,60.67,467.61,62.66,467.61,65.36z M455.84,77.05c0.51,0.59,1.27,0.9,2.05,0.84c1.23-0.13,2.37-0.69,3.24-1.57v-5.51
	l-2.81,0.59c-2.09,0.47-3.13,1.67-3.13,3.62C455.17,75.75,455.4,76.47,455.84,77.05z"/>
<path class="st0" d="M489.97,57.47c1.48,0.12,2.92,0.56,4.21,1.3c-0.18,0.97-0.51,2.36-1,4.16c-0.33,1.32-0.74,2.62-1.21,3.89
	l-2.27,0.27c0-3.42-0.49-5.13-1.46-5.13c-1.3,0-2.85,1.24-4.64,3.73v11.23c-0.03,0.35,0.05,0.69,0.21,1
	c0.22,0.25,0.5,0.45,0.81,0.57c1,0.41,2.06,0.68,3.13,0.81l0.76,0.11l-0.38,2.16c-4.28-0.32-7-0.49-8.15-0.49
	c-1.15,0-3.19,0.16-6.1,0.49l-0.49-1.94c1-0.17,1.97-0.5,2.86-0.97c0.57-0.36,0.91-1,0.86-1.67v-13.5c0-1.22-0.47-1.84-1.4-1.84
	l-2.48,0.32l-0.27-2.05c1.48-0.63,3.01-1.15,4.56-1.57c1.45-0.43,2.95-0.72,4.46-0.86l1.13,1.24c-0.01,1.26,0.15,2.51,0.49,3.73
	l1.51-2.11C486.13,58.61,487.96,57.53,489.97,57.47z"/>
<path class="st0" d="M504.33,74.37c-0.1,0.96,0.11,1.92,0.59,2.75c0.59,0.54,1.39,0.8,2.19,0.7c1.5-0.16,2.92-0.72,4.13-1.62
	l1.08,1.78c-3.17,2.63-5.78,3.94-7.83,3.94c-1.75,0.1-3.47-0.43-4.86-1.49c-1.19-0.99-1.78-2.74-1.78-5.26V61.04h-2.7l-0.43-2
	l3.13-0.97v-2.65l6.48-2.97v5.94l6.37-0.49l-0.59,3.51l-5.78-0.22L504.33,74.37z"/>
<path class="st0" d="M546.07,62.79c-0.63-0.85-1.67-1.32-2.73-1.21c-1.28,0-2.85,0.76-4.72,2.27c0.07,0.72,0.11,1.31,0.11,1.78
	v11.34c-0.06,0.55,0.17,1.1,0.6,1.46c0.71,0.5,1.49,0.9,2.32,1.19l-0.43,1.94c-3.17-0.32-4.98-0.49-5.43-0.49
	c-0.45,0-2.46,0.16-6.02,0.49l-0.38-1.89c0.74-0.23,1.45-0.57,2.08-1.03c0.5-0.36,0.8-0.95,0.78-1.57V66.71
	c0.1-1.36-0.18-2.71-0.81-3.92c-0.62-0.85-1.65-1.31-2.7-1.21c-1.26,0-2.81,0.7-4.64,2.11v13.39c0,1.12,0.85,1.94,2.54,2.48
	l0.38,0.11l-0.38,1.89c-3.56-0.32-5.59-0.49-6.07-0.49c-0.49,0-2.51,0.16-6.07,0.49l-0.54-1.94c0.98-0.17,1.93-0.5,2.81-0.97
	c0.57-0.36,0.91-1,0.86-1.67v-13.5c0-1.22-0.47-1.84-1.4-1.84l-2.48,0.32l-0.27-2.05c1.45-0.63,2.95-1.15,4.48-1.54
	c1.45-0.42,2.93-0.72,4.43-0.89l1.13,1.24c0.03,0.89,0.22,1.76,0.54,2.59l1.78-1.46c1.91-1.58,3.6-2.38,5.08-2.38
	c3.81,0,6.23,1.42,7.23,4.27l2.32-1.89c1.91-1.58,3.6-2.38,5.08-2.38c2.12-0.15,4.21,0.54,5.83,1.92c1.33,1.28,2,3.36,2,6.24v11.34
	c-0.03,0.33,0.03,0.67,0.16,0.97c0.17,0.24,0.39,0.44,0.65,0.59c0.9,0.48,1.87,0.84,2.86,1.08l-0.43,1.94
	c-3.56-0.32-5.6-0.49-6.1-0.49c-0.51,0-2.54,0.16-6.1,0.49l-0.38-1.89c0.74-0.23,1.45-0.57,2.08-1.03c0.5-0.36,0.8-0.95,0.78-1.57
	V66.71C546.98,65.35,546.7,64,546.07,62.79z"/>
<path class="st0" d="M572.48,77.72c2.44-0.06,4.79-0.87,6.75-2.32l1.13,1.73c-3.46,3.21-6.68,4.81-9.67,4.81
	c-3.15,0.15-6.21-1.03-8.45-3.24c-2.16-2.3-3.3-5.38-3.16-8.53c-0.09-3.29,1.05-6.49,3.19-8.99c2.05-2.43,5.11-3.8,8.29-3.7
	c3.4,0,5.95,1.03,7.64,3.1c1.8,2.4,2.7,5.35,2.54,8.34l-14.69,0.97C566.34,75.11,568.48,77.72,572.48,77.72z M573.72,66.22
	c0-4-1.19-5.99-3.56-5.99c-1.35,0.01-2.55,0.83-3.05,2.08c-0.74,1.56-1.1,3.27-1.05,5L573.72,66.22z"/>
<path class="st0" d="M593.65,77.07c0,1.08,1.03,1.94,3.08,2.59l-0.38,1.89c-3.71-0.32-5.8-0.49-6.26-0.49
	c-0.47,0-2.49,0.16-6.05,0.49l-0.54-1.94c0.98-0.17,1.93-0.5,2.81-0.97c0.57-0.36,0.91-1,0.87-1.67v-13.5c0-1.22-0.47-1.84-1.4-1.84
	l-2.48,0.32l-0.27-2.05c1.45-0.63,2.95-1.15,4.48-1.54c1.45-0.42,2.93-0.72,4.43-0.89l1.13,1.24c0.03,0.89,0.22,1.77,0.54,2.59
	l1.78-1.46c1.91-1.58,3.65-2.38,5.24-2.38c2.63,0,4.62,0.64,5.97,1.92c1.35,1.28,2.02,3.36,2.03,6.24v11.34
	c-0.02,0.33,0.02,0.66,0.13,0.97c0.15,0.24,0.37,0.42,0.62,0.54c0.92,0.49,1.9,0.87,2.92,1.13l-0.43,1.94
	c-3.56-0.32-5.59-0.49-6.08-0.49c-0.48,0-2.58,0.16-6.29,0.49l-0.38-1.89c0.78-0.23,1.53-0.58,2.21-1.03
	c0.52-0.35,0.82-0.94,0.81-1.57V66.71c0.1-1.36-0.19-2.72-0.84-3.92c-0.65-0.85-1.69-1.31-2.75-1.21c-1.28,0-2.91,0.7-4.89,2.11
	L593.65,77.07z"/>
<path class="st0" d="M623.29,74.37c-0.1,0.96,0.11,1.92,0.59,2.75c0.59,0.54,1.39,0.8,2.19,0.7c1.5-0.16,2.92-0.72,4.13-1.62
	l1.08,1.78c-3.17,2.63-5.78,3.94-7.83,3.94c-1.75,0.1-3.47-0.43-4.86-1.49c-1.19-0.99-1.78-2.74-1.78-5.26V61.04h-2.7l-0.43-2
	l3.13-0.97v-2.65l6.48-2.97v5.94l6.37-0.49l-0.59,3.51l-5.78-0.22V74.37z"/>
<path class="st0" d="M655.96,81.94c-3.71,0-6.61-1.04-8.72-3.13c-2.19-2.3-3.33-5.39-3.16-8.56c-0.12-3.31,1.08-6.53,3.32-8.96
	c2.32-2.4,5.57-3.69,8.91-3.54c3.73,0,6.65,1.05,8.78,3.16c2.19,2.28,3.35,5.37,3.19,8.53c0.1,3.31-1.11,6.52-3.38,8.94
	C662.57,80.78,659.31,82.08,655.96,81.94z M651.05,69.24c0,3.21,0.51,5.66,1.54,7.37c0.83,1.6,2.49,2.59,4.29,2.57
	c2.95,0,4.43-2.92,4.43-8.75c0-3.2-0.52-5.66-1.57-7.37c-0.86-1.6-2.55-2.59-4.38-2.57C652.49,60.5,651.05,63.41,651.05,69.24z"/>
<path class="st0" d="M675.08,55.2c-0.09-3.3,0.97-6.52,3-9.13c1.99-2.52,5.08-3.93,8.29-3.78c2.12,0.09,4.22,0.51,6.21,1.24
	c-0.54,2.4-1.3,4.75-2.27,7.02l-2.21-0.43c0.05-1.25-0.23-2.49-0.81-3.59c-0.5-0.9-1.46-1.43-2.48-1.38c-1.12,0-1.93,0.7-2.46,2.11
	c-0.55,1.56-0.81,3.21-0.78,4.86v6.48l6.05-0.54l-0.49,3.51l-5.56-0.22v15.55c-0.03,0.33,0.03,0.67,0.16,0.97
	c0.17,0.24,0.39,0.44,0.65,0.59c0.94,0.51,1.97,0.84,3.03,0.97l0.7,0.16l-0.43,1.94c-3.96-0.32-6.36-0.49-7.21-0.49
	c-0.85,0-3.05,0.16-6.62,0.49l-0.43-1.94c0.98-0.17,1.93-0.5,2.81-0.97c0.57-0.36,0.91-1,0.87-1.67V61.25h-3.02l-0.27-2.16
	l3.29-0.81L675.08,55.2z"/>
<path class="st0" d="M273.81,110.45l0.11,4.7c0,1.26-0.05,2.52-0.16,3.78l-2.48,0.43c-0.5-2.77-1.08-4.54-1.73-5.29h-10.26v11.88
	h6.21c0.7,0.1,1.39-0.22,1.78-0.81c0.35-0.8,0.62-1.63,0.81-2.48l0.11-0.54l2.32,0.27c-0.28,1.76-0.42,3.54-0.43,5.32
	c0.01,1.73,0.15,3.45,0.43,5.16l-2.32,0.22c-0.2-1.01-0.5-1.99-0.89-2.94c-0.27-0.56-0.87-0.84-1.81-0.84h-6.21v13.23h10.8
	c0.73-0.81,1.29-1.76,1.65-2.78c0.52-1.15,0.96-2.33,1.32-3.54l2.48,0.43c-0.04,1.04-0.18,2.66-0.43,4.83
	c-0.14,1.48-0.37,2.95-0.7,4.4h-18.85c-1.48,0-3.76,0.16-6.86,0.49l-0.43-2.11c2.34-0.47,3.65-1.01,3.94-1.62
	c0.09-0.33,0.13-0.68,0.11-1.03v-26.68c0.09-0.67-0.26-1.32-0.86-1.62c-0.83-0.37-1.7-0.64-2.59-0.81l-0.59-0.16l0.49-2.11
	c3.46,0.36,5.72,0.54,6.8,0.54h13.28C270.5,110.78,272.16,110.67,273.81,110.45z"/>
<path class="st0" d="M278.07,122.7c2.29,0.3,4.6,0.44,6.91,0.43c2.2,0.02,4.41-0.13,6.59-0.43l-0.16,1.94
	c-1.58,0.4-2.38,0.83-2.38,1.3c0.08,0.41,0.29,0.79,0.59,1.08l3.46,4.16l3.13-4.1c0.25-0.29,0.4-0.65,0.43-1.03
	c0.02-0.23-0.04-0.45-0.16-0.65c-0.13-0.16-0.31-0.27-0.51-0.32c-0.23-0.07-0.44-0.13-0.62-0.16c-0.18-0.04-0.4-0.07-0.67-0.11
	c-0.19-0.02-0.38-0.06-0.57-0.11l-0.11-1.94c1.55,0.29,3.12,0.42,4.7,0.38c1.84,0.02,3.68-0.11,5.51-0.38l-0.22,1.94
	c-0.68,0.01-1.34,0.21-1.92,0.57c-0.72,0.53-1.37,1.16-1.92,1.86l-5.18,6.32l7.29,8.64c0.97,1.28,2.41,2.11,4,2.32l-0.43,1.94
	c-2.27-0.31-4.56-0.47-6.86-0.49c-2.17,0.01-4.33,0.17-6.48,0.49l-0.43-1.94c2.09-0.36,3.13-0.88,3.13-1.57
	c-0.08-0.45-0.31-0.87-0.65-1.19l-3.89-4.59l-3.83,4.59c-0.36,0.33-0.6,0.76-0.7,1.24c-0.02,0.24,0.07,0.48,0.24,0.65
	c0.2,0.16,0.43,0.28,0.67,0.35c0.29,0.09,0.54,0.17,0.76,0.24c0.46,0.12,0.93,0.21,1.4,0.27l-0.49,1.94
	c-1.72-0.28-3.46-0.44-5.21-0.49c-1.69,0.04-3.38,0.2-5.05,0.49l-0.43-1.94c1.81-0.2,3.46-1.12,4.59-2.54l6.21-7.02l-6.75-8.05
	c-0.86-1.24-2.22-2.03-3.73-2.16L278.07,122.7z"/>
<path class="st0" d="M316.41,139.17c-0.1,0.96,0.11,1.92,0.59,2.75c0.59,0.54,1.39,0.8,2.19,0.7c1.5-0.16,2.92-0.72,4.13-1.62
	l1.08,1.78c-3.17,2.63-5.78,3.94-7.83,3.94c-1.74,0.1-3.47-0.43-4.86-1.49c-1.19-0.99-1.78-2.74-1.78-5.26v-14.15h-2.7l-0.43-2
	l3.13-0.97v-2.65l6.48-2.97v5.94l6.37-0.49l-0.59,3.51l-5.78-0.22L316.41,139.17z"/>
<path class="st0" d="M342.55,122.27c1.48,0.12,2.92,0.56,4.21,1.3c-0.18,0.97-0.51,2.36-1,4.16c-0.33,1.32-0.74,2.62-1.22,3.89
	l-2.27,0.27c0-3.42-0.49-5.13-1.46-5.13c-1.3,0-2.84,1.24-4.64,3.73v11.23c-0.03,0.35,0.05,0.7,0.22,1c0.22,0.25,0.5,0.45,0.81,0.57
	c1,0.41,2.06,0.68,3.13,0.81l0.76,0.11l-0.38,2.16c-4.28-0.32-7-0.49-8.15-0.49c-1.15,0-3.19,0.16-6.1,0.49l-0.49-1.94
	c1-0.17,1.97-0.5,2.86-0.97c0.57-0.36,0.91-1,0.86-1.67v-13.5c0-1.22-0.47-1.84-1.4-1.84l-2.48,0.32l-0.27-2.05
	c1.48-0.63,3.01-1.15,4.56-1.57c1.45-0.43,2.95-0.72,4.46-0.86l1.13,1.24c-0.01,1.26,0.15,2.51,0.49,3.73l1.51-2.11
	C338.71,123.41,340.54,122.33,342.55,122.27z"/>
<path class="st0" d="M367.01,130.16v10.75c-0.07,0.55,0.1,1.1,0.46,1.51c0.44,0.3,0.95,0.49,1.48,0.54l1.35,0.11l0.49,1.84
	c-2.47,0.45-4.9,1.07-7.29,1.84c-1.37-0.72-2.38-1.97-2.81-3.46c-2.3,2.3-4.19,3.46-5.67,3.46c-1.83,0.09-3.63-0.53-5.02-1.73
	c-1.29-1.23-1.98-2.97-1.89-4.75c-0.12-1.79,0.75-3.5,2.27-4.46c2.01-1.11,4.24-1.76,6.53-1.92l3.62-0.43v-2.54
	c0.07-1.45-0.14-2.9-0.62-4.27c-0.41-0.94-1.38-1.5-2.4-1.4c-1.1-0.02-2.19,0.22-3.19,0.7c-0.29,1.62-0.39,3.27-0.32,4.91
	l-3.35,0.92c-0.79-2.13-1.33-4.34-1.62-6.59c4.25-1.94,7.42-2.92,9.5-2.92c2.92,0,5.06,0.64,6.43,1.92
	C366.33,125.47,367.01,127.46,367.01,130.16z M355.24,141.85c0.51,0.59,1.27,0.9,2.05,0.84c1.23-0.13,2.37-0.68,3.24-1.57v-5.51
	l-2.81,0.59c-2.09,0.47-3.13,1.67-3.13,3.62C354.57,140.55,354.8,141.27,355.24,141.85L355.24,141.85z"/>
<path class="st0" d="M381.7,139.17c-0.1,0.96,0.11,1.92,0.59,2.75c0.59,0.54,1.39,0.8,2.19,0.7c1.5-0.16,2.92-0.72,4.13-1.62
	l1.08,1.78c-3.17,2.63-5.78,3.94-7.83,3.94c-1.74,0.1-3.47-0.43-4.86-1.49c-1.19-0.99-1.78-2.74-1.78-5.26v-14.15h-2.7l-0.43-2
	l3.13-0.97v-2.65l6.48-2.97v5.94l6.37-0.49l-0.59,3.51L381.7,126L381.7,139.17z"/>
<path class="st0" d="M404.59,142.52c2.44-0.06,4.79-0.87,6.75-2.32l1.13,1.73c-3.46,3.21-6.68,4.81-9.67,4.81
	c-3.15,0.15-6.21-1.03-8.45-3.24c-2.16-2.3-3.3-5.38-3.16-8.53c-0.09-3.29,1.05-6.49,3.19-8.99c2.05-2.43,5.11-3.8,8.29-3.7
	c3.4,0,5.95,1.03,7.64,3.1c1.8,2.4,2.7,5.35,2.54,8.34l-14.69,0.97C398.46,139.91,400.6,142.52,404.59,142.52z M405.84,131.02
	c0-4-1.19-5.99-3.56-5.99c-1.35,0.01-2.55,0.83-3.05,2.08c-0.74,1.56-1.1,3.27-1.05,5L405.84,131.02z"/>
<path class="st0" d="M432.13,122.27c1.48,0.12,2.92,0.56,4.21,1.3c-0.18,0.97-0.51,2.36-1,4.16c-0.33,1.32-0.74,2.62-1.22,3.89
	l-2.27,0.27c0-3.42-0.49-5.13-1.46-5.13c-1.3,0-2.84,1.24-4.64,3.73v11.23c-0.03,0.35,0.05,0.7,0.22,1c0.22,0.25,0.5,0.45,0.81,0.57
	c1,0.41,2.06,0.68,3.13,0.81l0.76,0.11l-0.38,2.16c-4.28-0.32-7-0.49-8.15-0.49c-1.15,0-3.19,0.16-6.1,0.49l-0.49-1.94
	c1-0.17,1.97-0.5,2.86-0.97c0.57-0.36,0.91-1,0.86-1.67v-13.5c0-1.22-0.47-1.84-1.4-1.84l-2.48,0.32l-0.27-2.05
	c1.48-0.63,3.01-1.15,4.56-1.57c1.45-0.43,2.95-0.72,4.46-0.86l1.13,1.24c-0.01,1.26,0.15,2.51,0.49,3.73l1.51-2.11
	C428.29,123.41,430.13,122.33,432.13,122.27z"/>
<path class="st0" d="M454.17,122.27c1.48,0.12,2.92,0.56,4.21,1.3c-0.18,0.97-0.51,2.36-1,4.16c-0.33,1.32-0.74,2.62-1.21,3.89
	l-2.27,0.27c0-3.42-0.49-5.13-1.46-5.13c-1.29,0-2.84,1.24-4.64,3.73v11.23c-0.03,0.35,0.05,0.7,0.22,1
	c0.22,0.25,0.5,0.45,0.81,0.57c1,0.41,2.06,0.68,3.13,0.81l0.76,0.11l-0.38,2.16c-4.29-0.32-7-0.49-8.15-0.49
	c-1.15,0-3.19,0.16-6.1,0.49l-0.49-1.94c1-0.17,1.97-0.5,2.86-0.97c0.57-0.36,0.91-1,0.86-1.67v-13.5c0-1.22-0.47-1.84-1.4-1.84
	l-2.48,0.32l-0.27-2.05c1.48-0.63,3.01-1.15,4.56-1.57c1.45-0.43,2.95-0.72,4.46-0.86l1.13,1.24c-0.01,1.26,0.15,2.51,0.48,3.73
	l1.51-2.11C450.33,123.41,452.16,122.33,454.17,122.27z"/>
<path class="st0" d="M472.96,142.52c2.44-0.06,4.79-0.87,6.75-2.32l1.13,1.73c-3.46,3.21-6.68,4.81-9.67,4.81
	c-3.15,0.15-6.21-1.03-8.45-3.24c-2.16-2.3-3.3-5.38-3.16-8.53c-0.09-3.29,1.05-6.49,3.19-8.99c2.05-2.43,5.11-3.8,8.29-3.7
	c3.4,0,5.95,1.03,7.64,3.1c1.8,2.4,2.7,5.35,2.54,8.34l-14.69,0.97C466.82,139.91,468.96,142.52,472.96,142.52z M474.2,131.02
	c0-4-1.19-5.99-3.56-5.99c-1.35,0.01-2.55,0.83-3.05,2.08c-0.74,1.56-1.1,3.27-1.05,5L474.2,131.02z"/>
<path class="st0" d="M492.29,144.14c0.8,0.02,1.57-0.27,2.16-0.81c0.57-0.52,0.88-1.26,0.87-2.03c0.03-0.63-0.08-1.26-0.32-1.84
	c-0.26-0.47-0.63-0.86-1.08-1.16c-0.95-0.72-1.97-1.33-3.05-1.84c-1.05-0.5-2.08-1.06-3.08-1.67c-0.87-0.61-1.61-1.39-2.16-2.29
	c-0.71-1.1-1.08-2.39-1.05-3.7c-0.06-1.9,0.84-3.69,2.4-4.78c1.75-1.21,3.84-1.83,5.97-1.75c2.74,0.05,5.47,0.47,8.1,1.24
	c-0.06,2.01-0.36,4.01-0.92,5.94l-2.16,0.49c-0.86-3.46-2.5-5.18-4.91-5.18c-1.62,0-2.43,0.95-2.43,2.86c0,0.76,0.35,1.48,0.95,1.94
	c0.85,0.68,1.79,1.25,2.78,1.7c1.22,0.59,2.1,1.04,2.65,1.35c0.75,0.45,1.47,0.95,2.16,1.48c1.66,1.31,2.59,3.34,2.48,5.45
	c0.11,2.13-0.92,4.16-2.7,5.35c-2.13,1.31-4.6,1.95-7.1,1.84c-2.64,0.06-5.26-0.44-7.7-1.46c-0.14-2.14-0.14-4.29,0-6.43l2.65-0.59
	c0.2,1.58,0.86,3.06,1.89,4.27C489.58,143.57,490.9,144.17,492.29,144.14z"/>
<path class="st0" d="M513.83,139.17c-0.1,0.96,0.11,1.92,0.59,2.75c0.59,0.54,1.39,0.8,2.19,0.7c1.5-0.16,2.92-0.72,4.13-1.62
	l1.08,1.78c-3.17,2.63-5.78,3.94-7.83,3.94c-1.74,0.1-3.47-0.43-4.86-1.49c-1.19-0.99-1.78-2.74-1.78-5.26v-14.15h-2.7l-0.43-2
	l3.13-0.97v-2.65l6.48-2.97v5.94l6.37-0.49l-0.59,3.51l-5.78-0.22V139.17z"/>
<path class="st0" d="M539.97,122.27c1.48,0.12,2.92,0.56,4.21,1.3c-0.18,0.97-0.51,2.36-1,4.16c-0.33,1.32-0.74,2.62-1.21,3.89
	l-2.27,0.27c0-3.42-0.49-5.13-1.46-5.13c-1.29,0-2.84,1.24-4.64,3.73v11.23c-0.03,0.35,0.05,0.7,0.22,1
	c0.22,0.25,0.5,0.45,0.81,0.57c1,0.41,2.06,0.68,3.13,0.81l0.76,0.11l-0.38,2.16c-4.29-0.32-7-0.49-8.15-0.49
	c-1.15,0-3.19,0.16-6.1,0.49l-0.49-1.94c1-0.17,1.97-0.5,2.86-0.97c0.57-0.36,0.91-1,0.87-1.67v-13.5c0-1.22-0.47-1.84-1.4-1.84
	l-2.48,0.32l-0.27-2.05c1.48-0.63,3.01-1.15,4.56-1.57c1.45-0.43,2.95-0.72,4.46-0.86l1.13,1.24c-0.01,1.26,0.15,2.51,0.48,3.73
	l1.51-2.11C536.13,123.41,537.97,122.33,539.97,122.27z"/>
<path class="st0" d="M555.63,128.54v13.23c-0.02,0.33,0.02,0.66,0.13,0.97c0.17,0.24,0.4,0.43,0.68,0.54
	c0.9,0.5,1.86,0.88,2.86,1.13l-0.38,1.94c-3.1-0.32-5.27-0.49-6.53-0.49s-3.42,0.16-6.48,0.49l-0.43-1.94
	c1.01-0.18,1.98-0.54,2.86-1.08c0.54-0.33,0.86-0.93,0.81-1.57v-13.5c0-1.26-0.49-1.89-1.46-1.89l-1.89,0.38l-0.43-2.16
	c1.67-0.65,3.38-1.18,5.13-1.57c1.61-0.43,3.25-0.68,4.91-0.76l1.08,1.24C555.9,125.12,555.61,126.82,555.63,128.54z M548.42,116.66
	c-1.49-1.41-1.56-3.76-0.14-5.26c0.05-0.05,0.09-0.1,0.14-0.14c0.85-0.71,1.94-1.08,3.05-1.03c1.12-0.05,2.21,0.32,3.08,1.03
	c1.49,1.37,1.59,3.69,0.22,5.18c-0.07,0.08-0.15,0.15-0.22,0.22c-0.86,0.71-1.96,1.07-3.08,1.03
	C550.36,117.73,549.27,117.37,548.42,116.66z"/>
<path class="st0" d="M580.52,130.16v10.75c-0.07,0.55,0.1,1.1,0.46,1.51c0.44,0.3,0.95,0.49,1.48,0.54l1.35,0.11l0.48,1.84
	c-2.47,0.45-4.9,1.07-7.29,1.84c-1.37-0.72-2.38-1.97-2.81-3.46c-2.3,2.3-4.19,3.46-5.67,3.46c-1.83,0.09-3.63-0.53-5.02-1.73
	c-1.29-1.23-1.99-2.97-1.89-4.75c-0.12-1.79,0.75-3.5,2.27-4.46c2.01-1.11,4.24-1.76,6.54-1.92l3.62-0.43v-2.54
	c0.07-1.45-0.14-2.9-0.62-4.27c-0.41-0.94-1.38-1.5-2.4-1.4c-1.1-0.02-2.19,0.22-3.19,0.7c-0.29,1.62-0.39,3.27-0.32,4.91
	l-3.35,0.92c-0.79-2.13-1.33-4.34-1.62-6.59c4.25-1.94,7.42-2.92,9.5-2.92c2.92,0,5.06,0.64,6.43,1.92
	C579.84,125.47,580.52,127.46,580.52,130.16z M568.75,141.85c0.51,0.59,1.27,0.9,2.05,0.84c1.23-0.13,2.37-0.69,3.24-1.57v-5.51
	l-2.81,0.59c-2.09,0.47-3.13,1.67-3.13,3.62C568.08,140.55,568.31,141.27,568.75,141.85z"/>
<path class="st0" d="M596.51,113.36v28.4c-0.02,0.33,0.02,0.66,0.13,0.97c0.17,0.24,0.4,0.43,0.68,0.54c0.9,0.5,1.86,0.88,2.86,1.13
	l-0.38,1.94c-3.1-0.32-5.27-0.49-6.53-0.49s-3.42,0.16-6.48,0.49l-0.43-1.94c1.01-0.18,1.98-0.54,2.86-1.08
	c0.54-0.33,0.86-0.93,0.81-1.57v-28.67c0-1.26-0.49-1.89-1.46-1.89l-1.89,0.38l-0.43-2.16c1.67-0.65,3.38-1.18,5.13-1.57
	c1.61-0.43,3.25-0.68,4.91-0.76l1.08,1.24C596.78,109.95,596.49,111.65,596.51,113.36z"/>
<path class="st0" d="M625.4,114.98v26.68c-0.02,0.34,0.03,0.68,0.13,1c0.16,0.26,0.39,0.46,0.68,0.57c0.82,0.41,1.69,0.72,2.59,0.92
	l0.59,0.11l-0.38,2.11c-4.68-0.65-9.42-0.65-14.1,0l-0.38-2.11c2.23-0.47,3.49-1.01,3.78-1.62c0.09-0.32,0.13-0.64,0.11-0.97v-26.68
	c0.02-0.34-0.03-0.68-0.14-1c-0.14-0.25-0.36-0.45-0.62-0.57c-0.83-0.4-1.7-0.71-2.59-0.92l-0.54-0.11l0.38-2.11
	c4.68,0.65,9.42,0.65,14.1,0l0.38,2.11c-2.3,0.43-3.58,0.97-3.83,1.62C625.43,114.32,625.37,114.65,625.4,114.98z"/>
<path class="st0" d="M643.59,141.87c0,1.08,1.03,1.94,3.08,2.59l-0.38,1.89c-3.71-0.32-5.79-0.49-6.26-0.49s-2.48,0.16-6.05,0.49
	l-0.54-1.94c0.98-0.17,1.93-0.5,2.81-0.97c0.57-0.36,0.91-1,0.86-1.67v-13.5c0-1.22-0.47-1.84-1.4-1.84l-2.48,0.32l-0.27-2.05
	c1.45-0.63,2.95-1.15,4.48-1.54c1.45-0.42,2.93-0.72,4.43-0.89l1.13,1.24c0.03,0.89,0.22,1.76,0.54,2.59l1.78-1.46
	c1.91-1.58,3.65-2.38,5.24-2.38c2.63,0,4.62,0.64,5.97,1.92c1.35,1.28,2.02,3.36,2.02,6.24v11.34c-0.02,0.33,0.02,0.66,0.13,0.97
	c0.15,0.24,0.37,0.42,0.62,0.54c0.92,0.49,1.9,0.87,2.92,1.13l-0.43,1.94c-3.56-0.32-5.59-0.49-6.07-0.49
	c-0.49,0-2.58,0.16-6.29,0.49l-0.38-1.89c0.78-0.23,1.53-0.58,2.21-1.03c0.52-0.35,0.82-0.94,0.81-1.57v-10.37
	c0.1-1.36-0.19-2.72-0.84-3.92c-0.65-0.85-1.69-1.31-2.75-1.21c-1.28,0-2.91,0.7-4.89,2.11V141.87z"/>
<path class="st0" d="M681.28,127.13c0.16-0.33,0.26-0.69,0.27-1.05c0.02-0.27-0.1-0.52-0.32-0.67c-0.76-0.48-1.64-0.74-2.54-0.76
	l-0.11-1.89c1.68,0.23,3.38,0.35,5.08,0.38c1.75-0.03,3.5-0.15,5.24-0.38l-0.38,2c-0.68,0.02-1.35,0.24-1.92,0.62
	c-0.5,0.56-0.9,1.21-1.16,1.92l-8.15,19.06h-3.94l-8.21-19.28c-0.22-0.66-0.58-1.27-1.05-1.78c-0.57-0.37-1.24-0.57-1.92-0.59
	l-0.38-2c1.93,0.25,3.88,0.4,5.83,0.43c1.48,0,3.85-0.14,7.13-0.43l-0.22,1.89c-0.76,0.18-1.51,0.4-2.24,0.68
	c-0.33,0.09-0.56,0.39-0.57,0.73c0.01,0.38,0.1,0.74,0.27,1.08l4.21,10.69l0.32,1.4l0.32,0.05l0.38-1.57L681.28,127.13z"/>
<path class="st0" d="M702.72,142.52c2.44-0.06,4.79-0.87,6.75-2.32l1.13,1.73c-3.46,3.21-6.68,4.81-9.67,4.81
	c-3.15,0.15-6.21-1.03-8.45-3.24c-2.16-2.3-3.3-5.38-3.16-8.53c-0.09-3.29,1.05-6.49,3.19-8.99c2.05-2.43,5.11-3.8,8.29-3.7
	c3.4,0,5.95,1.03,7.64,3.1c1.8,2.4,2.69,5.35,2.54,8.34l-14.69,0.97C696.58,139.91,698.73,142.52,702.72,142.52z M703.96,131.02
	c0-4-1.19-5.99-3.56-5.99c-1.35,0.01-2.55,0.83-3.05,2.08c-0.74,1.56-1.1,3.27-1.05,5L703.96,131.02z"/>
<path class="st0" d="M722.05,144.14c0.8,0.02,1.57-0.27,2.16-0.81c0.57-0.52,0.88-1.26,0.86-2.03c0.04-0.63-0.08-1.26-0.32-1.84
	c-0.26-0.47-0.63-0.86-1.08-1.16c-0.95-0.72-1.97-1.33-3.05-1.84c-1.05-0.5-2.08-1.06-3.08-1.67c-0.87-0.61-1.61-1.39-2.16-2.29
	c-0.71-1.1-1.08-2.39-1.05-3.7c-0.06-1.9,0.85-3.7,2.4-4.78c1.75-1.21,3.84-1.83,5.97-1.75c2.74,0.05,5.47,0.47,8.1,1.24
	c-0.06,2.01-0.36,4.01-0.92,5.94l-2.16,0.49c-0.86-3.46-2.5-5.18-4.91-5.18c-1.62,0-2.43,0.95-2.43,2.86c0,0.76,0.35,1.48,0.95,1.94
	c0.85,0.68,1.79,1.25,2.78,1.7c1.22,0.59,2.11,1.04,2.65,1.35c0.75,0.45,1.47,0.94,2.16,1.48c1.66,1.31,2.59,3.34,2.48,5.45
	c0.11,2.13-0.92,4.16-2.7,5.35c-2.13,1.31-4.6,1.95-7.1,1.84c-2.64,0.06-5.26-0.44-7.7-1.46c-0.14-2.14-0.14-4.29,0-6.43l2.65-0.59
	c0.2,1.58,0.86,3.06,1.89,4.27C719.34,143.57,720.67,144.17,722.05,144.14z"/>
<path class="st0" d="M743.6,139.17c-0.1,0.96,0.11,1.92,0.59,2.75c0.59,0.54,1.39,0.8,2.19,0.7c1.5-0.16,2.92-0.72,4.13-1.62
	l1.08,1.78c-3.17,2.63-5.78,3.94-7.83,3.94c-1.74,0.1-3.47-0.43-4.86-1.49c-1.19-0.99-1.78-2.74-1.78-5.26v-14.15h-2.7l-0.43-2
	l3.13-0.97v-2.65l6.48-2.97v5.94l6.37-0.49l-0.59,3.51L743.6,126V139.17z"/>
<path class="st0" d="M763.36,128.54v13.23c-0.02,0.33,0.02,0.66,0.13,0.97c0.17,0.24,0.4,0.43,0.68,0.54
	c0.9,0.5,1.86,0.88,2.86,1.13l-0.38,1.94c-3.1-0.32-5.28-0.49-6.54-0.49c-1.26,0-3.42,0.16-6.48,0.49l-0.43-1.94
	c1.01-0.18,1.98-0.54,2.86-1.08c0.54-0.33,0.86-0.93,0.81-1.57v-13.5c0-1.26-0.49-1.89-1.46-1.89l-1.89,0.38l-0.43-2.16
	c1.67-0.65,3.38-1.18,5.13-1.57c1.61-0.43,3.25-0.68,4.91-0.76l1.08,1.24C763.64,125.12,763.34,126.82,763.36,128.54z
	 M756.15,116.66c-1.49-1.42-1.55-3.77-0.14-5.26l0,0c0.04-0.05,0.09-0.09,0.14-0.14c0.85-0.71,1.94-1.08,3.05-1.03
	c1.12-0.05,2.21,0.32,3.08,1.03c1.49,1.36,1.59,3.68,0.23,5.17h0c-0.07,0.08-0.15,0.16-0.23,0.23c-0.86,0.71-1.96,1.07-3.08,1.03
	C758.1,117.73,757.01,117.37,756.15,116.66z"/>
<path class="st0" d="M792.79,125.51c-0.67,0.12-1.35,0.17-2.02,0.16c-0.81,0-1.56-0.02-2.24-0.05c1.33,1.35,2.07,3.18,2.05,5.08
	c0.11,2.5-1.01,4.89-3,6.4c-2.22,1.6-4.91,2.41-7.64,2.29c-0.62,0.02-1.23-0.04-1.84-0.16c-1.33,1.12-2,1.98-2,2.59
	c0,0.83,1.19,1.31,3.56,1.46l5.35,0.38c2.08,0.04,4.09,0.72,5.75,1.97c1.3,1.04,2.05,2.63,2.02,4.29c0,2.77-1.55,5.13-4.64,7.07
	c-2.86,1.87-6.2,2.88-9.61,2.92c-2.67,0.15-5.34-0.42-7.72-1.65c-1.76-0.96-2.82-2.83-2.75-4.83c-0.06-0.86,0.11-1.71,0.48-2.48
	l4.54-3.24c-1.87-0.55-3.12-2.32-3.02-4.27c-0.03-0.51,0.1-1.02,0.38-1.46l4.81-3.51c-0.63-0.22-1.23-0.52-1.78-0.89
	c-0.71-0.42-1.35-0.94-1.92-1.54c-0.57-0.67-1.02-1.43-1.35-2.24c-0.42-0.98-0.63-2.04-0.62-3.1c-0.11-2.44,1-4.77,2.97-6.21
	c2.25-1.56,4.94-2.33,7.67-2.21c1.55,0.01,3.09,0.31,4.54,0.86h1.24c2.31-0.19,4.58-0.77,6.7-1.73l0.97,1.03L792.79,125.51z
	 M776.54,148.68c-1.33,1.58-2,2.93-2,4.02c0.03,1.16,0.64,2.22,1.62,2.83c1.29,0.85,2.83,1.27,4.37,1.19
	c1.65,0.06,3.27-0.43,4.62-1.38c1.17-0.78,1.87-2.1,1.86-3.51c0-1.42-1.15-2.22-3.46-2.4L776.54,148.68z M776.27,130.37
	c-0.06,1.58,0.29,3.15,1,4.56c0.54,1.13,1.69,1.84,2.94,1.81c2.41,0,3.62-1.89,3.62-5.67c0.05-1.54-0.29-3.06-1-4.43
	c-0.53-1.11-1.66-1.8-2.89-1.78C777.49,124.86,776.27,126.7,776.27,130.37z"/>
<path class="st0" d="M813.69,130.16v10.75c-0.07,0.55,0.1,1.1,0.46,1.51c0.44,0.3,0.95,0.49,1.48,0.54l1.35,0.11l0.48,1.84
	c-2.47,0.45-4.9,1.07-7.29,1.84c-1.37-0.72-2.38-1.97-2.81-3.46c-2.3,2.3-4.19,3.46-5.67,3.46c-1.83,0.09-3.63-0.53-5.02-1.73
	c-1.29-1.23-1.99-2.97-1.89-4.75c-0.12-1.79,0.75-3.5,2.27-4.46c2.01-1.11,4.24-1.76,6.54-1.92l3.62-0.43v-2.54
	c0.07-1.45-0.14-2.9-0.62-4.27c-0.41-0.94-1.38-1.5-2.4-1.4c-1.1-0.02-2.19,0.22-3.19,0.7c-0.29,1.62-0.39,3.27-0.32,4.91
	l-3.35,0.92c-0.79-2.13-1.33-4.34-1.62-6.59c4.25-1.94,7.42-2.92,9.5-2.92c2.92,0,5.06,0.64,6.43,1.92
	C813.01,125.47,813.69,127.46,813.69,130.16z M801.92,141.85c0.51,0.59,1.27,0.9,2.05,0.84c1.23-0.13,2.37-0.69,3.24-1.57v-5.51
	l-2.81,0.59c-2.09,0.47-3.13,1.67-3.13,3.62C801.25,140.55,801.48,141.27,801.92,141.85z"/>
<path class="st0" d="M828.38,139.17c-0.1,0.96,0.11,1.92,0.59,2.75c0.59,0.54,1.39,0.8,2.19,0.7c1.5-0.16,2.92-0.72,4.13-1.62
	l1.08,1.78c-3.17,2.63-5.78,3.94-7.83,3.94c-1.74,0.1-3.47-0.43-4.86-1.49c-1.19-0.99-1.78-2.74-1.78-5.26v-14.15h-2.7l-0.43-2
	l3.13-0.97v-2.65l6.48-2.97v5.94l6.37-0.49l-0.59,3.51l-5.78-0.22L828.38,139.17z"/>
<path class="st0" d="M848.14,128.54v13.23c-0.02,0.33,0.02,0.66,0.13,0.97c0.17,0.24,0.4,0.43,0.68,0.54
	c0.9,0.5,1.86,0.88,2.86,1.13l-0.38,1.94c-3.1-0.32-5.28-0.49-6.54-0.49c-1.26,0-3.42,0.16-6.48,0.49l-0.43-1.94
	c1.01-0.18,1.98-0.54,2.86-1.08c0.54-0.33,0.86-0.93,0.81-1.57v-13.5c0-1.26-0.49-1.89-1.46-1.89l-1.89,0.38l-0.43-2.16
	c1.67-0.65,3.38-1.18,5.13-1.57c1.61-0.43,3.25-0.68,4.91-0.76l1.08,1.24C848.41,125.12,848.12,126.82,848.14,128.54z
	 M840.93,116.66c-1.49-1.42-1.55-3.77-0.14-5.26c0.04-0.05,0.09-0.09,0.14-0.14c0.85-0.71,1.94-1.08,3.05-1.03
	c1.12-0.05,2.21,0.32,3.08,1.03c1.49,1.36,1.59,3.68,0.23,5.17c-0.07,0.08-0.15,0.16-0.23,0.23c-0.86,0.71-1.96,1.07-3.08,1.03
	C842.87,117.73,841.79,117.37,840.93,116.66z"/>
<path class="st0" d="M866.07,146.74c-3.71,0-6.62-1.04-8.72-3.13c-2.19-2.3-3.33-5.39-3.16-8.56c-0.12-3.31,1.08-6.53,3.32-8.96
	c2.32-2.4,5.57-3.69,8.91-3.54c3.72,0,6.65,1.05,8.77,3.16c2.19,2.28,3.35,5.37,3.19,8.53c0.1,3.31-1.11,6.52-3.38,8.94
	C872.67,145.58,869.42,146.88,866.07,146.74z M861.16,134.04c0,3.21,0.51,5.66,1.54,7.37c0.83,1.6,2.49,2.59,4.29,2.57
	c2.95,0,4.43-2.92,4.43-8.75c0-3.2-0.52-5.66-1.57-7.37c-0.86-1.6-2.55-2.59-4.37-2.57C862.6,125.3,861.16,128.21,861.16,134.04z"/>
<path class="st0" d="M891.77,141.87c0,1.08,1.03,1.94,3.08,2.59l-0.38,1.89c-3.71-0.32-5.8-0.49-6.26-0.49
	c-0.47,0-2.49,0.16-6.05,0.49l-0.54-1.94c0.98-0.17,1.93-0.5,2.81-0.97c0.57-0.36,0.91-1,0.87-1.67v-13.5c0-1.22-0.47-1.84-1.4-1.84
	l-2.48,0.32l-0.27-2.05c1.45-0.63,2.95-1.15,4.48-1.54c1.45-0.42,2.93-0.72,4.43-0.89l1.13,1.24c0.03,0.89,0.22,1.77,0.54,2.59
	l1.78-1.46c1.91-1.58,3.65-2.38,5.24-2.38c2.63,0,4.62,0.64,5.97,1.92c1.35,1.28,2.02,3.36,2.03,6.24v11.34
	c-0.02,0.33,0.02,0.66,0.13,0.97c0.15,0.24,0.37,0.42,0.62,0.54c0.92,0.49,1.9,0.87,2.92,1.13l-0.43,1.94
	c-3.56-0.32-5.59-0.49-6.08-0.49c-0.48,0-2.58,0.16-6.29,0.49l-0.38-1.89c0.78-0.23,1.53-0.58,2.21-1.03
	c0.52-0.35,0.82-0.94,0.81-1.57v-10.37c0.1-1.36-0.19-2.72-0.84-3.92c-0.65-0.85-1.69-1.31-2.75-1.21c-1.28,0-2.91,0.7-4.89,2.11
	L891.77,141.87z"/>
<circle class="st0" cx="101.49" cy="101.26" r="74.91"/>
<path class="st1" d="M159.29,148c-2.72,3.72-21.09,26.81-57.91,26.2c-30.43-0.5-49.58-18.75-57.02-27.49
	c-0.78,1.01-1.53,2.03-2.26,3.08c23.5,32.75,69.11,40.25,101.86,16.75c6.42-4.61,12.06-10.23,16.68-16.65
	C160.21,149.25,159.75,148.62,159.29,148z"/>
<path class="st2" d="M137.48,109.66l-32.79-29.19c0,0-3.74,1.1-9.68,2.42l-53.02,60.94c0,0,0.03,0.12,2.38,2.87
	c0.02-0.03,0.04-0.05,0.06-0.08c24.39-31.43,69.65-37.14,101.08-12.75c5.22,4.05,9.86,8.8,13.78,14.11
	c0.24-0.33,7.43-12.3,7.43-12.3L137.48,109.66z"/>
<path class="st1" d="M101.39,174.2c36.82,0.61,55.19-22.48,57.91-26.2c-23.64-32-68.75-38.79-100.75-15.15
	c-5.34,3.94-10.11,8.61-14.17,13.86C51.81,155.44,70.96,173.69,101.39,174.2z"/>
<path class="st3" d="M101.34,118.76c-22.26-0.02-43.28,10.28-56.91,27.88l-0.02,0.06c0,0,52.8,45.1,114.01,0.2
	C145.29,129.16,125.1,118.76,101.34,118.76z"/>
<path class="st4" d="M93.49,119.43c-4.76,1.78-9.19,4.32-13.15,7.5c-3.97,3.13-7.52,6.75-10.58,10.78
	c-1.51,2.02-2.91,4.13-4.18,6.31c-0.61,1.1-1.32,2.16-1.86,3.3c-0.53,1.15-1.08,2.29-1.64,3.42c-0.27,0.57-0.58,1.13-0.81,1.72
	l-0.68,1.77l-1.37,3.55c-0.84,2.4-1.49,4.85-2.3,7.28c0.28-1.24,0.56-2.48,0.86-3.73c0.31-1.24,0.55-2.5,0.93-3.72l1.24-3.63
	l0.62-1.82c0.21-0.6,0.5-1.18,0.75-1.77c0.51-1.17,1.03-2.35,1.57-3.51c0.54-1.16,1.23-2.25,1.84-3.38
	c1.27-2.23,2.66-4.39,4.17-6.47c3.15-4.07,6.83-7.7,10.95-10.78c0.52-0.37,1.03-0.77,1.56-1.13l1.63-1.03
	c1.06-0.72,2.21-1.29,3.33-1.91C88.62,121.03,91.02,120.1,93.49,119.43z"/>
<path class="st4" d="M65.64,130.31c2.61,1.73,5.37,3.22,8.25,4.46c2.85,1.27,5.8,2.33,8.8,3.17c3,0.84,6.05,1.48,9.14,1.92
	c6.18,0.83,12.44,0.81,18.62-0.05c3.08-0.46,6.13-1.12,9.13-1.97c3.01-0.85,5.95-1.9,8.81-3.16c2.89-1.22,5.66-2.68,8.31-4.36
	c-5.13,3.68-10.83,6.5-16.87,8.34c-12.15,3.85-25.2,3.89-37.37,0.09C76.4,136.92,70.71,134.07,65.64,130.31z"/>
<path class="st4" d="M52.66,141.09c3.39,2.82,7.04,5.3,10.91,7.41c3.83,2.15,7.83,3.99,11.97,5.47c4.13,1.49,8.37,2.64,12.68,3.44
	c4.31,0.77,8.69,1.17,13.07,1.19c4.38,0.03,8.75-0.35,13.06-1.14c2.15-0.4,4.29-0.89,6.4-1.47c2.11-0.61,4.2-1.26,6.26-2.01
	c4.13-1.51,8.12-3.36,11.95-5.52c3.86-2.12,7.52-4.59,10.94-7.38c-6.65,5.87-14.3,10.51-22.58,13.69
	c-8.3,3.25-17.13,4.92-26.04,4.93c-8.9-0.09-17.72-1.76-26.04-4.95C66.93,151.64,59.27,147.01,52.66,141.09z"/>
<path class="st4" d="M108.47,119.32c2.47,0.67,4.86,1.59,7.14,2.76c1.12,0.62,2.27,1.2,3.33,1.91l1.63,1.03
	c0.53,0.36,1.04,0.75,1.56,1.13c4.12,3.09,7.8,6.71,10.95,10.78c1.51,2.08,2.91,4.24,4.17,6.47c0.61,1.13,1.31,2.21,1.84,3.38
	c0.54,1.16,1.06,2.34,1.57,3.51c0.25,0.59,0.54,1.16,0.75,1.77l0.62,1.82l1.24,3.63c0.38,1.22,0.61,2.48,0.93,3.72
	c0.3,1.24,0.59,2.48,0.86,3.73c-0.81-2.42-1.46-4.88-2.3-7.28l-1.37-3.55l-0.68-1.77c-0.23-0.59-0.54-1.14-0.81-1.72
	c-0.56-1.14-1.11-2.28-1.64-3.42c-0.54-1.14-1.25-2.2-1.86-3.3c-1.28-2.18-2.67-4.29-4.18-6.31c-3.06-4.02-6.61-7.64-10.58-10.78
	C117.66,123.64,113.22,121.11,108.47,119.32z"/>
<path class="st4" d="M98.48,118.81c-0.83,2.42-1.68,4.83-2.44,7.27c-0.8,2.42-1.57,4.86-2.3,7.3c-1.47,4.89-2.87,9.79-4.07,14.75
	c-1.27,4.94-2.28,9.93-3.2,14.95c-0.4,2.52-0.84,5.03-1.1,7.57c-0.39,2.53-0.5,5.07-0.75,7.62c-0.04-5.12,0.3-10.25,1.02-15.32
	c0.75-5.07,1.77-10.1,2.97-15.08c1.29-4.96,2.69-9.89,4.34-14.74C94.59,128.28,96.38,123.48,98.48,118.81z"/>
<path class="st4" d="M103.84,118.72c2.1,4.66,3.89,9.47,5.54,14.31c1.64,4.85,3.04,9.78,4.34,14.74c1.19,4.98,2.22,10.01,2.97,15.08
	c0.72,5.07,1.06,10.19,1.02,15.32c-0.26-2.55-0.36-5.1-0.75-7.62c-0.25-2.54-0.7-5.05-1.1-7.57c-0.91-5.01-1.92-10.01-3.2-14.95
	c-1.2-4.96-2.61-9.86-4.07-14.75c-0.73-2.45-1.5-4.88-2.3-7.3C105.52,123.55,104.68,121.14,103.84,118.72z"/>
<path class="st4" d="M79.72,123.27c1.71,0.39,3.41,0.76,5.14,1.03c1.71,0.32,3.43,0.58,5.16,0.79c3.45,0.43,6.91,0.68,10.38,0.75
	c3.47,0.04,6.93-0.17,10.36-0.65l2.56-0.44c0.86-0.12,1.68-0.41,2.53-0.61c1.69-0.43,3.36-0.94,5-1.53
	c-3.14,1.59-6.49,2.74-9.95,3.42c-3.47,0.65-6.99,0.96-10.52,0.91c-3.52-0.06-7.03-0.4-10.5-1.01
	C86.43,125.34,83.02,124.45,79.72,123.27z"/>
<path class="st1" d="M101.38,1.76c55.02,0,99.62,44.6,99.62,99.62c0,55.02-44.6,99.62-99.62,99.62s-99.62-44.6-99.62-99.62
	C1.76,46.36,46.36,1.76,101.38,1.76C101.38,1.76,101.38,1.76,101.38,1.76 M101.33,176.05c41.28,0,74.75-33.47,74.75-74.75
	s-33.47-74.75-74.75-74.75S26.58,60.01,26.58,101.3l0,0l0,0C26.63,142.56,60.07,176,101.33,176.05 M101.38,0
	C45.39,0,0,45.39,0,101.38s45.39,101.38,101.38,101.38c55.99,0,101.38-45.39,101.38-101.38C202.75,45.39,157.36,0,101.38,0L101.38,0
	z M101.33,174.29c-40.31,0-72.99-32.68-72.99-72.99c0-40.31,32.68-72.99,72.99-72.99s72.99,32.68,72.99,72.99
	C174.32,141.61,141.65,174.29,101.33,174.29C101.33,174.29,101.33,174.29,101.33,174.29z"/>
<path class="st0" d="M23.99,53.03l5.36,2.94c1.21,0.56,2.14,1.61,2.53,2.88c0.27,1.36,0,2.77-0.75,3.94
	c-0.56,1.23-1.55,2.21-2.78,2.76c-1.25,0.35-2.6,0.14-3.68-0.59l-5.56-3.05c-0.1-0.06-0.21-0.11-0.33-0.13
	c-0.1,0-0.2,0.04-0.28,0.09c-0.26,0.18-0.5,0.4-0.71,0.63l-0.12,0.15l-0.58-0.46c0.48-0.66,0.93-1.34,1.32-2.06
	c0.39-0.72,0.73-1.46,1.03-2.22l0.7,0.24c-0.25,0.77-0.3,1.25-0.15,1.43c0.07,0.09,0.16,0.16,0.27,0.21l5.3,2.9
	c0.79,0.53,1.75,0.75,2.7,0.63c0.82-0.23,1.49-0.81,1.84-1.59c0.47-0.72,0.6-1.61,0.38-2.44c-0.29-0.79-0.88-1.43-1.64-1.79
	l-5.62-3.08c-0.1-0.06-0.21-0.11-0.33-0.13c-0.1,0-0.2,0.04-0.27,0.09c-0.26,0.18-0.49,0.38-0.7,0.62l-0.13,0.16l-0.58-0.47
	c0.41-0.51,0.77-1.05,1.08-1.62c0.34-0.62,0.63-1.27,0.87-1.93l0.7,0.24c-0.25,0.77-0.3,1.25-0.16,1.45
	C23.79,52.92,23.89,52.98,23.99,53.03z"/>
<path class="st0" d="M35.05,55.76c-0.75,0.15-1.47-0.34-1.62-1.08c0,0,0,0,0,0c0-0.02-0.01-0.05-0.01-0.07
	c-0.04-0.41,0.08-0.81,0.34-1.14c0.22-0.35,0.57-0.6,0.97-0.7c0.73-0.16,1.46,0.31,1.61,1.04c0,0,0,0,0,0
	c0.01,0.04,0.01,0.08,0.02,0.12c0.03,0.41-0.09,0.82-0.34,1.15C35.78,55.41,35.44,55.66,35.05,55.76z"/>
<path class="st0" d="M39.33,49.06c0.35-0.38,0.53-0.89,0.5-1.4c-0.04-0.54-0.31-1.03-0.74-1.35c-0.45-0.37-1.05-0.52-1.62-0.4
	c-0.57,0.1-1.12,0.24-1.66,0.44c-0.58,0.21-0.94,0.34-1.09,0.39c-0.15,0.05-0.42,0.13-0.8,0.23c-0.29,0.09-0.59,0.14-0.9,0.16
	c-0.22,0-0.48,0-0.78-0.01c-0.61-0.05-1.18-0.3-1.62-0.72c-0.76-0.59-1.18-1.52-1.12-2.48c0.09-1.06,0.53-2.06,1.25-2.85
	c0.81-0.81,1.67-1.57,2.57-2.28c0.36,0.35,0.7,0.73,1.01,1.12c0.46,0.54,0.76,0.93,0.92,1.17l-0.49,0.78
	c-0.56-0.43-1.18-0.8-1.83-1.08c-0.61,0.19-1.14,0.56-1.52,1.07c-0.61,0.65-0.58,1.66,0.07,2.27c0,0,0,0,0,0
	c0.05,0.05,0.1,0.09,0.15,0.13c0.45,0.35,1.04,0.45,1.58,0.28c0.58-0.14,1.16-0.32,1.72-0.53c0.66-0.24,1.15-0.42,1.48-0.51
	c0.4-0.11,0.8-0.2,1.21-0.27c0.89-0.15,1.79,0.12,2.46,0.71c0.88,0.67,1.37,1.73,1.3,2.83c-0.1,1.15-0.58,2.24-1.36,3.1
	c-0.78,0.94-1.74,1.71-2.83,2.26c-0.14-0.08-0.53-0.4-1.17-0.95c-0.42-0.34-0.82-0.7-1.18-1.1l0.47-0.88
	c0.61,0.47,1.36,0.75,2.13,0.8C38.19,50,38.89,49.65,39.33,49.06z"/>
<path class="st0" d="M43.95,44.96c-0.76,0.02-1.39-0.59-1.41-1.35c0-0.03,0-0.05,0-0.08c0.04-0.41,0.23-0.79,0.53-1.06
	c0.28-0.3,0.66-0.49,1.07-0.52c0.75-0.03,1.38,0.56,1.41,1.31l0,0c0,0.04,0,0.08,0,0.11c-0.04,0.41-0.23,0.79-0.54,1.07
	C44.74,44.74,44.36,44.93,43.95,44.96z"/>
<path class="st0" d="M43.34,29.01l3.58-2.7c1.45-1.15,3.2-1.84,5.04-1.97c1.74,0.02,3.33,0.95,4.21,2.45
	c1.12,1.43,1.62,3.24,1.38,5.04c-0.34,1.81-1.42,3.39-2.98,4.37c-0.47,0.33-1.04,0.71-1.71,1.12c-0.67,0.41-1.13,0.71-1.39,0.89
	c-0.25,0.18-0.8,0.63-1.63,1.36l-0.54-0.51c0.25-0.25,0.46-0.54,0.63-0.85c0.1-0.22,0.07-0.48-0.08-0.66l-5.3-7.47
	c-0.05-0.09-0.13-0.17-0.22-0.22c-0.09-0.03-0.19-0.05-0.29-0.04c-0.32,0.03-0.63,0.12-0.93,0.25l-0.19,0.06l-0.28-0.65
	C42.85,29.35,43.08,29.2,43.34,29.01z M51.63,35.85c0.38,0.53,1.13,0.39,2.25-0.4c1.04-0.65,1.69-1.76,1.75-2.99
	c-0.03-1.41-0.52-2.76-1.4-3.86c-0.71-1.18-1.86-2.05-3.19-2.4c-1.38-0.16-2.76,0.25-3.82,1.15c-0.38,0.25-0.71,0.55-0.98,0.91
	L51.63,35.85z"/>
<path class="st0" d="M63.58,16.69l0.76,1.44c0.19,0.39,0.37,0.79,0.54,1.2l-0.7,0.52c-0.35-0.55-0.81-1.02-1.36-1.37l-3.18,1.59
	l1.84,3.68l1.92-0.96c0.28-0.14,0.42-0.31,0.43-0.53c-0.01-0.3-0.06-0.6-0.13-0.89l-0.05-0.18l0.76-0.28
	c0.19,0.59,0.42,1.16,0.69,1.71c0.27,0.53,0.58,1.05,0.93,1.53l-0.68,0.43c-0.22-0.28-0.46-0.54-0.73-0.77
	c-0.21-0.13-0.48-0.12-0.69,0.02L62,24.78l2.05,4.1l3.35-1.67c0.1-0.36,0.13-0.74,0.08-1.12c-0.02-0.44-0.06-0.87-0.14-1.3
	l0.84-0.25c0.15,0.33,0.36,0.85,0.62,1.56c0.19,0.48,0.34,0.97,0.46,1.47l-5.84,2.92c-0.46,0.23-1.14,0.63-2.05,1.21l-0.46-0.59
	c0.65-0.51,0.98-0.88,0.97-1.11c-0.02-0.12-0.07-0.23-0.13-0.33l-4.13-8.26c-0.08-0.22-0.28-0.37-0.52-0.37
	c-0.31,0.01-0.63,0.06-0.93,0.15l-0.21,0.04l-0.18-0.73c1.13-0.42,1.86-0.72,2.19-0.89l4.12-2.06
	C62.61,17.31,63.11,17.02,63.58,16.69z"/>
<path class="st0" d="M72.78,19.91l0.61-0.13c1.31-0.45,1.66-1.55,1.06-3.28c-0.6-1.73-1.61-2.35-3.04-1.86
	c-0.22,0.08-0.43,0.2-0.61,0.35l3.15,9.1c0.04,0.14,0.11,0.27,0.21,0.37c0.11,0.08,0.25,0.12,0.39,0.11l1.55-0.16l0.12,0.79
	c-1.14,0.28-2.02,0.52-2.64,0.74c-0.61,0.21-1.43,0.56-2.45,1.03l-0.38-0.64c0.32-0.17,0.61-0.39,0.86-0.65
	c0.16-0.18,0.2-0.44,0.11-0.66l-3-8.66c-0.09-0.25-0.21-0.38-0.38-0.4c-0.34-0.05-0.68-0.05-1.01-0.01l-0.19,0.01l-0.09-0.7
	c0.22-0.01,0.44-0.07,0.64-0.16l3.44-1.33c3.05-1.06,4.95-0.5,5.7,1.66c0.34,0.96,0.23,2.03-0.3,2.9c-0.47,0.91-1.27,1.61-2.23,1.95
	c-0.22,0.06-0.44,0.08-0.66,0.05c-0.22-0.01-0.44-0.04-0.65-0.09L72.78,19.91z"/>
<path class="st0" d="M82.1,21.84c0.04,0.22,0.23,0.35,0.56,0.4l1.09,0.12l0.03,0.74c-0.69,0.03-1.37,0.11-2.05,0.24
	c-0.7,0.15-1.38,0.34-2.06,0.58l-0.29-0.68c0.37-0.11,0.7-0.32,0.97-0.59c0.18-0.38,0.28-0.79,0.31-1.21l1.64-10.51
	c0.55-0.22,1.06-0.52,1.52-0.88l6.06,9.54c0.2,0.37,0.46,0.7,0.77,0.98c0.31,0.16,0.66,0.23,1.01,0.21l0.01,0.74
	c-0.84,0.05-1.67,0.16-2.5,0.33c-0.86,0.18-1.71,0.4-2.54,0.68l-0.25-0.69c0.38-0.2,0.7-0.39,0.97-0.55
	c0.26-0.17,0.38-0.35,0.34-0.56c-0.02-0.09-0.05-0.17-0.11-0.25l-1.44-2.36l-3.71,0.74l-0.35,2.72
	C82.07,21.67,82.08,21.76,82.1,21.84z M83.13,13.82l-0.52,3.79l2.88-0.58l-1.91-3.17l-0.35-0.73l-0.14-0.03L83.13,13.82z"/>
<path class="st0" d="M92.38,9.16l3.75-0.31c1.2-0.11,2.41,0.09,3.51,0.57c0.9,0.44,1.46,1.36,1.44,2.36
	c0.04,0.81-0.24,1.6-0.79,2.19c-0.54,0.62-1.29,1.02-2.1,1.11l0.01,0.13c0.46,0.12,0.87,0.37,1.18,0.73
	c0.4,0.41,0.76,0.86,1.06,1.35c0.49,0.95,1.17,1.8,1.99,2.49c0.45,0.3,0.98,0.45,1.52,0.43l-0.08,0.7l-3.31,0.16
	c-0.3,0.01-0.69-0.32-1.17-0.99c-0.43-0.62-0.83-1.24-1.19-1.86c-0.37-0.62-0.65-1.1-0.85-1.42c-0.15-0.27-0.34-0.51-0.57-0.72
	c-0.2-0.17-0.46-0.24-0.72-0.22l-0.34,0.02l0.18,3.68c0,0.14,0.03,0.29,0.1,0.42c0.09,0.11,0.21,0.19,0.35,0.22l1.51,0.28
	l-0.09,0.79c-1.18-0.06-2.09-0.07-2.74-0.04c-0.65,0.03-1.54,0.13-2.65,0.29l-0.17-0.72c0.76-0.2,1.19-0.41,1.28-0.62
	c0.03-0.12,0.03-0.24,0.02-0.36l-0.44-9.15c0.02-0.21-0.08-0.41-0.25-0.53c-0.3-0.13-0.62-0.22-0.95-0.27l-0.19-0.03l0.1-0.7
	C91.96,9.18,92.17,9.19,92.38,9.16z M95.66,14.81l0.56-0.03c1.59-0.08,2.35-0.95,2.27-2.62c0.02-0.68-0.19-1.34-0.61-1.87
	c-0.46-0.42-1.09-0.61-1.71-0.53c-0.26,0.01-0.51,0.06-0.74,0.17L95.66,14.81z"/>
<path class="st0" d="M111.64,21.81c-1.85-0.4-3.75-0.58-5.64-0.54l-0.1-0.76c1.05-0.1,1.65-0.25,1.79-0.45
	c0.06-0.1,0.09-0.21,0.09-0.33l0.89-9.42l-2.46-0.23c-0.27,0.7-0.47,1.42-0.6,2.16l-1.04-0.27c-0.03-0.72-0.02-1.43,0.03-2.15
	c0.05-0.54,0.1-0.94,0.13-1.2c0.65,0.15,1.3,0.26,1.96,0.34l6.57,0.62c0.66,0.05,1.32,0.06,1.99,0.04c0,0.15-0.02,0.45-0.07,0.9
	c-0.04,0.45-0.18,1.26-0.42,2.41L113.72,13c0.04-0.75-0.02-1.5-0.18-2.23l-2.46-0.23l-0.89,9.42c-0.05,0.19,0.02,0.39,0.18,0.5
	c0.38,0.23,0.8,0.41,1.23,0.53l0.29,0.08L111.64,21.81z"/>
<path class="st0" d="M129.04,12.88c0.59,0.29,1.21,0.53,1.85,0.7c0.68,0.18,1.36,0.31,2.06,0.37l-0.07,0.74
	c-0.36-0.02-0.72,0-1.08,0.05c-0.25,0.06-0.44,0.27-0.46,0.53l-1.87,8.93c-0.08,0.24-0.02,0.51,0.16,0.7
	c0.27,0.22,0.55,0.41,0.85,0.58l-0.32,0.67c-0.72-0.31-1.46-0.57-2.21-0.78c-0.85-0.23-1.72-0.41-2.59-0.54l0.08-0.77
	c0.92,0.06,1.46,0,1.64-0.17c0.08-0.08,0.13-0.19,0.14-0.31l1.69-7.86l-0.08-0.12c-0.21,0.43-0.46,0.84-0.74,1.23l-3.63,4.82
	c-0.44,0.6-0.85,1.23-1.23,1.87l-0.22,0.37l-1.83-0.04c-0.02-1.24-0.08-2.2-0.16-2.89l-0.64-6.15l-0.02-1.29l-0.15,0.06l-2.58,7.36
	c-0.05,0.11-0.07,0.23-0.05,0.35c0.04,0.1,0.1,0.18,0.17,0.25c0.29,0.24,0.6,0.44,0.94,0.61l0.22,0.12l-0.35,0.7
	c-0.65-0.29-1.32-0.53-2-0.72c-0.68-0.18-1.36-0.31-2.06-0.39l0.05-0.74c0.36,0.03,0.71,0.02,1.07-0.04
	c0.24-0.05,0.43-0.24,0.49-0.49l3.11-8.71c0.09-0.22,0.04-0.48-0.14-0.64c-0.25-0.2-0.52-0.37-0.81-0.51l-0.18-0.11l0.32-0.67
	c0.65,0.31,1.34,0.56,2.03,0.75c0.7,0.19,1.42,0.33,2.15,0.4c-0.01,0.59,0,1.04,0.02,1.34l0.67,7.73l0,0.91l0.12,0.07
	c0.08-0.3,0.22-0.57,0.4-0.82l4.48-6.22L129.04,12.88z"/>
<path class="st0" d="M144.53,19.38l-0.66,1.49c-0.19,0.4-0.39,0.78-0.61,1.16l-0.84-0.23c0.22-0.61,0.3-1.27,0.24-1.91l-3.22-1.51
	l-1.75,3.72l1.95,0.92c0.21,0.13,0.47,0.14,0.68,0.01c0.23-0.2,0.44-0.42,0.62-0.66l0.11-0.15l0.69,0.43
	c-0.35,0.51-0.65,1.05-0.92,1.6c-0.25,0.54-0.46,1.1-0.63,1.68l-0.76-0.27c0.09-0.35,0.14-0.7,0.16-1.05c0-0.21-0.15-0.39-0.44-0.53
	l-1.95-0.92l-1.95,4.14l3.38,1.59c0.35-0.15,0.66-0.36,0.93-0.63c0.33-0.28,0.64-0.59,0.94-0.91l0.71,0.5
	c-0.17,0.32-0.45,0.8-0.85,1.45c-0.26,0.44-0.55,0.87-0.87,1.28l-5.9-2.78c-0.46-0.22-1.2-0.51-2.22-0.86l0.17-0.72
	c0.8,0.2,1.29,0.22,1.47,0.07c0.08-0.09,0.14-0.19,0.19-0.3l3.94-8.36c0.13-0.2,0.11-0.45-0.03-0.64c-0.21-0.24-0.44-0.45-0.69-0.64
	l-0.16-0.14l0.46-0.59c1.03,0.62,1.71,1.01,2.05,1.17l4.16,1.96C143.45,19,143.98,19.21,144.53,19.38z"/>
<path class="st0" d="M144.47,31.62c-0.09,0.12-0.15,0.25-0.18,0.4c0,0.14,0.05,0.28,0.15,0.38c0.25,0.33,0.52,0.64,0.82,0.92
	l0.22,0.21l-0.56,0.57c-0.57-0.51-1.18-0.99-1.81-1.43c-0.66-0.43-1.34-0.83-2.04-1.18l0.28-0.69c0.36,0.18,0.75,0.3,1.15,0.37
	c0.24,0.03,0.47-0.1,0.57-0.31l5.18-7.65c0.15-0.18,0.18-0.43,0.07-0.63l-0.73-0.9l0.52-0.53c0.48,0.47,1,0.9,1.56,1.28
	c0.56,0.38,1.16,0.71,1.79,0.98c-0.04,0.57-0.06,1.29-0.06,2.15l0.08,6.83c-0.01,0.41-0.08,0.81-0.18,1.21l-0.06,0.23l0.12-0.01
	l3.92-5.79c0.15-0.18,0.17-0.44,0.05-0.64c-0.2-0.29-0.42-0.57-0.67-0.81l-0.17-0.18l0.54-0.56c0.55,0.5,1.14,0.97,1.75,1.41
	c0.58,0.38,1.19,0.71,1.82,1l-0.3,0.68c-0.34-0.15-0.69-0.26-1.06-0.32c-0.24-0.04-0.48,0.07-0.61,0.28l-3.98,5.89
	c-0.54,0.81-1.07,1.65-1.57,2.53l-0.25,0.44l-1.89-0.81c0.21-1.38,0.29-2.77,0.25-4.17l-0.1-6.53c-0.01-0.39,0.02-0.78,0.09-1.16
	l0.04-0.22l-0.12,0.01L144.47,31.62z"/>
<path class="st0" d="M157.89,44.52c-1.23-1.44-2.62-2.74-4.15-3.86l0.39-0.66c0.89,0.56,1.46,0.8,1.69,0.73
	c0.11-0.05,0.2-0.12,0.27-0.21l6.44-6.93l-1.81-1.68c-0.64,0.39-1.24,0.85-1.79,1.35l-0.67-0.85c0.41-0.59,0.86-1.15,1.34-1.68
	c0.37-0.4,0.65-0.69,0.83-0.87c0.42,0.51,0.87,1,1.35,1.46l4.84,4.49c0.49,0.44,1.01,0.86,1.55,1.24c-0.09,0.12-0.29,0.34-0.6,0.68
	c-0.31,0.33-0.91,0.89-1.8,1.66l-0.88-0.59c0.49-0.57,0.9-1.2,1.21-1.88l-1.81-1.68l-6.44,6.93c-0.15,0.12-0.22,0.32-0.17,0.51
	c0.16,0.42,0.38,0.81,0.65,1.17l0.18,0.25L157.89,44.52z"/>
<path class="st0" d="M166.26,54.65c-1.08-1.35-1.59-3.06-1.42-4.78c0.25-1.66,1.21-3.14,2.62-4.04c1.39-1.07,3.14-1.55,4.88-1.35
	c1.75,0.24,3.31,1.24,4.28,2.72c1.07,1.35,1.59,3.06,1.42,4.78c-0.25,1.66-1.21,3.14-2.62,4.04c-1.39,1.07-3.14,1.55-4.88,1.35
	C168.79,57.13,167.23,56.14,166.26,54.65z M175.67,47.75c-0.59-0.95-1.63-1.51-2.75-1.47c-1.28,0.11-2.5,0.6-3.51,1.4
	c-1.14,0.77-2.04,1.85-2.58,3.12c-0.49,1.09-0.35,2.37,0.38,3.32c0.59,0.95,1.63,1.51,2.75,1.47c1.28-0.11,2.5-0.6,3.51-1.4
	c1.14-0.77,2.04-1.85,2.58-3.12C176.54,49.98,176.4,48.7,175.67,47.75z"/>
<path class="st0" d="M178.45,63.46l-0.91-1.76l-3.57,1.84c-0.13,0.06-0.25,0.15-0.34,0.26c-0.07,0.12-0.09,0.27-0.05,0.41l0.37,1.49
	l-0.76,0.24c-0.32-0.86-0.69-1.7-1.11-2.51c-0.41-0.79-0.87-1.56-1.37-2.29l0.59-0.45c0.22,0.29,0.47,0.55,0.76,0.76
	c0.2,0.13,0.46,0.14,0.67,0.01l8.21-4.23c0.25-0.1,0.4-0.35,0.38-0.62c-0.04-0.34-0.11-0.67-0.2-0.99l0.72-0.19
	c0.26,0.73,0.55,1.44,0.89,2.13l2.07,4c0.25,0.49,0.53,0.95,0.85,1.39c-0.24,0.15-0.59,0.34-1.03,0.57
	c-0.44,0.23-0.98,0.49-1.63,0.8l-0.53-0.7c0.54-0.38,1.01-0.86,1.37-1.42l-1.53-2.98l-3.72,1.92l0.91,1.76
	c0.16,0.3,0.33,0.44,0.53,0.42l1.05-0.29l0.24,0.67c-0.59,0.2-1.17,0.44-1.72,0.72c-0.54,0.28-1.05,0.6-1.53,0.96l-0.41-0.59
	c0.3-0.2,0.59-0.43,0.84-0.69C178.62,63.99,178.61,63.76,178.45,63.46z"/>
<path class="st5" d="M20.39,97.82l-1.49-0.1c-0.4-0.04-0.8-0.09-1.19-0.16l-0.07-0.8c0.6,0,1.19-0.14,1.72-0.39l0.3-3.25l-3.76-0.34
	l-0.18,1.97c-0.05,0.22,0.03,0.45,0.2,0.59c0.24,0.13,0.5,0.24,0.76,0.33l0.17,0.05l-0.15,0.73c-0.55-0.14-1.11-0.24-1.67-0.29
	c-0.55-0.05-1.1-0.05-1.64-0.01l0-0.74c0.32-0.03,0.65-0.1,0.96-0.2c0.18-0.07,0.29-0.25,0.32-0.55l0.18-1.96l-4.19-0.38l-0.31,3.42
	c0.24,0.25,0.52,0.46,0.83,0.6c0.35,0.2,0.71,0.37,1.08,0.52l-0.21,0.77c-0.33-0.04-0.83-0.13-1.52-0.28
	c-0.46-0.09-0.92-0.2-1.37-0.35l0.54-5.96c0.04-0.47,0.06-1.2,0.04-2.18l0.68-0.08c0.08,0.75,0.21,1.19,0.4,1.29
	c0.1,0.04,0.21,0.06,0.32,0.06l8.44,0.77c0.21,0.05,0.43-0.04,0.54-0.23c0.14-0.25,0.25-0.52,0.33-0.8l0.07-0.18l0.65,0.21
	c-0.21,1.08-0.34,1.8-0.37,2.14l-0.38,4.2C20.38,96.76,20.37,97.29,20.39,97.82z"/>
<path class="st5" d="M9.74,105.19c0.26,0.88,0.52,1.32,0.77,1.31c0.1,0,0.21-0.03,0.29-0.1l3.09-2.36l-3.26-2.25
	c-0.08-0.05-0.18-0.08-0.28-0.08c-0.17,0.01-0.32,0.17-0.44,0.5l-0.24,0.87l-0.67-0.1c0.07-0.65,0.1-1.3,0.08-1.95
	c-0.03-0.66-0.12-1.32-0.25-1.97l0.66-0.16c0.08,0.28,0.21,0.55,0.39,0.79c0.25,0.29,0.54,0.55,0.85,0.77l4.02,2.93l3.59-2.72
	c0.35-0.25,0.67-0.54,0.94-0.88c0.19-0.28,0.31-0.6,0.35-0.94l0.67,0.11c-0.08,0.81-0.1,1.63-0.06,2.44
	c0.03,0.83,0.11,1.65,0.25,2.46l-0.67,0.15c-0.06-0.29-0.16-0.58-0.3-0.84c-0.07-0.17-0.23-0.28-0.4-0.29
	c-0.12,0-0.24,0.03-0.35,0.08l-2.74,2.11l2.89,1.97c0.08,0.05,0.18,0.07,0.28,0.06c0.35-0.01,0.59-0.42,0.69-1.21l0.67,0.1
	c-0.07,0.64-0.1,1.28-0.08,1.93c0.03,0.62,0.1,1.24,0.22,1.85l-0.66,0.18c-0.07-0.33-0.2-0.65-0.38-0.94
	c-0.25-0.27-0.54-0.51-0.85-0.7l-3.62-2.58l-3.97,3.08c-0.36,0.25-0.68,0.54-0.96,0.87c-0.17,0.26-0.29,0.55-0.34,0.86l-0.67-0.11
	c0.08-0.84,0.1-1.68,0.06-2.52c-0.03-0.86-0.11-1.71-0.25-2.56L9.74,105.19z"/>
<path class="st5" d="M10.63,118.83c-0.08-1.74-0.36-3.46-0.84-5.13l0.65-0.26c0.33,0.91,0.61,1.4,0.82,1.48
	c0.1,0.03,0.21,0.03,0.31,0l8.57-1.41l-0.37-2.24c-0.68-0.07-1.37-0.08-2.06-0.03l-0.01-0.99c0.63-0.2,1.27-0.35,1.91-0.47
	c0.49-0.08,0.86-0.13,1.1-0.16c0.02,0.61,0.07,1.21,0.16,1.82l0.99,5.98c0.11,0.6,0.25,1.19,0.43,1.77
	c-0.13,0.03-0.41,0.08-0.82,0.15c-0.41,0.07-1.16,0.13-2.24,0.2l-0.31-0.92c0.68-0.14,1.33-0.37,1.94-0.69l-0.37-2.23l-8.57,1.41
	c-0.23,0.04-0.36,0.13-0.41,0.28c-0.12,0.39-0.18,0.8-0.18,1.21l-0.01,0.28L10.63,118.83z"/>
<path class="st5" d="M22.41,120.06l1.09,3.27c0.36,1.05,0.44,2.17,0.25,3.25c-0.19,0.9-0.89,1.6-1.79,1.8
	c-0.71,0.22-1.48,0.13-2.12-0.23c-0.67-0.34-1.19-0.92-1.45-1.63l-0.11,0.03c-0.01,0.43-0.14,0.85-0.4,1.21
	c-0.28,0.45-0.61,0.86-0.98,1.24c-0.74,0.65-1.35,1.43-1.79,2.32c-0.17,0.47-0.19,0.97-0.06,1.45l-0.64,0.08l-0.86-2.91
	c-0.08-0.26,0.13-0.68,0.63-1.26c0.46-0.52,0.92-1.01,1.4-1.47c0.48-0.46,0.84-0.82,1.08-1.06c0.2-0.19,0.38-0.42,0.52-0.66
	c0.1-0.22,0.12-0.47,0.04-0.69l-0.09-0.3l-3.24,0.96c-0.13,0.03-0.25,0.09-0.35,0.17c-0.08,0.1-0.12,0.23-0.12,0.36l0.07,1.41
	l-0.72,0.09c-0.21-1.06-0.39-1.88-0.56-2.46c-0.17-0.58-0.45-1.34-0.84-2.3l0.61-0.3c0.34,0.64,0.62,0.97,0.83,1.01
	c0.11,0,0.22-0.02,0.32-0.06l8.06-2.38c0.24-0.07,0.38-0.18,0.42-0.34c0.05-0.3,0.06-0.6,0.04-0.91l-0.02-0.17l0.64-0.06
	C22.3,119.69,22.34,119.88,22.41,120.06z M18.09,124.21l0.15,0.49c0.18,1.08,1.21,1.81,2.29,1.63c0.19-0.03,0.37-0.09,0.53-0.17
	c0.61-0.13,1.15-0.46,1.53-0.95c0.28-0.5,0.31-1.1,0.1-1.64c-0.06-0.23-0.17-0.44-0.31-0.62L18.09,124.21z"/>
<path class="st5" d="M16.94,135.15c-0.19,0.08-0.27,0.28-0.25,0.58l0.11,1l-0.65,0.18c-0.17-0.61-0.37-1.21-0.62-1.79
	c-0.27-0.59-0.59-1.17-0.93-1.73l0.56-0.4c0.18,0.31,0.43,0.56,0.73,0.75c0.38,0.08,0.76,0.09,1.14,0.04l9.74-0.63
	c0.31,0.44,0.67,0.84,1.09,1.19l-7.34,7.33c-0.29,0.25-0.53,0.55-0.73,0.88c-0.08,0.31-0.07,0.64,0.02,0.95l-0.66,0.16
	c-0.22-0.74-0.48-1.47-0.79-2.17c-0.33-0.74-0.7-1.45-1.12-2.14l0.57-0.37c0.26,0.3,0.49,0.55,0.69,0.76
	c0.2,0.2,0.39,0.27,0.57,0.19c0.08-0.03,0.14-0.08,0.2-0.14l1.83-1.77l-1.4-3.17l-2.51,0.23C17.09,135.09,17.01,135.12,16.94,135.15
	z M24.33,134.47l-3.49,0.29l1.09,2.46l2.45-2.34l0.58-0.46l0-0.13L24.33,134.47z"/>
<path class="st5" d="M23.32,150.7c-0.35-0.79-0.75-1.57-1.2-2.31c-0.45-0.75-0.93-1.47-1.46-2.16l0.51-0.48
	c0.64,0.72,1.08,1.08,1.3,1.08c0.1-0.01,0.21-0.05,0.29-0.11l7.46-4.44l-1.16-1.95c-0.66,0.18-1.31,0.43-1.92,0.73l-0.37-0.92
	c0.51-0.41,1.05-0.79,1.61-1.14c0.43-0.25,0.75-0.44,0.96-0.55c0.24,0.56,0.51,1.1,0.81,1.63l3.1,5.21
	c0.32,0.52,0.67,1.02,1.05,1.49c-0.11,0.08-0.35,0.23-0.71,0.44c-0.36,0.21-1.03,0.55-2.01,1l-0.62-0.75
	c0.58-0.37,1.1-0.83,1.56-1.35l-1.16-1.95l-7.46,4.44c-0.2,0.12-0.29,0.25-0.28,0.4c0.04,0.41,0.13,0.81,0.27,1.2l0.1,0.26
	L23.32,150.7z"/>
<path class="st5" d="M39.32,153.38l-1.17,0.93c-0.32,0.24-0.65,0.47-0.99,0.69l-0.59-0.54c0.44-0.41,0.78-0.9,1-1.46l-1.98-2.59
	l-3,2.29l1.2,1.57c0.11,0.2,0.32,0.31,0.55,0.29c0.27-0.06,0.53-0.16,0.78-0.27l0.16-0.08l0.38,0.64c-0.5,0.27-0.98,0.58-1.43,0.92
	c-0.44,0.33-0.84,0.7-1.22,1.1l-0.5-0.54c0.22-0.24,0.41-0.51,0.57-0.79c0.08-0.21,0.03-0.46-0.14-0.62l-1.2-1.57l-3.34,2.55
	l2.08,2.73c0.34,0.03,0.69-0.01,1.02-0.12c0.39-0.09,0.77-0.21,1.15-0.35l0.37,0.71c-0.27,0.19-0.71,0.47-1.3,0.82
	c-0.4,0.25-0.82,0.48-1.25,0.67l-3.63-4.76c-0.28-0.37-0.77-0.92-1.44-1.64l0.45-0.51c0.57,0.5,0.96,0.73,1.17,0.68
	c0.1-0.04,0.2-0.1,0.28-0.17l6.74-5.14c0.19-0.11,0.28-0.32,0.24-0.53c-0.07-0.28-0.17-0.55-0.29-0.81l-0.07-0.18l0.63-0.28
	c0.58,0.94,0.97,1.55,1.17,1.82l2.56,3.36C38.6,152.61,38.95,153.01,39.32,153.38z"/>
<path class="st5" d="M40.59,155.01l2.5,2.38c0.81,0.76,1.41,1.7,1.75,2.75c0.25,0.88-0.04,1.83-0.73,2.43
	c-0.53,0.52-1.24,0.81-1.99,0.79c-0.75,0.01-1.48-0.26-2.04-0.76l-0.09,0.08c0.2,0.39,0.28,0.82,0.22,1.25
	c-0.04,0.53-0.13,1.05-0.28,1.55c-0.35,0.92-0.52,1.9-0.49,2.88c0.07,0.49,0.29,0.95,0.63,1.3l-0.53,0.37l-2.13-2.17
	c-0.19-0.2-0.2-0.66-0.03-1.41c0.16-0.67,0.34-1.32,0.55-1.95c0.21-0.63,0.36-1.12,0.46-1.45c0.09-0.27,0.14-0.55,0.15-0.83
	c-0.01-0.24-0.11-0.47-0.29-0.63l-0.22-0.22l-2.41,2.37c-0.1,0.09-0.18,0.2-0.23,0.32c-0.02,0.13,0,0.26,0.06,0.37l0.73,1.21
	l-0.6,0.42c-0.68-0.84-1.23-1.48-1.65-1.9c-0.42-0.43-1.03-0.97-1.82-1.64l0.39-0.55c0.6,0.4,1.01,0.57,1.21,0.5
	c0.1-0.05,0.18-0.12,0.26-0.2l6.01-5.88c0.16-0.11,0.24-0.3,0.21-0.5c-0.1-0.29-0.23-0.56-0.39-0.82l-0.09-0.15l0.54-0.36
	C40.23,154.62,40.35,154.77,40.59,155.01z M38.72,160.71l0.36,0.37c0.67,0.87,1.92,1.03,2.79,0.36c0.15-0.11,0.28-0.25,0.39-0.4
	c0.48-0.4,0.8-0.95,0.91-1.56c0.01-0.57-0.24-1.12-0.68-1.49c-0.16-0.17-0.35-0.31-0.57-0.41L38.72,160.71z"/>
<path class="st5" d="M48.11,162.49l2.79,2.03c0.9,0.64,1.62,1.5,2.09,2.5c0.36,0.84,0.2,1.82-0.41,2.5
	c-0.45,0.59-1.13,0.97-1.87,1.05c-0.74,0.11-1.5-0.06-2.12-0.49l-0.07,0.09c0.25,0.36,0.38,0.78,0.38,1.21
	c0.03,0.53,0.01,1.05-0.08,1.57c-0.23,0.96-0.26,1.95-0.11,2.92c0.13,0.48,0.41,0.9,0.79,1.21l-0.47,0.44l-2.39-1.87
	c-0.22-0.17-0.29-0.63-0.22-1.39c0.07-0.69,0.17-1.36,0.29-2.01c0.12-0.65,0.21-1.15,0.27-1.49c0.05-0.28,0.07-0.56,0.04-0.84
	c-0.04-0.24-0.17-0.45-0.37-0.58l-0.24-0.19l-2.08,2.66c-0.09,0.1-0.15,0.22-0.18,0.35c-0.01,0.13,0.03,0.26,0.11,0.36l0.88,1.1
	l-0.54,0.49c-0.78-0.74-1.41-1.3-1.88-1.67c-0.47-0.37-1.15-0.83-2.02-1.39l0.32-0.6c0.65,0.32,1.07,0.43,1.26,0.34
	c0.09-0.07,0.16-0.15,0.23-0.24l5.19-6.62c0.14-0.13,0.19-0.33,0.14-0.52c-0.13-0.27-0.3-0.53-0.5-0.76l-0.11-0.13l0.49-0.43
	C47.71,162.15,47.84,162.28,48.11,162.49z M47.01,168.38l0.41,0.32c0.78,0.77,2.04,0.77,2.81-0.01c0.13-0.13,0.25-0.28,0.34-0.45
	c0.42-0.46,0.67-1.05,0.7-1.67c-0.07-0.57-0.39-1.08-0.87-1.39c-0.18-0.15-0.39-0.26-0.61-0.33L47.01,168.38z"/>
<path class="st5" d="M63,172.64l-0.74,1.3c-0.21,0.34-0.42,0.68-0.66,1l-0.75-0.29c0.26-0.54,0.39-1.13,0.39-1.72l-2.8-1.67
	l-1.94,3.24l1.69,1.01c0.18,0.14,0.42,0.17,0.62,0.07c0.23-0.16,0.44-0.34,0.63-0.54l0.12-0.13l0.59,0.45
	c-0.36,0.44-0.69,0.9-0.99,1.38c-0.28,0.47-0.52,0.97-0.72,1.48l-0.67-0.32c0.11-0.31,0.19-0.63,0.24-0.95
	c0.02-0.2-0.1-0.37-0.36-0.52l-1.69-1.01l-2.16,3.61l2.94,1.76c0.33-0.1,0.64-0.27,0.9-0.49c0.33-0.23,0.64-0.48,0.94-0.75
	l0.61,0.52c-0.18,0.28-0.48,0.69-0.91,1.25c-0.28,0.38-0.58,0.74-0.91,1.08l-5.14-3.08c-0.4-0.24-1.05-0.57-1.95-0.99l0.23-0.64
	c0.71,0.25,1.16,0.32,1.34,0.2c0.08-0.08,0.15-0.17,0.2-0.26l4.35-7.27c0.13-0.17,0.15-0.4,0.03-0.58
	c-0.17-0.24-0.36-0.45-0.57-0.64l-0.14-0.14l0.48-0.49c0.88,0.66,1.47,1.08,1.77,1.26l3.62,2.17
	C62.04,172.19,62.51,172.43,63,172.64z"/>
<path class="st5" d="M63.02,184.35c0.42,0.21,0.91,0.25,1.36,0.09c0.46-0.17,0.83-0.53,1.01-0.99c0.22-0.49,0.2-1.06-0.05-1.53
	c-0.23-0.48-0.5-0.93-0.8-1.36c-0.33-0.46-0.53-0.74-0.61-0.87c-0.08-0.12-0.22-0.33-0.4-0.65c-0.15-0.24-0.27-0.49-0.36-0.75
	c-0.06-0.19-0.12-0.42-0.19-0.69c-0.1-0.55-0.02-1.11,0.23-1.61c0.33-0.82,1.05-1.42,1.91-1.61c0.96-0.19,1.96-0.05,2.83,0.4
	c0.92,0.51,1.8,1.08,2.66,1.7c-0.22,0.4-0.47,0.8-0.73,1.17c-0.36,0.54-0.63,0.91-0.8,1.11l-0.81-0.24c0.24-0.6,0.41-1.24,0.5-1.88
	c-0.31-0.49-0.78-0.87-1.32-1.08c-0.72-0.37-1.61-0.09-1.99,0.63c-0.03,0.05-0.05,0.11-0.07,0.16c-0.2,0.48-0.14,1.03,0.14,1.46
	c0.27,0.48,0.57,0.94,0.9,1.38c0.38,0.52,0.65,0.91,0.82,1.18c0.2,0.32,0.38,0.66,0.54,1c0.35,0.75,0.34,1.61-0.02,2.35
	c-0.37,0.94-1.19,1.64-2.18,1.85c-1.05,0.2-2.13,0.05-3.08-0.42c-1.02-0.45-1.94-1.11-2.7-1.93c0.04-0.15,0.22-0.57,0.54-1.27
	c0.19-0.46,0.42-0.9,0.68-1.32l0.89,0.2c-0.26,0.66-0.32,1.38-0.18,2.08C61.91,183.58,62.39,184.11,63.02,184.35z"/>
<path class="st5" d="M74.68,189.69c-1.57-0.74-3.23-1.29-4.94-1.63l0.07-0.7c0.96,0.12,1.52,0.11,1.69-0.04
	c0.07-0.08,0.12-0.17,0.15-0.28l2.73-8.24l-2.15-0.71c-0.38,0.57-0.71,1.18-0.98,1.81l-0.88-0.45c0.12-0.65,0.28-1.29,0.47-1.91
	c0.16-0.47,0.28-0.82,0.36-1.05c0.55,0.27,1.11,0.5,1.68,0.7l5.75,1.9c0.58,0.18,1.17,0.33,1.77,0.44c-0.03,0.13-0.11,0.4-0.25,0.8
	c-0.13,0.4-0.42,1.09-0.87,2.07l-0.96-0.16c0.19-0.66,0.29-1.35,0.29-2.04l-2.15-0.71l-2.73,8.24c-0.08,0.16-0.06,0.35,0.06,0.49
	c0.3,0.28,0.63,0.53,0.99,0.72l0.25,0.14L74.68,189.69z"/>
<path class="st5" d="M81.09,179.86l3.41,0.51c1.09,0.16,2.13,0.59,3.01,1.25c0.71,0.58,1.02,1.52,0.79,2.41
	c-0.13,0.73-0.55,1.38-1.17,1.79c-0.61,0.44-1.36,0.64-2.11,0.55L85,186.49c0.38,0.2,0.7,0.52,0.9,0.9
	c0.27,0.45,0.49,0.93,0.66,1.43c0.24,0.95,0.67,1.85,1.25,2.64c0.34,0.36,0.78,0.61,1.26,0.71l-0.22,0.6l-2.99-0.56
	c-0.27-0.05-0.55-0.43-0.84-1.13c-0.25-0.64-0.48-1.28-0.67-1.92c-0.2-0.64-0.35-1.12-0.45-1.45c-0.08-0.27-0.2-0.53-0.36-0.76
	c-0.15-0.19-0.36-0.32-0.6-0.35l-0.3-0.06l-0.62,3.32c-0.03,0.13-0.03,0.26,0,0.39c0.05,0.12,0.15,0.21,0.26,0.27l1.29,0.57
	l-0.25,0.69c-1.04-0.3-1.85-0.5-2.44-0.61c-0.59-0.11-1.4-0.21-2.43-0.3l0-0.68c0.72-0.02,1.15-0.11,1.28-0.29
	c0.05-0.1,0.08-0.2,0.09-0.31l1.54-8.27c0.06-0.18,0.02-0.39-0.11-0.53c-0.24-0.18-0.51-0.33-0.79-0.44l-0.16-0.06l0.23-0.6
	C80.71,179.79,80.9,179.85,81.09,179.86z M82.83,185.6l0.51,0.09c1.05,0.33,2.16-0.26,2.49-1.31c0.06-0.18,0.09-0.36,0.09-0.55
	c0.16-0.6,0.11-1.24-0.15-1.8c-0.33-0.47-0.85-0.78-1.42-0.83c-0.23-0.05-0.47-0.05-0.7-0.01L82.83,185.6z"/>
<path class="st5" d="M94.48,183.34l-0.83,8.44c-0.02,0.11-0.01,0.22,0.01,0.32c0.04,0.09,0.11,0.16,0.2,0.2
	c0.25,0.16,0.51,0.28,0.79,0.37l0.18,0.05l-0.19,0.65c-1.46-0.35-2.96-0.5-4.46-0.44l-0.05-0.68c0.72-0.08,1.13-0.21,1.24-0.39
	c0.04-0.1,0.06-0.2,0.07-0.3l0.83-8.44c0.02-0.11,0.01-0.22-0.01-0.32c-0.04-0.08-0.1-0.15-0.18-0.2c-0.25-0.15-0.51-0.28-0.79-0.37
	l-0.17-0.05l0.19-0.65c1.46,0.35,2.96,0.5,4.46,0.44l0.05,0.68c-0.74,0.07-1.16,0.2-1.26,0.39
	C94.51,183.13,94.48,183.23,94.48,183.34z"/>
<path class="st5" d="M98.64,192.16c0,0.21,0.14,0.36,0.43,0.46l0.96,0.31l-0.1,0.67c-0.63-0.09-1.26-0.14-1.89-0.15
	c-0.65,0.01-1.31,0.07-1.96,0.16l-0.14-0.67c0.35-0.04,0.69-0.16,0.98-0.36c0.22-0.31,0.39-0.66,0.49-1.03l3.33-9.17
	c0.53-0.1,1.04-0.28,1.53-0.52l3.77,9.67c0.12,0.37,0.29,0.71,0.52,1.02c0.26,0.2,0.56,0.32,0.88,0.37l-0.12,0.67
	c-0.77-0.1-1.54-0.15-2.31-0.15c-0.81,0.01-1.61,0.06-2.41,0.16l-0.11-0.67c0.38-0.12,0.7-0.22,0.97-0.33
	c0.27-0.1,0.4-0.25,0.4-0.45c0-0.08-0.02-0.16-0.05-0.24l-0.88-2.38l-3.47,0.01l-0.8,2.39C98.64,192,98.63,192.08,98.64,192.16z
	 M100.98,185.12l-1.14,3.32l2.69-0.01l-1.16-3.19l-0.19-0.72l-0.12-0.05L100.98,185.12z"/>
<path class="st5" d="M110.96,183.22l1.04,8.52l3-0.37c0.21-0.29,0.36-0.61,0.46-0.95c0.14-0.37,0.25-0.75,0.34-1.14l0.84,0.05
	c0.02,0.29,0.03,0.78,0.03,1.49c0.01,0.48-0.02,0.96-0.07,1.43l-5.69,0.69c-0.25,0.03-0.93,0.17-2.04,0.41l-0.21-0.63
	c0.32-0.1,0.62-0.23,0.9-0.41c0.18-0.14,0.27-0.37,0.22-0.59l-1.02-8.38c-0.03-0.25-0.12-0.41-0.27-0.47
	c-0.29-0.1-0.59-0.17-0.89-0.2l-0.17-0.01l0.07-0.68c0.81,0.01,1.62-0.04,2.43-0.14c0.82-0.1,1.64-0.25,2.44-0.45l0.22,0.7
	c-0.46,0.14-0.92,0.3-1.36,0.5C111,182.71,110.89,182.97,110.96,183.22z"/>
<path class="st5" d="M122.87,180.76l2.11,8.21c0.02,0.11,0.06,0.21,0.12,0.3c0.07,0.07,0.16,0.11,0.25,0.12
	c0.29,0.06,0.58,0.09,0.87,0.08l0.19-0.01l0.05,0.68c-1.49,0.17-2.95,0.55-4.34,1.12l-0.28-0.62c0.65-0.32,1-0.59,1.03-0.8
	c0-0.1-0.01-0.21-0.04-0.31l-2.11-8.21c-0.02-0.11-0.06-0.21-0.12-0.3c-0.06-0.07-0.15-0.11-0.24-0.13
	c-0.29-0.06-0.58-0.08-0.87-0.08l-0.17,0.01l-0.05-0.68c1.49-0.17,2.95-0.55,4.34-1.12l0.28,0.62c-0.68,0.32-1.03,0.58-1.05,0.8
	C122.82,180.55,122.83,180.66,122.87,180.76z"/>
<path class="st5" d="M130.68,187.11c0.04,0.13,0.11,0.25,0.2,0.34c0.1,0.08,0.24,0.11,0.36,0.08c0.38-0.01,0.75-0.06,1.12-0.14
	l0.28-0.05l0.13,0.72c-0.69,0.16-1.37,0.36-2.03,0.61c-0.67,0.26-1.33,0.57-1.97,0.92l-0.37-0.58c0.33-0.18,0.62-0.4,0.88-0.67
	c0.15-0.16,0.17-0.4,0.07-0.59l-3.02-7.92c-0.06-0.21-0.23-0.36-0.44-0.38l-1.06,0.07l-0.13-0.67c0.61-0.11,1.21-0.28,1.79-0.5
	c0.58-0.23,1.14-0.5,1.68-0.82c0.41,0.33,0.94,0.73,1.59,1.18l5.17,3.54c0.3,0.23,0.57,0.49,0.81,0.77l0.14,0.17l0.06-0.09l-2.29-6
	c-0.06-0.21-0.24-0.36-0.46-0.38c-0.32-0.01-0.65,0.02-0.96,0.07l-0.23,0.03l-0.14-0.7c0.67-0.15,1.33-0.34,1.98-0.57
	c0.59-0.24,1.16-0.52,1.71-0.84l0.35,0.58c-0.29,0.17-0.56,0.39-0.8,0.63c-0.16,0.16-0.2,0.4-0.11,0.6l2.32,6.09
	c0.32,0.83,0.67,1.67,1.07,2.51l0.2,0.42l-1.6,1c-0.93-0.88-1.93-1.68-3-2.38l-4.96-3.36c-0.3-0.2-0.57-0.43-0.83-0.68l-0.15-0.15
	l-0.06,0.09L130.68,187.11z"/>
<path class="st5" d="M143.59,171.93c-0.1-0.19-0.31-0.25-0.61-0.19l-1.04,0.22l-0.22-0.64c0.6-0.22,1.18-0.48,1.74-0.78
	c0.54-0.3,1.05-0.64,1.53-1.02l0.44,0.52c-0.26,0.19-0.45,0.44-0.57,0.74c-0.03,0.37,0,0.75,0.1,1.11l1.4,9.92l-1.41,0.78
	l-7.48-6.58c-0.27-0.27-0.58-0.49-0.92-0.66c-0.31-0.05-0.63-0.02-0.92,0.09l-0.19-0.66c0.71-0.27,1.4-0.59,2.06-0.96
	c0.71-0.39,1.39-0.83,2.05-1.3l0.43,0.53c-0.26,0.25-0.5,0.51-0.73,0.78c-0.17,0.15-0.21,0.4-0.12,0.6
	c0.03,0.06,0.08,0.12,0.13,0.16l5.17,4.67l0.49,0.53l0.13-0.01l-0.27-0.71l-1.13-6.9C143.66,172.08,143.63,172,143.59,171.93z"/>
<path class="st5" d="M151.64,164.72l0.9,1.19c0.23,0.33,0.45,0.66,0.66,1.01l-0.56,0.57c-0.39-0.45-0.88-0.8-1.43-1.04l-2.65,1.9
	l2.2,3.07l1.6-1.15c0.2-0.11,0.32-0.32,0.31-0.54c-0.06-0.27-0.14-0.54-0.25-0.79l-0.07-0.16l0.65-0.36
	c0.25,0.51,0.55,0.99,0.88,1.45c0.32,0.45,0.68,0.86,1.07,1.25l-0.56,0.49c-0.24-0.22-0.5-0.42-0.78-0.59
	c-0.21-0.09-0.46-0.04-0.62,0.12l-1.6,1.15l2.46,3.41l2.79-2c0.04-0.34,0.01-0.69-0.09-1.02c-0.08-0.39-0.19-0.78-0.32-1.16
	l0.72-0.35c0.18,0.28,0.45,0.72,0.79,1.33c0.24,0.41,0.45,0.83,0.64,1.27l-4.86,3.5c-0.38,0.27-0.94,0.74-1.68,1.4l-0.5-0.46
	c0.52-0.55,0.76-0.94,0.72-1.15c-0.04-0.1-0.09-0.2-0.16-0.29l-4.95-6.88c-0.1-0.19-0.31-0.29-0.52-0.26
	c-0.28,0.06-0.56,0.15-0.82,0.27l-0.18,0.07l-0.27-0.63c0.96-0.55,1.58-0.92,1.86-1.12l3.43-2.46
	C150.85,165.42,151.26,165.08,151.64,164.72z"/>
<path class="st5" d="M162.41,169.35c0.36-0.3,0.59-0.74,0.63-1.21c0.03-0.49-0.16-0.97-0.51-1.32c-0.36-0.4-0.89-0.6-1.43-0.56
	c-0.53,0.02-1.05,0.08-1.57,0.2c-0.55,0.12-0.9,0.19-1.04,0.22c-0.14,0.03-0.39,0.07-0.75,0.11c-0.28,0.04-0.56,0.05-0.83,0.04
	c-0.2-0.02-0.43-0.06-0.71-0.1c-0.54-0.12-1.03-0.42-1.39-0.85c-0.62-0.63-0.89-1.53-0.71-2.39c0.21-0.96,0.73-1.81,1.49-2.44
	c0.84-0.64,1.71-1.22,2.62-1.76c0.28,0.37,0.55,0.75,0.79,1.14c0.35,0.55,0.58,0.94,0.7,1.17l-0.54,0.65
	c-0.46-0.46-0.97-0.87-1.53-1.21c-0.57,0.09-1.1,0.37-1.51,0.78c-0.63,0.51-0.73,1.44-0.21,2.07c0.04,0.05,0.08,0.09,0.12,0.13
	c0.36,0.37,0.89,0.54,1.4,0.45c0.55-0.06,1.09-0.15,1.62-0.27c0.63-0.14,1.1-0.24,1.41-0.29c0.38-0.05,0.76-0.09,1.14-0.1
	c0.82-0.02,1.61,0.33,2.15,0.95c0.72,0.71,1.03,1.74,0.83,2.74c-0.23,1.04-0.8,1.97-1.61,2.66c-0.82,0.76-1.79,1.34-2.85,1.71
	c-0.12-0.1-0.43-0.43-0.95-1c-0.34-0.36-0.66-0.74-0.94-1.15l0.54-0.74c0.5,0.5,1.14,0.85,1.84,0.99
	C161.25,170.06,161.93,169.83,162.41,169.35z"/>
<path class="st5" d="M171.96,160.76c-0.65,0.58-1.27,1.19-1.85,1.84c-0.58,0.65-1.12,1.33-1.62,2.04l-0.61-0.34
	c0.5-0.83,0.71-1.35,0.64-1.57c-0.04-0.1-0.11-0.18-0.2-0.24l-6.48-5.78l-1.51,1.69c0.37,0.58,0.8,1.12,1.27,1.62l-0.77,0.63
	c-0.55-0.37-1.07-0.76-1.57-1.19c-0.37-0.33-0.64-0.58-0.81-0.75c0.46-0.4,0.9-0.82,1.31-1.27l4.04-4.52
	c0.4-0.46,0.77-0.94,1.11-1.45c0.11,0.08,0.32,0.26,0.63,0.54c0.31,0.28,0.83,0.82,1.56,1.62l-0.52,0.82
	c-0.53-0.44-1.12-0.8-1.75-1.08l-1.51,1.69l6.48,5.78c0.11,0.14,0.3,0.19,0.47,0.14c0.38-0.16,0.73-0.37,1.06-0.62l0.22-0.17
	L171.96,160.76z"/>
<path class="st5" d="M168.3,149.2l6.82,5.03c0.08,0.07,0.18,0.12,0.28,0.15c0.1,0.01,0.19-0.01,0.27-0.07
	c0.26-0.13,0.5-0.3,0.72-0.49l0.14-0.13l0.47,0.49c-1.05,1.07-1.94,2.29-2.66,3.61l-0.61-0.3c0.3-0.66,0.4-1.08,0.3-1.27
	c-0.06-0.08-0.14-0.15-0.23-0.21l-6.82-5.03c-0.08-0.07-0.18-0.12-0.28-0.15c-0.09-0.01-0.18,0.01-0.26,0.05
	c-0.26,0.14-0.5,0.3-0.72,0.49l-0.13,0.12l-0.47-0.49c1.05-1.07,1.94-2.29,2.66-3.61l0.61,0.3c-0.32,0.67-0.43,1.1-0.31,1.29
	C168.13,149.07,168.21,149.14,168.3,149.2z"/>
<path class="st5" d="M171.45,141.29c0.71-1.13,1.54-2.19,2.47-3.15c0.79,0.55,1.54,1.16,2.23,1.82l-0.35,0.87
	c-0.66-0.34-1.38-0.54-2.12-0.58c-0.67,0.45-1.21,1.06-1.56,1.78c-0.54,0.86-0.6,1.94-0.16,2.86c0.54,1.08,1.41,1.96,2.47,2.52
	c1.08,0.68,2.35,0.99,3.63,0.9c1.11-0.05,2.12-0.66,2.67-1.63c0.31-0.48,0.46-1.05,0.43-1.62l-1.87-1.09
	c-0.21-0.16-0.51-0.15-0.71,0.02l-0.91,0.92l-0.54-0.5c0.63-0.88,1.13-1.63,1.5-2.26c0.32-0.53,0.59-1.1,0.81-1.69l0.64,0.23
	c-0.06,0.26-0.1,0.53-0.1,0.8c0.01,0.21,0.13,0.4,0.32,0.49l2.68,1.57c-0.28,1.33-0.79,2.6-1.5,3.76c-0.74,1.4-1.98,2.48-3.47,3.03
	c-1.42,0.48-2.99,0.29-4.25-0.53c-1.48-0.79-2.59-2.14-3.07-3.75C170.26,144.44,170.53,142.71,171.45,141.29z"/>
<path class="st5" d="M184.03,139.05c0.19,0.08,0.39,0.01,0.59-0.22l0.65-0.77l0.58,0.35c-0.33,0.54-0.62,1.1-0.87,1.68
	c-0.24,0.61-0.44,1.23-0.61,1.87l-0.67-0.13c0.1-0.34,0.11-0.7,0.04-1.04c-0.2-0.33-0.46-0.62-0.76-0.86l-7.17-6.62
	c0.11-0.53,0.15-1.07,0.11-1.61l10.37,0.26c0.38,0.03,0.77,0.01,1.14-0.08c0.28-0.16,0.51-0.39,0.68-0.67l0.57,0.37
	c-0.39,0.67-0.73,1.36-1.03,2.07c-0.31,0.75-0.57,1.51-0.78,2.29l-0.66-0.16c0.04-0.39,0.06-0.73,0.07-1.02
	c0.01-0.29-0.08-0.47-0.26-0.54c-0.08-0.03-0.16-0.05-0.24-0.04l-2.54-0.11l-1.33,3.2l1.89,1.66
	C183.88,138.98,183.95,139.02,184.03,139.05z M178.44,134.16l2.62,2.33l1.03-2.49l-3.39-0.16l-0.74-0.1l-0.09,0.09L178.44,134.16z"
	/>
<path class="st5" d="M190.89,123.69c-0.33,0.8-0.61,1.63-0.85,2.46c-0.23,0.84-0.42,1.69-0.55,2.54l-0.7-0.04
	c0.08-0.96,0.04-1.53-0.12-1.69c-0.08-0.07-0.18-0.11-0.28-0.13l-8.36-2.33l-0.61,2.18c0.59,0.35,1.21,0.65,1.85,0.89l-0.41,0.9
	c-0.65-0.09-1.3-0.21-1.93-0.38c-0.48-0.13-0.83-0.24-1.06-0.31c0.24-0.56,0.45-1.13,0.62-1.71l1.63-5.83
	c0.15-0.59,0.27-1.19,0.36-1.79c0.13,0.03,0.4,0.1,0.81,0.21c0.4,0.11,1.1,0.37,2.11,0.77l-0.11,0.97c-0.67-0.16-1.36-0.23-2.05-0.2
	l-0.61,2.18l8.36,2.34c0.16,0.07,0.35,0.04,0.48-0.08c0.27-0.31,0.5-0.65,0.68-1.02l0.12-0.25L190.89,123.69z"/>
<path class="st5" d="M182.52,114.93l8.34,1.52c0.1,0.03,0.21,0.03,0.32,0.01c0.09-0.03,0.17-0.1,0.22-0.18
	c0.18-0.23,0.32-0.49,0.43-0.76l0.07-0.18l0.64,0.24c-0.47,1.42-0.74,2.91-0.8,4.41l-0.68,0c-0.02-0.72-0.11-1.15-0.29-1.27
	c-0.09-0.05-0.19-0.08-0.3-0.09l-8.34-1.52c-0.1-0.03-0.21-0.03-0.32-0.01c-0.09,0.03-0.16,0.09-0.21,0.16
	c-0.17,0.24-0.32,0.49-0.43,0.76l-0.06,0.16l-0.64-0.24c0.47-1.42,0.74-2.91,0.8-4.41l0.68,0c0,0.75,0.1,1.18,0.29,1.29
	C182.31,114.88,182.41,114.92,182.52,114.93z"/>
<path class="st5" d="M193.54,107.53c-0.03,1.58-0.67,3.09-1.79,4.21c-1.15,1.03-2.69,1.51-4.22,1.32c-1.61-0.06-3.13-0.74-4.24-1.9
	c-1.1-1.2-1.62-2.81-1.43-4.43c0.03-1.58,0.67-3.09,1.79-4.21c1.15-1.03,2.69-1.51,4.22-1.33c1.61,0.06,3.13,0.74,4.24,1.9
	C193.2,104.31,193.72,105.92,193.54,107.53z M182.85,106.91c-0.14,1.01,0.27,2.02,1.08,2.65c0.97,0.67,2.12,1.04,3.3,1.06
	c1.26,0.12,2.53-0.12,3.65-0.69c0.99-0.48,1.63-1.47,1.67-2.57c0.14-1.01-0.27-2.02-1.08-2.65c-0.97-0.67-2.12-1.04-3.3-1.06
	c-1.26-0.12-2.53,0.12-3.65,0.69C183.53,104.83,182.89,105.81,182.85,106.91z"/>
<path class="st5" d="M191.93,96.75c0.14-0.01,0.27-0.04,0.39-0.1c0.1-0.08,0.17-0.2,0.18-0.33c0.09-0.37,0.16-0.74,0.18-1.12
	l0.03-0.28l0.73,0.08c-0.04,0.71-0.03,1.41,0.02,2.12c0.07,0.72,0.18,1.44,0.33,2.14l-0.66,0.19c-0.08-0.36-0.21-0.71-0.4-1.03
	c-0.12-0.19-0.34-0.28-0.55-0.23l-8.45,0.71c-0.21,0-0.41,0.12-0.49,0.32l-0.22,1.04l-0.68-0.06c0.06-0.62,0.07-1.24,0.02-1.85
	c-0.05-0.62-0.16-1.24-0.33-1.84c0.43-0.3,0.96-0.7,1.57-1.2l4.83-3.99c0.3-0.22,0.63-0.41,0.97-0.56l0.2-0.09l-0.08-0.08
	l-6.39,0.53c-0.22,0-0.41,0.13-0.49,0.33c-0.1,0.31-0.16,0.62-0.2,0.95l-0.03,0.23l-0.71-0.06c0.04-0.68,0.04-1.37,0-2.06
	c-0.07-0.63-0.18-1.26-0.33-1.88l0.66-0.18c0.09,0.33,0.22,0.64,0.38,0.94c0.11,0.19,0.33,0.3,0.55,0.27l6.5-0.54
	c0.89-0.07,1.79-0.18,2.71-0.33l0.46-0.07l0.51,1.82c-1.11,0.65-2.15,1.39-3.12,2.22l-4.6,3.83c-0.27,0.23-0.57,0.43-0.88,0.61
	l-0.18,0.1l0.08,0.08L191.93,96.75z"/>
<circle class="st0" cx="184.66" cy="76.85" r="3.19"/>
<circle class="st0" cx="17.68" cy="76.85" r="3.19"/>
<path class="st6" d="M101.38,170.55"/>
<path class="st6" d="M101.38,112.79"/>
<path class="st4" d="M49.7,100.46c0.18,0.01,0.33-0.14,0.34-0.32c0.01-0.18-0.14-0.33-0.32-0.34s-0.33,0.14-0.34,0.32
	c0,0.01,0,0.01,0,0.02C49.39,100.31,49.52,100.45,49.7,100.46z"/>
<path class="st4" d="M42.96,89.87c0.18,0.01,0.33-0.14,0.34-0.32c0.01-0.18-0.14-0.33-0.32-0.34s-0.33,0.14-0.34,0.32
	c0,0.01,0,0.01,0,0.02C42.65,89.73,42.79,89.87,42.96,89.87z"/>
<path class="st4" d="M75.04,67.1c0.18,0.01,0.33-0.14,0.34-0.32c0.01-0.18-0.14-0.33-0.32-0.34c-0.18-0.01-0.33,0.14-0.34,0.32
	c0,0.01,0,0.01,0,0.02C74.73,66.95,74.87,67.09,75.04,67.1z"/>
<path class="st4" d="M71.19,53.62c0.18,0.01,0.33-0.14,0.34-0.32c0.01-0.18-0.14-0.33-0.32-0.34c-0.18-0.01-0.33,0.14-0.34,0.32
	c0,0.01,0,0.01,0,0.02C70.88,53.48,71.02,53.62,71.19,53.62z"/>
<path class="st4" d="M111.29,49.13c0.18,0.01,0.33-0.14,0.34-0.32c0.01-0.18-0.14-0.33-0.32-0.34c-0.18-0.01-0.33,0.14-0.34,0.32
	c0,0.01,0,0.01,0,0.02C110.98,48.99,111.12,49.13,111.29,49.13z"/>
<path class="st4" d="M141.12,55.87c0.18,0.01,0.33-0.14,0.34-0.32c0.01-0.18-0.14-0.33-0.32-0.34s-0.33,0.14-0.34,0.32
	c0,0.01,0,0.01,0,0.02C140.81,55.72,140.95,55.86,141.12,55.87z"/>
<path class="st4" d="M141.12,87.31c0.18,0.01,0.33-0.14,0.34-0.32c0.01-0.18-0.14-0.33-0.32-0.34s-0.33,0.14-0.34,0.32
	c0,0.01,0,0.01,0,0.02C140.81,87.16,140.95,87.3,141.12,87.31z"/>
<path class="st4" d="M130.86,84.42c0.18,0.01,0.33-0.14,0.34-0.32c0.01-0.18-0.14-0.33-0.32-0.34s-0.33,0.14-0.34,0.32
	c0,0.01,0,0.01,0,0.02C130.55,84.28,130.69,84.41,130.86,84.42z"/>
<path class="st4" d="M156.52,84.42c0.18,0.01,0.33-0.14,0.34-0.32c0.01-0.18-0.14-0.33-0.32-0.34s-0.33,0.14-0.34,0.32
	c0,0.01,0,0.01,0,0.02C156.21,84.28,156.35,84.41,156.52,84.42z"/>
<path class="st4" d="M148.82,103.03c0.18,0.01,0.33-0.14,0.34-0.32c0.01-0.18-0.14-0.33-0.32-0.34s-0.33,0.14-0.34,0.32
	c0,0.01,0,0.01,0,0.02C148.51,102.88,148.65,103.02,148.82,103.03z"/>
<path class="st4" d="M168.07,108.8c0.18,0.01,0.33-0.14,0.34-0.32c0.01-0.18-0.14-0.33-0.32-0.34s-0.33,0.14-0.34,0.32
	c0,0.01,0,0.01,0,0.02C167.76,108.66,167.9,108.8,168.07,108.8z"/>
<path class="st4" d="M45.53,119.71c0.18,0.01,0.33-0.14,0.34-0.32c0.01-0.18-0.14-0.33-0.32-0.34s-0.33,0.14-0.34,0.32
	c0,0.01,0,0.01,0,0.02C45.22,119.56,45.35,119.7,45.53,119.71z"/>
<path class="st4" d="M92.04,34.06c0.18,0.01,0.33-0.14,0.34-0.32c0.01-0.18-0.14-0.33-0.32-0.34c-0.18-0.01-0.33,0.14-0.34,0.32
	c0,0.01,0,0.01,0,0.02C91.73,33.91,91.87,34.05,92.04,34.06z"/>
<path class="st4" d="M45.85,71.4c0.61,0.02,1.12-0.45,1.14-1.06c0.02-0.61-0.45-1.12-1.06-1.14c-0.61-0.02-1.12,0.45-1.14,1.06
	c0,0.03,0,0.05,0,0.08C44.81,70.91,45.27,71.38,45.85,71.4z"/>
<path class="st4" d="M88.51,49.58c0.61,0.02,1.12-0.45,1.14-1.06c0.02-0.61-0.45-1.12-1.06-1.14s-1.12,0.45-1.14,1.06
	c0,0.03,0,0.05,0,0.08C87.47,49.1,87.94,49.56,88.51,49.58z"/>
<path class="st4" d="M63.17,47.98c0.61,0.02,1.12-0.45,1.14-1.06s-0.45-1.12-1.06-1.14c-0.61-0.02-1.12,0.45-1.14,1.06
	c0,0.03,0,0.05,0,0.08C62.13,47.49,62.59,47.96,63.17,47.98z"/>
<path class="st4" d="M134.71,100.91c0.61,0.02,1.12-0.45,1.14-1.06s-0.45-1.12-1.06-1.14s-1.12,0.45-1.14,1.06c0,0.03,0,0.05,0,0.08
	C133.67,100.43,134.13,100.89,134.71,100.91z"/>
<path class="st4" d="M153.31,66.91c0.61,0.02,1.12-0.45,1.14-1.06s-0.45-1.12-1.06-1.14s-1.12,0.45-1.14,1.06c0,0.03,0,0.05,0,0.08
	C152.27,66.42,152.74,66.89,153.31,66.91z"/>
<path class="st4" d="M62.85,102.83c0.61,0.02,1.12-0.45,1.14-1.06s-0.45-1.12-1.06-1.14c-0.61-0.02-1.12,0.45-1.14,1.06
	c0,0.03,0,0.05,0,0.08C61.81,102.35,62.27,102.81,62.85,102.83z"/>
<path class="st4" d="M127.01,41.24c0.61,0.02,1.12-0.45,1.14-1.06s-0.45-1.12-1.06-1.14s-1.12,0.45-1.14,1.06c0,0.03,0,0.05,0,0.08
	C125.97,40.76,126.43,41.22,127.01,41.24z"/>
<path class="st4" d="M157.81,121.44c0.61,0.02,1.12-0.45,1.14-1.06s-0.45-1.12-1.06-1.14s-1.12,0.45-1.14,1.06c0,0.03,0,0.05,0,0.08
	C156.77,120.96,157.23,121.42,157.81,121.44z"/>
<path class="st2" d="M44.37,146.71"/>
<path class="st1" d="M110.28,67.04c0,0-0.01-0.01-0.03-0.01c-0.88,0-3.52-2.86-5.5-3.96s-7.26,0-10.34,0.88s-9.46,3.52-10.12,4.84
	c-0.5,1.01-2.03,4.32-2.73,5.83c10.21-2.97,26.71-6.93,28.5-7.53C110.12,67.07,110.19,67.06,110.28,67.04z"/>
<path class="st7" d="M84.3,82.43c2.2,0,6.16,2.2,9.9,1.32s8.95-1.95,11.44-3.3c1.93-1.04,5.21-4.59,6.82-5.72
	c1.37-0.96,18.26-6.82,19.58-9.24c-1.58,0.99-56.72,16.75-67.81,18.95C69.04,83.9,82.49,82.43,84.3,82.43z"/>
<path class="st8" d="M110.28,67.04c-0.09,0.02-0.16,0.04-0.21,0.06c-1.8,0.6-18.3,4.56-28.5,7.53c0,0-19.27,8.69-19.27,10.01
	c0,0.13,0.69,0.06,1.93-0.19c11.09-2.2,66.23-17.96,67.81-18.95C133.74,64.42,113.12,66.38,110.28,67.04z"/>
</svg>
