<?xml version="1.0" encoding="utf-8"?>
<!-- Generator: Adobe Illustrator 24.2.3, SVG Export Plug-In . SVG Version: 6.00 Build 0)  -->
<svg version="1.1" id="Layer_1" xmlns="http://www.w3.org/2000/svg" xmlns:xlink="http://www.w3.org/1999/xlink" x="0px" y="0px"
	 viewBox="0 0 253.2 253.2" style="enable-background:new 0 0 253.2 253.2;" xml:space="preserve">
<style type="text/css">
	.st0{fill:url(#SVGID_1_);}
	.st1{fill:url(#SVGID_2_);}
	.st2{fill:url(#SVGID_3_);}
	.st3{fill:url(#SVGID_4_);}
	.st4{fill:url(#SVGID_5_);}
	.st5{fill:#FFFFFF;}
</style>
<g>
	
		<linearGradient id="SVGID_1_" gradientUnits="userSpaceOnUse" x1="126.625" y1="246.6525" x2="126.625" y2="8.5975" gradientTransform="matrix(1 0 0 -1 0 254.25)">
		<stop  offset="0" style="stop-color:#3C3C3C"/>
		<stop  offset="1" style="stop-color:#282828"/>
	</linearGradient>
	<path class="st0" d="M28.7,7.6h195.8c11.7,0,21.1,9.5,21.1,21.1v195.8c0,11.7-9.5,21.1-21.1,21.1H28.7c-11.7,0-21.1-9.5-21.1-21.1
		V28.7C7.6,17.1,17.1,7.6,28.7,7.6z"/>
	<g transform="translate(46.0442 507)">
		
			<image style="overflow:visible;enable-background:new    ;" width="457" height="457" id="f" xlink:href="30551EDA552B8928.png"  transform="matrix(0.235 0 0 0.235 18.4179 126.7425)">
		</image>
	</g>
	
		<linearGradient id="SVGID_2_" gradientUnits="userSpaceOnUse" x1="72.1154" y1="28.8028" x2="72.1154" y2="118.8172" gradientTransform="matrix(1 0 0 -1 0 254.25)">
		<stop  offset="0" style="stop-color:#464646"/>
		<stop  offset="1" style="stop-color:#5A5A5A"/>
	</linearGradient>
	<path class="st1" d="M35.8,135.4h72.7c4.8,0,8.7,3.9,8.7,8.7v72.7c0,4.8-3.9,8.7-8.7,8.7H35.8c-4.8,0-8.7-3.9-8.7-8.7v-72.7
		C27.1,139.3,31,135.4,35.8,135.4z"/>
	<g transform="translate(509.0442 507)">
		
			<image style="overflow:visible;enable-background:new    ;" width="457" height="457" id="f_2_" xlink:href="30551EDA552B8929.png"  transform="matrix(0.235 0 0 0.235 127.2229 126.7425)">
		</image>
	</g>
	
		<linearGradient id="SVGID_3_" gradientUnits="userSpaceOnUse" x1="180.9204" y1="28.8028" x2="180.9204" y2="118.8172" gradientTransform="matrix(1 0 0 -1 0 254.25)">
		<stop  offset="0" style="stop-color:#464646"/>
		<stop  offset="1" style="stop-color:#5A5A5A"/>
	</linearGradient>
	<path class="st2" d="M144.6,135.4h72.7c4.8,0,8.7,3.9,8.7,8.7v72.7c0,4.8-3.9,8.7-8.7,8.7h-72.7c-4.8,0-8.7-3.9-8.7-8.7v-72.7
		C135.9,139.3,139.8,135.4,144.6,135.4z"/>
	<g transform="translate(509.0442 50)">
		
			<image style="overflow:visible;enable-background:new    ;" width="457" height="457" id="f_3_" xlink:href="30551EDA552B8936.png"  transform="matrix(0.235 0 0 0.235 127.2229 19.3475)">
		</image>
	</g>
	
		<linearGradient id="SVGID_4_" gradientUnits="userSpaceOnUse" x1="130.4203" y1="152.0488" x2="231.4205" y2="210.3613" gradientTransform="matrix(1 0 0 -1 0 254.25)">
		<stop  offset="0" style="stop-color:#464646"/>
		<stop  offset="1" style="stop-color:#5A5A5A"/>
	</linearGradient>
	<path class="st3" d="M144.6,28h72.7c4.8,0,8.7,3.9,8.7,8.7v72.7c0,4.8-3.9,8.7-8.7,8.7h-72.7c-4.8,0-8.7-3.9-8.7-8.7V36.7
		C135.9,31.9,139.8,28,144.6,28z"/>
	<g transform="translate(46.0442 50)">
		
			<image style="overflow:visible;enable-background:new    ;" width="457" height="457" id="f_4_" xlink:href="30551EDA552B8937.png"  transform="matrix(0.235 0 0 0.235 18.4179 19.3475)">
		</image>
	</g>
	
		<linearGradient id="SVGID_5_" gradientUnits="userSpaceOnUse" x1="42.9591" y1="130.7049" x2="101.2716" y2="231.7051" gradientTransform="matrix(1 0 0 -1 0 254.25)">
		<stop  offset="0" style="stop-color:#464646"/>
		<stop  offset="1" style="stop-color:#5A5A5A"/>
	</linearGradient>
	<path class="st4" d="M35.8,28h72.7c4.8,0,8.7,3.9,8.7,8.7v72.7c0,4.8-3.9,8.7-8.7,8.7H35.8c-4.8,0-8.7-3.9-8.7-8.7V36.7
		C27.1,31.9,31,28,35.8,28z"/>
	<path class="st5" d="M95,66.7H78.7V50.6c0-0.9-0.7-1.6-1.6-1.6h-9.3c-0.9,0-1.6,0.7-1.6,1.6c0,0,0,0,0,0v16.1H50
		c-0.9,0-1.6,0.7-1.6,1.6v9.3c0,0.9,0.7,1.6,1.6,1.6h16.1v16.3c0,0.9,0.7,1.6,1.6,1.6h9.3c0.9,0,1.6-0.7,1.6-1.6V79.2H95
		c0.9,0,1.6-0.7,1.6-1.6v-9.3C96.5,67.4,95.8,66.7,95,66.7z"/>
	<path class="st5" d="M160.2,66.9h41.3c0.8,0,1.5,0.7,1.5,1.5v9.3c0,0.8-0.7,1.5-1.5,1.5h-41.3c-0.8,0-1.5-0.7-1.5-1.5v-9.3
		C158.7,67.6,159.4,66.9,160.2,66.9z"/>
	<path class="st5" d="M94.2,165.9l-7.3-7.3c-0.6-0.6-1.6-0.6-2.2,0L72.4,171l-12.2-12.2c-0.6-0.6-1.6-0.6-2.2,0l-7.3,7.3
		c-0.6,0.6-0.6,1.6,0,2.2l0,0L63,180.5l-12.2,12.2c-0.6,0.6-0.6,1.6,0,2.2l0,0l7.3,7.3c0.6,0.6,1.6,0.6,2.2,0l0,0l12.2-12.2
		l12.4,12.4c0.6,0.6,1.6,0.6,2.2,0l7.3-7.3c0.6-0.6,0.6-1.6,0-2.2c0,0,0,0,0,0l-12.4-12.4l12.4-12.4
		C94.8,167.5,94.7,166.5,94.2,165.9z"/>
	<path class="st5" d="M159.8,174.5h43c0.8,0,1.5,0.7,1.5,1.5v8.9c0,0.8-0.7,1.5-1.5,1.5h-43c-0.8,0-1.5-0.7-1.5-1.5V176
		C158.3,175.1,159,174.5,159.8,174.5z"/>
	<path class="st5" d="M181,170.5c3.7,0.2,7-2.6,7.2-6.3c0.2-3.7-2.6-7-6.3-7.2s-7,2.6-7.2,6.3c0,0.3,0,0.6,0,0.9
		C174.9,167.6,177.6,170.3,181,170.5z"/>
	<ellipse transform="matrix(0.7075 -0.7067 0.7067 0.7075 -86.323 185.793)" class="st5" cx="181.3" cy="197.2" rx="6.8" ry="6.8"/>
</g>
</svg>
