<?xml version="1.0" encoding="utf-8"?>
<!-- Generator: Adobe Illustrator 23.1.1, SVG Export Plug-In . SVG Version: 6.00 Build 0)  -->
<svg version="1.1" id="Layer_1" xmlns="http://www.w3.org/2000/svg" xmlns:xlink="http://www.w3.org/1999/xlink" x="0px" y="0px"
	 viewBox="0 0 203.93 244" style="enable-background:new 0 0 203.93 244;" xml:space="preserve">
<style type="text/css">
	.st0{fill:#DCDCDC;}
	.st1{fill:#F9F9F9;}
	.st2{fill:#FDFDFD;}
	.st3{font-family:'Buenard-Bold';}
	.st4{font-size:10.7697px;}
	.st5{font-family:'Buenard-Regular';}
	.st6{font-size:6.731px;}
	.st7{font-size:5.3848px;}
	.st8{fill:none;}
</style>
<rect x="30.27" y="27.26" class="st0" width="173.66" height="216.74"/>
<g>
	<g>
		<polygon class="st1" points="0.99,0 0.99,216.74 129.21,216.74 129.21,182.41 174.65,182.41 174.65,0 		"/>
		<polygon class="st2" points="129.21,216.74 174.65,182.41 129.21,182.41 		"/>
	</g>
	<text transform="matrix(1 0 0 1 19.3458 30.8291)" class="st3 st4">The VERS Project</text>
	<text transform="matrix(1 0 0 1 19.3458 42.9491)" class="st5 st6">by Anand Tyagi, Dillon Zhang, </text>
	<text transform="matrix(1 0 0 1 19.3458 51.0191)" class="st5 st6">and Shannon Peng</text>
	<text transform="matrix(1 0 0 1 19.3458 65.5591)" class="st5 st7">In the summer of 2020, Anand, Dillon, and Shannon </text>
	<text transform="matrix(1 0 0 1 19.3458 72.0191)" class="st5 st7">embarked on a bold quest: to build a interactive</text>
	<text transform="matrix(1 0 0 1 19.3458 78.4891)" class="st5 st7">multiplayer experience over the course of two months.</text>
	<text transform="matrix(1 0 0 1 19.3458 91.4091)" class="st5 st7">The goal was to combine the best of virtual escape room and</text>
	<text transform="matrix(1 0 0 1 19.3458 97.8691)" class="st5 st7">immersive theatre — the mentally engaging, rewarding</text>
	<text transform="matrix(1 0 0 1 19.3458 104.3291)" class="st5 st7">challenges of puzzles with the thrill of stepping into a story.</text>
	<text transform="matrix(1 0 0 1 19.3458 117.2591)" class="st5 st7">The resulting experience follows an alien conspiracy theorist</text>
	<text transform="matrix(1 0 0 1 19.3458 123.7191)" class="st5 st7">as they attempt to break into Area 51. The experience has two</text>
	<text transform="matrix(1 0 0 1 19.3458 130.1791)" class="st5 st7">pieces: a Zoom call with a live actor and a web portal built</text>
	<text transform="matrix(1 0 0 1 19.3458 136.6391)" class="st5 st7">using React and Socket.</text>
	<text transform="matrix(1 0 0 1 19.3458 149.5691)" class="st5 st7">If you are reading this now, we hope you are enjoying the</text>
	<text transform="matrix(1 0 0 1 19.3458 156.0291)" class="st5 st7">experience! But there is no information to be found here,</text>
	<text transform="matrix(1 0 0 1 19.3458 162.4891)" class="st5 st7">unfortunately. Keep looking elsewhere.</text>
	<text transform="matrix(1 0 0 1 19.3458 175.4091)" class="st5 st7">Nice thinking though. ;-)</text>
	<text transform="matrix(1 0 0 1 19.3458 188.3391)" class="st5 st7">-Anand, Dillon, and Shannon</text>
	<text transform="matrix(1 0 0 1 19.3458 194.7991)" class="st5 st7">August 2020</text>
</g>
<polygon class="st8" points="0,30.78 0.83,30.78 0.83,30.78 "/>
</svg>
