<?xml version="1.0" encoding="utf-8"?>
<!-- Generator: Adobe Illustrator 23.1.1, SVG Export Plug-In . SVG Version: 6.00 Build 0)  -->
<svg version="1.1" id="Layer_1" xmlns="http://www.w3.org/2000/svg" xmlns:xlink="http://www.w3.org/1999/xlink" x="0px" y="0px"
	 viewBox="0 0 239.71 192" style="enable-background:new 0 0 239.71 192;" xml:space="preserve">
<style type="text/css">
	.st0{opacity:0.5;}
	.st1{fill:url(#SVGID_1_);}
	.st2{fill:url(#SVGID_2_);}
	.st3{fill:url(#SVGID_3_);}
	.st4{fill:url(#SVGID_4_);}
	.st5{fill:url(#SVGID_5_);}
	.st6{fill:url(#SVGID_6_);}
	.st7{fill:url(#SVGID_7_);}
	.st8{fill:url(#SVGID_8_);}
	.st9{fill:#FFFFFF;}
</style>
<g class="st0">
	
		<linearGradient id="SVGID_1_" gradientUnits="userSpaceOnUse" x1="104.8714" y1="788.136" x2="237.582" y2="1017.9976" gradientTransform="matrix(1 0 0 1 0 -832)">
		<stop  offset="0" style="stop-color:#929292"/>
		<stop  offset="1" style="stop-color:#818181"/>
	</linearGradient>
	<path class="st1" d="M235.2,173.05l-0.29,8.55c0,2.09-0.63,4.03-1.69,5.66c1.24-1.81,1.98-4.01,1.98-6.39V173.05z"/>
	
		<linearGradient id="SVGID_2_" gradientUnits="userSpaceOnUse" x1="84.5893" y1="799.8459" x2="217.2999" y2="1029.7075" gradientTransform="matrix(1 0 0 1 0 -832)">
		<stop  offset="0" style="stop-color:#929292"/>
		<stop  offset="1" style="stop-color:#818181"/>
	</linearGradient>
	<path class="st2" d="M17.97,38.15v-9.42c0-2.46,2.01-4.48,4.48-4.48h199.3c2.46,0,4.48,2.01,4.48,4.48v0.95h3.09
		c2.18,0,4.2,0.68,5.88,1.84v-9.16c0-6.12-4.86-11.13-10.8-11.13H94.5V5.56C94.5,2.5,92.07,0,89.1,0H30.3c-2.97,0-5.4,2.5-5.4,5.56
		v5.67h-9c-5.94,0-10.8,5.01-10.8,11.12v17.21c1.55-0.93,3.36-1.47,5.29-1.47L17.97,38.15z"/>
	
		<linearGradient id="SVGID_3_" gradientUnits="userSpaceOnUse" x1="84.5781" y1="799.8524" x2="217.2887" y2="1029.714" gradientTransform="matrix(1 0 0 1 0 -832)">
		<stop  offset="0" style="stop-color:#929292"/>
		<stop  offset="1" style="stop-color:#818181"/>
	</linearGradient>
	<path class="st3" d="M221.75,24.25H22.45c-2.47,0-4.48,2.02-4.48,4.48v9.42l69.14,0.54l1.94-2.71c1.71-2.38,4.05-4.27,6.79-5.34
		c2.26-0.88,4.1-0.96,8.2-0.96h122.19v-0.95C226.23,26.26,224.21,24.25,221.75,24.25z"/>
	
		<linearGradient id="SVGID_4_" gradientUnits="userSpaceOnUse" x1="93.1682" y1="814.731" x2="212.0066" y2="1020.5651" gradientTransform="matrix(1 0 0 1 0 -832)">
		<stop  offset="0.283" style="stop-color:#FCFCFC"/>
		<stop  offset="1" style="stop-color:#F8F8F8"/>
	</linearGradient>
	<path class="st4" d="M221.75,24.25H22.45c-2.47,0-4.48,2.02-4.48,4.48v9.42l69.14,0.54l1.94-2.71c1.71-2.38,4.05-4.27,6.79-5.34
		c2.26-0.88,4.1-0.96,8.2-0.96h122.19v-0.95C226.23,26.26,224.21,24.25,221.75,24.25z"/>
	
		<linearGradient id="SVGID_5_" gradientUnits="userSpaceOnUse" x1="50.6945" y1="819.4151" x2="183.405" y2="1049.2767" gradientTransform="matrix(1 0 0 1 0 -832)">
		<stop  offset="0" style="stop-color:#929292"/>
		<stop  offset="1" style="stop-color:#818181"/>
	</linearGradient>
	<path class="st5" d="M235.2,173.05V31.52c-1.68-1.16-3.7-1.84-5.88-1.84h-3.09v148.1c0,2.46-2.02,4.47-4.48,4.47H22.45
		c-2.46,0-4.48-2.01-4.48-4.48V38.15l-7.58-0.06c-1.93,0-3.74,0.54-5.29,1.47v141.31c0,6.12,4.86,11.12,10.8,11.12h208.5
		c3.63,0,6.86-1.88,8.82-4.73c1.06-1.63,1.69-3.57,1.69-5.66L235.2,173.05z"/>
	
		<linearGradient id="SVGID_6_" gradientUnits="userSpaceOnUse" x1="53.6263" y1="817.7224" x2="186.3369" y2="1047.584" gradientTransform="matrix(1 0 0 1 0 -832)">
		<stop  offset="0" style="stop-color:#929292"/>
		<stop  offset="1" style="stop-color:#818181"/>
	</linearGradient>
	<path class="st6" d="M95.84,30.64c-2.74,1.07-5.08,2.96-6.79,5.34l-1.94,2.71l-69.14-0.54v139.62c0,2.47,2.02,4.48,4.48,4.48h199.3
		c2.46,0,4.48-2.01,4.48-4.47V29.68H104.04C99.94,29.68,98.1,29.76,95.84,30.64z"/>
	
		<linearGradient id="SVGID_7_" gradientUnits="userSpaceOnUse" x1="62.2165" y1="832.6011" x2="181.0549" y2="1038.4351" gradientTransform="matrix(1 0 0 1 0 -832)">
		<stop  offset="0.283" style="stop-color:#FCFCFC"/>
		<stop  offset="1" style="stop-color:#F8F8F8"/>
	</linearGradient>
	<path class="st7" d="M95.84,30.64c-2.74,1.07-5.08,2.96-6.79,5.34l-1.94,2.71l-69.14-0.54v139.62c0,2.47,2.02,4.48,4.48,4.48h199.3
		c2.46,0,4.48-2.01,4.48-4.47V29.68H104.04C99.94,29.68,98.1,29.76,95.84,30.64z"/>
	<linearGradient id="SVGID_8_" gradientUnits="userSpaceOnUse" x1="59.305" y1="1.8096" x2="189.3281" y2="227.0164">
		<stop  offset="0" style="stop-color:#C9C9C9"/>
		<stop  offset="1" style="stop-color:#878787"/>
	</linearGradient>
	<path class="st8" d="M235.2,31.52c-1.68-1.16-3.7-1.84-5.88-1.84h-3.09H104.04c-4.1,0-5.94,0.08-8.2,0.96
		c-2.74,1.07-5.08,2.96-6.79,5.34l-1.94,2.71l-69.14-0.54l-7.58-0.06c-1.93,0-3.74,0.54-5.29,1.47C2.05,41.38,0,44.7,0,48.48
		l4.8,133.13c0,5.72,4.68,10.39,10.39,10.39h209.32c3.64,0,6.85-1.89,8.71-4.74c1.06-1.63,1.69-3.57,1.69-5.66l0.29-8.55
		l4.51-132.98C239.71,36.53,237.92,33.4,235.2,31.52z"/>
</g>
<g>
	<path class="st9" d="M142.98,149.27c-15.64,0-31.28,0-46.92,0c-0.07-0.03-0.15-0.08-0.22-0.09c-2.5-0.42-4.28-1.79-5.34-4.08
		c-0.29-0.64-0.42-1.35-0.63-2.02c0-11.68,0-23.37,0-35.05c0.03-0.09,0.07-0.18,0.1-0.27c0.28-0.81,0.45-1.69,0.88-2.42
		c1.4-2.4,3.57-3.52,6.34-3.51c14.21,0.01,28.41,0,42.62,0c0.87,0,1.74-0.08,2.59,0.03c0.91,0.11,1.87,0.26,2.69,0.64
		c2.74,1.3,4.08,3.56,4.08,6.59c0.01,10.97,0,21.93,0,32.9c0,0.2,0,0.4-0.01,0.6c-0.17,2.44-1.25,4.38-3.36,5.62
		C144.94,148.71,143.92,148.93,142.98,149.27z M119.5,114.96c-0.78,0.2-1.61,0.3-2.34,0.62c-2.04,0.89-3.26,2.49-3.53,4.71
		c-0.29,2.33,0.6,4.19,2.46,5.6c0.14,0.11,0.32,0.29,0.32,0.44c0,1.81-0.04,3.62-0.05,5.44c0,0.56-0.01,1.14,0.07,1.69
		c0.23,1.55,1.67,2.64,3.31,2.55c1.5-0.08,2.84-1.37,2.87-2.87c0.04-2.19,0.02-4.39-0.01-6.59c0-0.31,0.07-0.47,0.32-0.64
		c2.15-1.49,3.06-4.16,2.28-6.65C124.43,116.78,122.13,115.09,119.5,114.96z"/>
	<path class="st9" d="M107.39,98.9c-2.83,0-5.67,0-8.53,0c-0.02-0.09-0.06-0.18-0.06-0.28c-0.17-4.66,0.16-9.26,1.86-13.65
		c2.75-7.12,8.02-11.22,15.47-12.5c5.54-0.96,10.68,0.23,15.32,3.42c3.77,2.6,6.11,6.23,7.43,10.56c1.2,3.93,1.49,7.96,1.35,12.04
		c0,0.13-0.03,0.26-0.05,0.41c-2.86,0-5.7,0-8.6,0c0-0.21-0.01-0.41,0-0.6c0.08-2.55,0.01-5.09-0.6-7.59
		c-0.91-3.77-2.82-6.8-6.44-8.51c-4.46-2.1-9.77-1.22-13.25,2.25c-1.87,1.86-2.82,4.2-3.37,6.73c-0.51,2.34-0.57,4.72-0.5,7.1
		c0,0.17,0,0.33,0,0.5C107.44,98.81,107.42,98.84,107.39,98.9z"/>
</g>
</svg>
