<?xml version="1.0" encoding="utf-8"?>
<!-- Generator: Adobe Illustrator 24.2.3, SVG Export Plug-In . SVG Version: 6.00 Build 0)  -->
<svg version="1.1" id="Layer_1" xmlns="http://www.w3.org/2000/svg" xmlns:xlink="http://www.w3.org/1999/xlink" x="0px" y="0px"
	 viewBox="0 0 228.3 228.3" style="enable-background:new 0 0 228.3 228.3;" xml:space="preserve">
<style type="text/css">
	.st0{fill:url(#SVGID_1_);}
	.st1{fill:#FFFFFF;}
</style>
<linearGradient id="SVGID_1_" gradientUnits="userSpaceOnUse" x1="69.385" y1="-7.051" x2="158.8455" y2="238.7399" gradientTransform="matrix(1 0 0 -1 0 230)">
	<stop  offset="0" style="stop-color:#005E4F"/>
	<stop  offset="1" style="stop-color:#00914F"/>
</linearGradient>
<path class="st0" d="M173.3,228.3H55c-30.3,0-55-24.8-55-55V55C0,24.8,24.8,0,55,0h118.2c30.3,0,55,24.8,55,55v118.2
	C228.3,203.5,203.5,228.3,173.3,228.3z"/>
<path class="st1" d="M173.6,57.5H54.7c-8.9,0-16.2,7.2-16.2,16.2v81c0,8.9,7.2,16.2,16.2,16.2h118.8c8.9,0,16.2-7.2,16.2-16.2v-81
	C189.7,64.7,182.5,57.5,173.6,57.5z M180.7,152.5L142,113.9c3.8-3.6,8-7.8,12.6-12.4c10.5-10.6,20.6-21.2,26.1-27.1L180.7,152.5
	L180.7,152.5z M54.7,66.5h118.8c0.7,0,1.4,0.1,2.1,0.3c-4.8,5.1-15.2,16.1-26.2,27.2c-25.2,25.4-32.7,30.3-34.6,31.3
	c-2-0.9-9.6-5.7-35.3-30.6c-12-11.6-23.4-23.1-27.7-27.6C52.7,66.7,53.7,66.5,54.7,66.5z M47.6,75.7c5.6,5.7,16,16.2,26.9,26.7
	c4.4,4.2,8.4,8,12.1,11.4l-39,38.9V75.7z M54.7,161.8c-1.1,0-2.1-0.2-3-0.6l41.4-41.4c1.6,1.4,3.1,2.7,4.5,3.9
	c10.5,8.9,14.3,10.7,17.1,10.7c2.8,0,6.7-1.8,17-11c1.2-1,2.4-2.1,3.7-3.3l41.2,41c-0.9,0.5-2,0.7-3.1,0.7L54.7,161.8L54.7,161.8z"
	/>
</svg>
