<?xml version="1.0" encoding="utf-8"?>
<!-- Generator: Adobe Illustrator 24.2.3, SVG Export Plug-In . SVG Version: 6.00 Build 0)  -->
<svg version="1.1" id="Layer_1" xmlns="http://www.w3.org/2000/svg" xmlns:xlink="http://www.w3.org/1999/xlink" x="0px" y="0px"
	 viewBox="0 0 248 248" style="enable-background:new 0 0 248 248;" xml:space="preserve">
<style type="text/css">
	.st0{fill:url(#SVGID_1_);}
	.st1{fill:#FFFFFF;}
</style>
<g>
	
		<linearGradient id="SVGID_1_" gradientUnits="userSpaceOnUse" x1="124" y1="559.44" x2="124" y2="792.56" gradientTransform="matrix(1 0 0 1 0 -552)">
		<stop  offset="0" style="stop-color:#AF27AB"/>
		<stop  offset="1" style="stop-color:#1B2F7F"/>
	</linearGradient>
	<path class="st0" d="M240.6,124c0,64.4-52.2,116.6-116.6,116.6c-26.5,0-70.5-23.8-70.5-23.8c-0.2,0-43.7,8-43.7,8
		S22,180.4,22,180.5c0,0.2-14.6-36-14.6-56.5C7.4,59.6,59.6,7.4,124,7.4S240.6,59.6,240.6,124z"/>
</g>
<path class="st1" d="M124.1,120.1c-5.5,0-10.2,4.7-10.2,10.2c0,4.4,2.9,8.2,6.9,9.5v17.5c0,2,1.6,3.3,3.3,3.3c2,0,3.3-1.6,3.3-3.3
	v-17.5c4-1.3,6.9-5.1,6.9-9.5C134.3,124.7,129.7,120.1,124.1,120.1L124.1,120.1z M124.1,69.7c-11.5,0-20.8,9.5-20.8,20.8v10.9h41.9
	V90.6C145,79.3,135.6,69.7,124.1,69.7L124.1,69.7z M171.1,159.1c0,9.3-7.5,16.9-16.9,16.9H93.7c-9.3,0-16.9-7.5-16.9-16.9v-40.8
	c0-8.4,6.2-15.3,14.2-16.4V90.8c0-18,14.6-32.8,32.8-32.8s33,14.9,33,32.8v11.1c8,1.3,14.2,8.2,14.2,16.4V159.1z"/>
</svg>
