<?xml version="1.0" encoding="utf-8"?>
<!-- Generator: Adobe Illustrator 24.2.3, SVG Export Plug-In . SVG Version: 6.00 Build 0)  -->
<svg version="1.1" id="Layer_1" xmlns="http://www.w3.org/2000/svg" xmlns:xlink="http://www.w3.org/1999/xlink" x="0px" y="0px"
	 viewBox="0 0 248 248" style="enable-background:new 0 0 248 248;" xml:space="preserve">
<style type="text/css">
	.st0{fill:url(#SVGID_1_);}
	.st1{fill:#FFFFFF;}
</style>
<g>
	
		<linearGradient id="SVGID_1_" gradientUnits="userSpaceOnUse" x1="124" y1="3072" x2="124" y2="2824" gradientTransform="matrix(1 0 0 1 0 -2824)">
		<stop  offset="0" style="stop-color:#3C207F"/>
		<stop  offset="1" style="stop-color:#B330C4"/>
	</linearGradient>
	<path class="st0" d="M248,122.2c1,69.3-54.9,125.8-124,125.8c-28.2,0-75-25.3-75.1-25.3c-0.1,0-22,4-35.7,6.6
		c-5,0.9-9.2-3.7-7.9-8.6c3.8-13.9,10.1-36.7,10.1-36.6C15.5,184.3,0,145.8,0,124C0,54.9,56.5-1,125.8,0
		C192.6,0.9,247.1,55.4,248,122.2z"/>
</g>
<path class="st1" d="M124.1,119.8c-5.9,0-10.8,4.9-10.8,10.9c0,4.7,3.1,8.7,7.3,10.1v18.6c0,2.1,1.7,3.5,3.5,3.5
	c2.1,0,3.5-1.6,3.5-3.5v-18.6c4.2-1.4,7.3-5.4,7.3-10.1C135,124.8,130,119.8,124.1,119.8L124.1,119.8z M124.1,66.3
	c-12.3,0-22.2,10.1-22.2,22.2V100h44.6V88.4C146.3,76.4,136.4,66.3,124.1,66.3L124.1,66.3z M174.1,161.3c0,9.9-8,17.9-17.9,17.9
	H91.8c-9.9,0-17.9-8-17.9-17.9v-43.4c0-9,6.6-16.3,15.1-17.5V88.7c0-19.1,15.6-34.9,34.9-34.9S159,69.6,159,88.7v11.8
	c8.5,1.4,15.1,8.7,15.1,17.5V161.3z"/>
</svg>
