<?xml version="1.0" encoding="utf-8"?>
<!-- Generator: Adobe Illustrator 23.1.1, SVG Export Plug-In . SVG Version: 6.00 Build 0)  -->
<svg version="1.1" id="Layer_1" xmlns="http://www.w3.org/2000/svg" xmlns:xlink="http://www.w3.org/1999/xlink" x="0px" y="0px"
	 viewBox="0 0 564.94 563.32" style="enable-background:new 0 0 564.94 563.32;" xml:space="preserve">
<style type="text/css">
	.st0{fill-rule:evenodd;clip-rule:evenodd;fill:#FFFFFF;}
</style>
<path id="path2" class="st0" d="M403.09,293.98L64.71,314.15c-8.06,0-12.09,4.03-12.09,8.06L4.3,487.49
	c-8.93,22.63-2.45,48.43,16.12,64.15c17.84,11.79,40.07,14.84,60.43,8.29l451.16-225.82c23.03-10.7,36.19-35.37,32.23-60.46
	c-4.63-17.36-16.32-31.98-32.23-40.31L80.83,3.72c-20.29-7-42.69-4.01-60.43,8.06C1.38,27.37-5.16,53.58,4.28,76.29l48.35,165.29
	c0,4.03,8.06,8.06,12.09,8.06l338.35,20.14c6.68,0,12.1,5.42,12.1,12.1s-5.42,12.1-12.1,12.1H403.09z"/>
</svg>
