<?xml version="1.0" encoding="utf-8"?>
<!-- Generator: Adobe Illustrator 24.2.3, SVG Export Plug-In . SVG Version: 6.00 Build 0)  -->
<svg version="1.1" id="Layer_1" xmlns="http://www.w3.org/2000/svg" xmlns:xlink="http://www.w3.org/1999/xlink" x="0px" y="0px"
	 viewBox="0 0 209.1 239.9" style="enable-background:new 0 0 209.1 239.9;" xml:space="preserve">
<style type="text/css">
	.st0{fill:url(#SVGID_1_);}
	.st1{fill:url(#SVGID_2_);}
	.st2{fill:url(#SVGID_3_);}
	.st3{fill:url(#SVGID_4_);}
	.st4{fill:url(#SVGID_5_);}
	.st5{opacity:0.5;fill:url(#SVGID_6_);enable-background:new    ;}
</style>
<linearGradient id="SVGID_1_" gradientUnits="userSpaceOnUse" x1="41.9918" y1="169.1082" x2="167.0082" y2="44.0918" gradientTransform="matrix(1 0 0 -1 0 242)">
	<stop  offset="0" style="stop-color:#BE117B"/>
	<stop  offset="1" style="stop-color:#681243"/>
</linearGradient>
<circle class="st0" cx="104.5" cy="135.4" r="88.4"/>
<linearGradient id="SVGID_2_" gradientUnits="userSpaceOnUse" x1="83.007" y1="-298.2656" x2="124.8654" y2="-413.2708" gradientTransform="matrix(1 0 0 -1 0 -236)">
	<stop  offset="0" style="stop-color:#F649B3"/>
	<stop  offset="0.9987" style="stop-color:#B92C75"/>
</linearGradient>
<path class="st1" d="M200.9,94.6c-5.3-12.4-12.8-23.6-22.4-33.2c-0.1-0.1-0.1-0.1-0.2-0.2c1.7-1.7,3.3-3.3,5-5
	c1.5-1.5,2.9-2.9,4.4-4.4c0.7-0.7,1.4-1.4,2.1-2.1l0,0c0.8-0.7,1.4-1.6,1.7-2.6c0.5-1,0.7-2,0.7-3.1s-0.2-2.2-0.7-3.1
	c-0.3-1-0.9-1.9-1.7-2.6c-0.6-0.4-1.1-0.8-1.6-1.3c-1.3-0.7-2.6-1.1-4.1-1.1c-0.7,0.1-1.4,0.2-2.1,0.3c-1.4,0.4-2.6,1.1-3.6,2.1
	c-0.6,0.6-1.2,1.2-1.8,1.7c-1.4,1.4-2.8,2.8-4.2,4.2c-1.7,1.7-3.4,3.4-5.1,5c-0.5,0.5-1,1-1.5,1.5c-6.4-4.7-13.3-8.5-20.7-11.7
	c-10.4-4.4-21.4-7.1-32.6-7.9l0.1-16c0.7,0,1.4,0,2.1,0c1.5,0,3,0,4.5,0c1.1,0,2.2,0,3.2,0c0.5,0,1,0,1.5,0c0,0,0,0,0.1,0
	c1,0,2-0.2,2.9-0.6c0.9-0.3,1.7-0.8,2.4-1.6c0.7-0.7,1.2-1.5,1.6-2.4c0.5-0.9,0.7-1.9,0.6-2.9c-0.1-0.7-0.2-1.3-0.3-2
	c-0.4-1.3-1-2.4-1.9-3.3c-0.5-0.4-1-0.8-1.5-1.2c-1.2-0.7-2.4-1-3.8-1c-0.3,0-0.7,0-1.1,0c-0.9,0-1.9,0-2.8,0c-1.4,0-2.8,0-4.2,0
	c-1.7,0-3.4,0-5.1,0c-1.9,0-3.8,0-5.6,0c-1.9,0-3.8,0-5.7,0c-1.8,0-3.5,0-5.3,0c-1.5,0-3,0-4.5,0c-1.1,0-2.2,0-3.2,0
	c-0.5,0-1,0-1.5,0c0,0,0,0-0.1,0c-1,0-2,0.2-2.9,0.6c-0.9,0.3-1.7,0.8-2.4,1.5c-0.7,0.7-1.2,1.5-1.6,2.4c-0.5,0.9-0.7,1.9-0.7,2.9
	c0.1,0.7,0.2,1.3,0.3,2c0.4,1.3,1,2.4,1.9,3.3c0.5,0.4,1,0.8,1.5,1.2c1.2,0.7,2.4,1,3.8,1c0.3,0,0.7,0,1.1,0c0.9,0,1.9,0,2.8,0
	c1.4,0,2.8,0,4.2,0c1.2,0,2.3,0,3.4,0l-0.1,16C85,31.9,74,34.5,63.6,38.9C51.1,44.2,40,51.7,30.4,61.3C21,71,13.5,82.2,8.2,94.6
	C2.8,107.5,0,121.2,0,135.3s2.8,27.8,8.2,40.7c5.3,12.4,12.8,23.6,22.4,33.2c9.6,9.6,20.8,17.1,33.2,22.4
	c12.9,5.4,26.6,8.2,40.7,8.2s27.8-2.8,40.7-8.2c12.4-5.3,23.6-12.8,33.2-22.4c9.6-9.6,17.1-20.8,22.4-33.2
	c5.4-12.9,8.2-26.6,8.2-40.7C209.1,121.2,206.4,107.5,200.9,94.6z M186,169.7c-4.4,10.5-10.8,20-18.9,28.1s-17.6,14.5-28.1,18.9
	c-10.9,4.6-22.5,6.9-34.4,6.9s-23.5-2.3-34.4-6.9c-10.5-4.4-20-10.8-28.1-18.9s-14.5-17.6-18.9-28.1c-4.6-10.9-6.9-22.5-6.9-34.4
	s2.3-23.5,6.9-34.4C27.6,90.4,34,81,42.1,72.9S59.7,58.4,70.2,54c10.9-4.6,22.5-6.9,34.4-6.9s23.5,2.3,34.4,6.9
	c10.5,4.5,20,10.8,28.1,18.9S181.6,90.5,186,101c4.6,10.9,6.9,22.5,6.9,34.4S190.6,158.8,186,169.7z"/>
<linearGradient id="SVGID_3_" gradientUnits="userSpaceOnUse" x1="73.453" y1="157.5264" x2="95.3469" y2="97.3736" gradientTransform="matrix(1 0 0 -1 0 242)">
	<stop  offset="0" style="stop-color:#FFDEFF"/>
	<stop  offset="1" style="stop-color:#FFD7FF"/>
</linearGradient>
<path class="st2" d="M108.8,127.5c-0.4-0.4-0.6-0.6-1-1c-0.9-0.9-1.8-1.8-2.7-2.7c-1.3-1.3-2.7-2.7-4-4c-1.6-1.6-3.2-3.2-4.9-4.9
	c-1.8-1.8-3.6-3.6-5.4-5.4s-3.6-3.6-5.4-5.4c-1.7-1.7-3.3-3.3-5-5c-1.4-1.4-2.9-2.9-4.2-4.2c-1-1-2.1-2.1-3.1-3.1
	c-0.5-0.5-1-1-1.4-1.4l-0.1-0.1C70.9,89.5,70,89,69,88.6c-1-0.5-2-0.7-3.2-0.7c-1.1-0.1-2.2,0.2-3.2,0.7c-1,0.4-1.9,0.9-2.6,1.7
	c-0.5,0.5-0.8,1.1-1.3,1.6c-0.7,1.3-1.1,2.6-1.1,4c0.1,0.7,0.2,1.4,0.3,2.2c0.4,1.3,1.1,2.5,2.1,3.6c0.4,0.4,0.6,0.6,1,1
	c0.9,0.9,1.8,1.8,2.7,2.7c1.3,1.3,2.7,2.7,4,4c1.6,1.6,3.2,3.2,4.9,4.9c1.8,1.8,3.6,3.6,5.4,5.4s3.6,3.6,5.4,5.4
	c1.7,1.7,3.3,3.3,5,5c1.4,1.4,2.9,2.9,4.2,4.2c1,1,2.1,2.1,3.1,3.1c0.5,0.4,1,1,1.4,1.4l0.1,0.1c0.7,0.8,1.6,1.4,2.6,1.7
	c1,0.5,2,0.7,3.2,0.7c1.1,0.1,2.2-0.2,3.2-0.7c1-0.4,1.9-0.9,2.6-1.7c0.4-0.5,0.8-1.1,1.3-1.6c0.7-1.3,1.1-2.6,1.1-4.1
	c-0.1-0.7-0.2-1.4-0.3-2.2C110.5,129.7,109.8,128.5,108.8,127.5L108.8,127.5z"/>
<linearGradient id="SVGID_4_" gradientUnits="userSpaceOnUse" x1="48.5" y1="-316.5" x2="48.5" y2="-316.5" gradientTransform="matrix(1 0 0 -1 0 -236)">
	<stop  offset="0" style="stop-color:#ADE0E2"/>
	<stop  offset="1" style="stop-color:#0069D7"/>
</linearGradient>
<path class="st3" d="M48.5,80.5"/>
<linearGradient id="SVGID_5_" gradientUnits="userSpaceOnUse" x1="73.9" y1="-300.8" x2="73.9" y2="-300.8" gradientTransform="matrix(1 0 0 -1 0 -236)">
	<stop  offset="0" style="stop-color:#ADE0E2"/>
	<stop  offset="1" style="stop-color:#0069D7"/>
</linearGradient>
<path class="st4" d="M73.9,64.8"/>
<linearGradient id="SVGID_6_" gradientUnits="userSpaceOnUse" x1="24.5" y1="106.4" x2="186.1" y2="106.4" gradientTransform="matrix(1 0 0 -1 0 242)">
	<stop  offset="0" style="stop-color:#FFDEFF"/>
	<stop  offset="1" style="stop-color:#FFD7FF"/>
</linearGradient>
<path class="st5" d="M105.3,216.4c-21.6,0-41.9-8.4-57.1-23.7s-23.7-35.5-23.7-57.1c0-21.2,8.1-41.1,22.9-56.3l4.3,4.2
	c-13.6,14-21.2,32.5-21.2,52.1c0,20,7.8,38.8,21.9,52.9s32.9,21.9,52.9,21.9s38.8-7.8,52.9-21.9s21.9-32.9,21.9-52.9
	s-7.8-38.8-21.9-52.9s-32.9-21.9-52.9-21.9v-6c21.6,0,41.9,8.4,57.1,23.7s23.7,35.5,23.7,57.1s-8.4,41.9-23.7,57.1
	S126.8,216.4,105.3,216.4z"/>
</svg>
