<?xml version="1.0" encoding="utf-8"?>
<!-- Generator: Adobe Illustrator 23.1.1, SVG Export Plug-In . SVG Version: 6.00 Build 0)  -->
<svg version="1.1" id="Layer_1" xmlns="http://www.w3.org/2000/svg" xmlns:xlink="http://www.w3.org/1999/xlink" x="0px" y="0px"
	 viewBox="0 0 209.12 239.87" style="enable-background:new 0 0 209.12 239.87;" xml:space="preserve">
<style type="text/css">
	.st0{opacity:0.1;fill:#FFFFFF;enable-background:new    ;}
	.st1{fill:url(#SVGID_1_);}
	.st2{fill:url(#SVGID_2_);}
	.st3{fill:url(#SVGID_3_);}
	.st4{fill:url(#SVGID_4_);}
	.st5{opacity:0.25;fill:url(#SVGID_5_);enable-background:new    ;}
</style>
<circle class="st0" cx="104.51" cy="135.41" r="88.38"/>
<linearGradient id="SVGID_1_" gradientUnits="userSpaceOnUse" x1="83.0299" y1="62.2572" x2="124.8883" y2="177.2624">
	<stop  offset="0" style="stop-color:#9CE180"/>
	<stop  offset="1" style="stop-color:#00906F"/>
</linearGradient>
<path class="st1" d="M200.92,94.62c-5.27-12.45-12.81-23.63-22.41-33.23c-0.07-0.07-0.14-0.14-0.21-0.2
	c1.67-1.66,3.34-3.32,5.01-4.97c1.46-1.45,2.93-2.9,4.39-4.36c0.71-0.71,1.43-1.41,2.14-2.12c0.01-0.01,0.02-0.02,0.03-0.03
	c0.79-0.73,1.35-1.6,1.67-2.61c0.51-0.97,0.74-2.01,0.7-3.12c0.04-1.12-0.19-2.16-0.7-3.12c-0.33-1-0.88-1.87-1.67-2.61
	c-0.55-0.42-1.09-0.84-1.64-1.27c-1.26-0.73-2.63-1.1-4.09-1.11c-0.72,0.1-1.44,0.19-2.15,0.29c-1.37,0.38-2.56,1.08-3.57,2.08
	c-0.58,0.58-1.17,1.16-1.75,1.73c-1.4,1.39-2.8,2.78-4.2,4.16c-1.69,1.68-3.39,3.36-5.08,5.04c-0.49,0.48-0.98,0.97-1.47,1.45
	c-6.4-4.65-13.31-8.55-20.66-11.66c-10.42-4.41-21.36-7.06-32.63-7.91l0.08-16.03c0.69,0,1.38,0,2.06,0c1.49,0,2.99,0,4.48,0
	c1.07,0,2.15,0,3.22,0c0.51,0,1.01,0,1.52,0c0.02,0,0.04,0,0.07,0c1.03,0.04,2-0.18,2.89-0.65c0.93-0.3,1.74-0.82,2.42-1.55
	c0.73-0.68,1.25-1.49,1.55-2.42c0.47-0.9,0.69-1.86,0.65-2.89c-0.09-0.67-0.18-1.33-0.27-2c-0.36-1.27-1-2.38-1.93-3.31
	c-0.51-0.39-1.01-0.78-1.52-1.17c-1.17-0.68-2.43-1.02-3.79-1.03c-0.35,0-0.7,0-1.05,0c-0.94,0-1.89,0-2.83,0c-1.4,0-2.81,0-4.21,0
	c-1.7,0-3.41,0-5.11,0c-1.88,0-3.75,0-5.63,0c-1.89,0-3.79,0-5.68,0c-1.76,0-3.52,0-5.27,0c-1.49,0-2.99,0-4.48,0
	c-1.07,0-2.15,0-3.22,0c-0.51,0-1.01,0-1.52,0c-0.02,0-0.04,0-0.07,0c-1.03-0.04-2,0.18-2.89,0.65c-0.93,0.3-1.74,0.82-2.42,1.55
	c-0.73,0.68-1.25,1.49-1.55,2.42c-0.47,0.9-0.69,1.86-0.65,2.89c0.09,0.67,0.18,1.33,0.27,2c0.36,1.27,1,2.38,1.93,3.31
	c0.51,0.39,1.01,0.78,1.52,1.17c1.17,0.68,2.44,1.02,3.79,1.03c0.35,0,0.7,0,1.05,0c0.94,0,1.89,0,2.83,0c1.4,0,2.81,0,4.21,0
	c1.15,0,2.29,0,3.44,0l-0.08,16.04c-11.25,0.86-22.17,3.51-32.58,7.91c-12.45,5.27-23.63,12.8-33.23,22.41
	c-9.6,9.6-17.14,20.78-22.41,33.23C2.77,107.51,0,121.2,0,135.31s2.77,27.81,8.22,40.7c5.27,12.45,12.8,23.63,22.41,33.23
	c9.6,9.6,20.78,17.14,33.23,22.41c12.9,5.45,26.59,8.22,40.7,8.22c14.11,0,27.81-2.77,40.7-8.22c12.45-5.27,23.63-12.8,33.23-22.41
	c9.6-9.6,17.14-20.78,22.41-33.23c5.45-12.9,8.22-26.59,8.22-40.7C209.14,121.22,206.38,107.52,200.92,94.62z M186,169.72
	c-4.45,10.52-10.82,19.97-18.94,28.09c-8.12,8.12-17.57,14.49-28.09,18.94c-10.89,4.61-22.46,6.94-34.39,6.94s-23.5-2.34-34.39-6.94
	c-10.52-4.45-19.97-10.82-28.09-18.94s-14.49-17.57-18.94-28.09c-4.61-10.89-6.94-22.46-6.94-34.39s2.34-23.5,6.94-34.39
	c4.45-10.52,10.82-19.97,18.94-28.09s17.57-14.49,28.09-18.94c10.89-4.61,22.46-6.94,34.39-6.94c11.93,0,23.5,2.34,34.39,6.94
	c10.52,4.45,19.97,10.82,28.09,18.94c8.12,8.12,14.49,17.57,18.94,28.09c4.61,10.89,6.94,22.46,6.94,34.39S190.61,158.83,186,169.72
	z"/>
<linearGradient id="SVGID_2_" gradientUnits="userSpaceOnUse" x1="69.8184" y1="89.3217" x2="98.9399" y2="139.7616">
	<stop  offset="0" style="stop-color:#9CE180"/>
	<stop  offset="1" style="stop-color:#00906F"/>
</linearGradient>
<path class="st2" d="M111.5,128.92c-0.37-0.37-0.74-0.74-1.12-1.12c-1-1-2.01-2.01-3.01-3.01c-1.49-1.49-2.99-2.99-4.48-4.48
	c-1.81-1.81-3.62-3.62-5.43-5.43c-2-2-3.99-3.99-5.99-5.99c-2.01-2.01-4.01-4.01-6.02-6.02c-1.87-1.87-3.74-3.74-5.61-5.61
	c-1.58-1.58-3.16-3.16-4.74-4.74c-1.14-1.14-2.27-2.27-3.41-3.41c-0.54-0.54-1.08-1.08-1.62-1.62c-0.02-0.02-0.05-0.05-0.07-0.07
	c-0.82-0.88-1.78-1.5-2.9-1.86c-1.07-0.56-2.23-0.82-3.47-0.78c-1.24-0.05-2.39,0.21-3.47,0.78c-1.12,0.36-2.08,0.98-2.9,1.86
	c-0.47,0.61-0.94,1.21-1.41,1.82c-0.81,1.4-1.22,2.92-1.23,4.54c0.11,0.8,0.21,1.6,0.32,2.39c0.43,1.52,1.2,2.85,2.31,3.97
	c0.37,0.37,0.74,0.74,1.12,1.12c1,1,2.01,2.01,3.01,3.01c1.49,1.49,2.99,2.99,4.48,4.48c1.81,1.81,3.62,3.62,5.43,5.43
	c2,2,3.99,3.99,5.99,5.99c2.01,2.01,4.01,4.01,6.02,6.02c1.87,1.87,3.74,3.74,5.61,5.61c1.58,1.58,3.16,3.16,4.74,4.74
	c1.14,1.14,2.27,2.27,3.41,3.41c0.54,0.54,1.08,1.08,1.62,1.62c0.02,0.02,0.05,0.05,0.07,0.07c0.82,0.88,1.78,1.5,2.9,1.86
	c1.07,0.56,2.23,0.82,3.47,0.78c1.24,0.05,2.39-0.21,3.47-0.78c1.12-0.36,2.08-0.98,2.9-1.86c0.47-0.61,0.94-1.21,1.41-1.82
	c0.81-1.4,1.22-2.92,1.23-4.54c-0.11-0.8-0.21-1.6-0.32-2.39C113.38,131.37,112.61,130.04,111.5,128.92L111.5,128.92z"/>
<linearGradient id="SVGID_3_" gradientUnits="userSpaceOnUse" x1="48.5301" y1="80.5246" x2="48.5301" y2="80.5246">
	<stop  offset="0" style="stop-color:#ADE0E2"/>
	<stop  offset="1" style="stop-color:#0069D7"/>
</linearGradient>
<path class="st3" d="M48.53,80.52"/>
<linearGradient id="SVGID_4_" gradientUnits="userSpaceOnUse" x1="73.8801" y1="64.7946" x2="73.8801" y2="64.7946">
	<stop  offset="0" style="stop-color:#ADE0E2"/>
	<stop  offset="1" style="stop-color:#0069D7"/>
</linearGradient>
<path class="st4" d="M73.88,64.79"/>
<linearGradient id="SVGID_5_" gradientUnits="userSpaceOnUse" x1="79.301" y1="64.3429" x2="132.8981" y2="211.5997">
	<stop  offset="0" style="stop-color:#9CE180"/>
	<stop  offset="1" style="stop-color:#00906F"/>
</linearGradient>
<path class="st5" d="M105.26,216.43c-21.57,0-41.86-8.4-57.11-23.66s-23.66-35.54-23.66-57.11c0-21.15,8.12-41.14,22.86-56.3
	l4.3,4.18c-13.64,14.03-21.16,32.54-21.16,52.12c0,19.97,7.78,38.75,21.9,52.87s32.9,21.9,52.87,21.9c19.97,0,38.75-7.78,52.87-21.9
	s21.9-32.9,21.9-52.87c0-19.97-7.78-38.75-21.9-52.87s-32.9-21.9-52.87-21.9v-6c21.57,0,41.86,8.4,57.11,23.66
	s23.66,35.54,23.66,57.11c0,21.57-8.4,41.86-23.66,57.11S126.83,216.43,105.26,216.43z"/>
</svg>
