<?xml version="1.0" encoding="utf-8"?>
<!-- Generator: Adobe Illustrator 23.1.1, SVG Export Plug-In . SVG Version: 6.00 Build 0)  -->
<svg version="1.1" id="Layer_1" xmlns="http://www.w3.org/2000/svg" xmlns:xlink="http://www.w3.org/1999/xlink" x="0px" y="0px"
	 viewBox="0 0 228.29 228.29" style="enable-background:new 0 0 228.29 228.29;" xml:space="preserve">
<style type="text/css">
	.st0{fill:url(#SVGID_1_);}
	.st1{fill:none;}
	.st2{fill:#FFFFFF;}
</style>
<linearGradient id="SVGID_1_" gradientUnits="userSpaceOnUse" x1="41.1218" y1="240.275" x2="187.1699" y2="-12.6879" gradientTransform="matrix(1 0 0 -1 0 227.94)">
	<stop  offset="0" style="stop-color:#33CCFF"/>
	<stop  offset="1" style="stop-color:#2145CB"/>
</linearGradient>
<path class="st0" d="M201.36,228.29H26.93C12.12,228.29,0,216.17,0,201.36V26.93C0,12.12,12.12,0,26.93,0h174.43
	c14.81,0,26.93,12.12,26.93,26.93v174.43C228.3,216.17,216.18,228.29,201.36,228.29z"/>
<g>
	<path class="st1" d="M153.28,134.53c1.12-5.33,1.82-10.81,2.04-16.41h-36.85v32.98h22.96l5.92-16.58h5.93V134.53z"/>
	<path class="st1" d="M97.31,37.37c-19.34,4.09-35.94,15.47-47.09,31.16h25.02C80.71,56.93,87.99,46.47,97.31,37.37z"/>
	<path class="st1" d="M65.24,118.12H35.9c0.68,11.83,3.87,22.98,9.1,32.98h26.61C67.97,140.64,65.69,129.5,65.24,118.12z"/>
	<path class="st1" d="M71.61,76.95H45c-5.23,9.78-8.42,20.93-9.1,32.76h29.34C65.69,98.33,67.74,87.41,71.61,76.95z"/>
	<path class="st1" d="M168.52,151.11h14.78c5.46-9.78,8.64-21.16,9.33-32.98h-28.89c-0.22,5.54-0.88,11.03-1.91,16.41h0.83
		L168.52,151.11z"/>
	<path class="st1" d="M118.47,159.52v31.62c4.89-3.98,9.33-8.32,13.31-12.99l6.65-18.63H118.47z"/>
	<path class="st1" d="M142.35,187.26c1.07-0.41,2.13-0.85,3.18-1.31h-2.75L142.35,187.26z"/>
	<path class="st1" d="M178.07,159.52h-6.57l2.03,5.75C175.13,163.43,176.64,161.51,178.07,159.52z"/>
	<path class="st1" d="M75.02,159.52H50.23c11.15,15.47,27.75,26.84,46.86,31.16C87.76,181.59,80.48,171.12,75.02,159.52z"/>
	<path class="st1" d="M163.03,174.8l-4.9-15.27h-4.4c-1.69,3.68-3.63,7.27-5.78,10.74l-1.49,4.53H163.03z"/>
	<path class="st1" d="M153.73,68.53h24.57c-11.15-15.47-27.52-26.61-46.41-30.94C140.99,46.47,148.5,57.16,153.73,68.53z"/>
	<path class="st1" d="M118.47,36.69v31.62h25.93C138.26,56.25,129.39,45.56,118.47,36.69z"/>
	<path class="st1" d="M118.47,76.95v32.76h36.85c-0.45-11.6-2.96-22.52-7.05-32.76H118.47z"/>
	<path class="st1" d="M84.57,68.31h25.48V37.15C99.36,46.01,90.72,56.48,84.57,68.31z"/>
	<path class="st1" d="M110.05,190.69v-31.16H84.57C90.72,171.35,99.36,182.04,110.05,190.69z"/>
	<path class="st1" d="M183.53,76.95h-26.16c3.64,10.46,5.91,21.38,6.37,32.76h28.89C191.94,97.88,188.76,86.73,183.53,76.95z"/>
	<path class="st1" d="M73.66,109.71h36.4V76.95H80.72C76.61,87.19,74.11,98.33,73.66,109.71z"/>
	<path class="st1" d="M80.71,151.11h29.34v-32.98h-36.4C74.11,129.5,76.61,140.64,80.71,151.11z"/>
	<path class="st2" d="M118.74,200.5l6.78-18.35c-3.98,4.67-2.16,5.01-7.06,8.99v-31.62h14.96l3-8.42h-17.95v-32.98h36.85
		c-0.22,5.59-0.92,6.08-2.04,11.41h8.54c1.03-5.38,1.69-5.87,1.91-11.41h28.89c-0.68,11.83-3.87,23.2-9.33,32.98h-9.78l2.98,8.42
		h1.57c0.09,0.08,1.06-0.1-0.54,1.75l3.13,8.84c4.7-4.89,4.85-6.32,8.33-12.18c0.46-0.45,0.68-0.68,0.91-1.14
		c7.28-12.74,11.37-27.3,11.37-42.77s-4.09-30.25-11.37-42.77c-0.23-0.45-0.45-0.68-0.68-0.91c-15.01-25.7-42.99-42.99-75.07-42.99
		c-31.85,0-59.83,17.29-75.07,42.99c-0.23,0.23-0.45,0.68-0.68,0.91c-7.28,12.51-11.37,27.07-11.37,42.77c0,48,38.9,86.9,86.9,86.9
		 M97.31,37.37c-9.33,9.1-16.61,19.56-22.07,31.16H50.22C61.37,52.84,77.98,41.46,97.31,37.37z M44.99,76.95H71.6
		c-3.87,10.46-5.91,21.38-6.37,32.76H35.89C36.58,97.88,39.76,86.73,44.99,76.95z M35.89,118.12h29.34
		c0.45,11.37,2.73,22.52,6.37,32.98H44.99C39.76,141.1,36.58,129.95,35.89,118.12z M50.23,159.52h24.79
		c5.46,11.6,12.74,22.07,22.07,31.16C77.98,186.37,61.37,174.99,50.23,159.52z M110.05,190.69c-10.69-8.64-19.34-19.34-25.48-31.16
		h25.48V190.69z M110.05,151.11H80.71c-4.09-10.46-6.6-21.61-7.05-32.98h36.4v32.98H110.05z M110.05,109.71h-36.4
		c0.45-11.37,2.96-22.52,7.05-32.76h29.34v32.76H110.05z M110.05,68.31H84.57c6.14-11.83,14.79-22.29,25.48-31.16V68.31z
		 M178.29,68.53h-24.57c-5.23-11.37-12.74-22.07-21.84-30.94C150.77,41.92,167.15,53.07,178.29,68.53z M118.47,68.31V36.69
		c10.92,8.87,19.79,19.56,25.93,31.62H118.47v0.23V68.31z M118.47,109.71V76.95h29.8c4.09,10.24,6.6,21.16,7.05,32.76H118.47z
		 M163.74,109.71c-0.45-11.37-2.73-22.29-6.37-32.76h26.16c5.23,9.78,8.42,20.93,9.1,32.76H163.74z"/>
	<path class="st2" d="M176.66,174.12l-3.13-8.84l-2.03-5.75l-2.98-8.42l-5.87-16.58h-0.83h-8.54h-5.93l-5.92,16.58l-3,8.42
		l-6.65,18.63l-7.53,21.1h6.64h7.51l0.68-2.05l3.28-9.94l0.43-1.31h2.75h17.09h3.99l4.27,13.31h14.67L176.66,174.12z M146.46,174.8
		l1.49-4.53l6.91-20.94l3.27,10.2l4.9,15.27H146.46z"/>
</g>
</svg>
