<?xml version="1.0" encoding="utf-8"?>
<!-- Generator: Adobe Illustrator 24.2.3, SVG Export Plug-In . SVG Version: 6.00 Build 0)  -->
<svg version="1.1" id="Layer_1" xmlns="http://www.w3.org/2000/svg" xmlns:xlink="http://www.w3.org/1999/xlink" x="0px" y="0px"
	 viewBox="0 0 564.9 563.3" style="enable-background:new 0 0 564.9 563.3;" xml:space="preserve">
<style type="text/css">
	.st0{fill-rule:evenodd;clip-rule:evenodd;fill:#96B9A6;}
</style>
<path id="path2" class="st0" d="M403.1,294L64.7,314.1c-8.1,0-12.1,4-12.1,8.1L4.3,487.5c-8.9,22.6-2.5,48.4,16.1,64.2
	c17.8,11.8,40.1,14.8,60.4,8.3L532,334.1c23-10.7,36.2-35.4,32.2-60.5c-4.6-17.4-16.3-32-32.2-40.3L80.8,3.7
	c-20.3-7-42.7-4-60.4,8.1C1.4,27.4-5.2,53.6,4.3,76.3l48.3,165.3c0,4,8.1,8.1,12.1,8.1l338.4,20.1c6.7,0,12.1,5.4,12.1,12.1
	S409.8,294,403.1,294L403.1,294L403.1,294z"/>
</svg>
