<svg xmlns="http://www.w3.org/2000/svg" xmlns:xlink="http://www.w3.org/1999/xlink" viewBox="0 0 253.59463 184.5"><defs><style>.a{fill:url(#a);}.b{fill:url(#b);}.c{fill:#fff;}</style><linearGradient id="a" y1="92.25" x2="253.59463" y2="92.25" gradientUnits="userSpaceOnUse"><stop offset="0" stop-color="#e32369"/><stop offset="1" stop-color="#ff7d3c"/></linearGradient><linearGradient id="b" x1="34.42447" y1="37.01041" x2="230.72736" y2="201.7281" gradientUnits="userSpaceOnUse"><stop offset="0" stop-color="#d9195a"/><stop offset="1" stop-color="#fb6e24"/></linearGradient></defs><title>video-stream</title><rect class="a" width="253.59463" height="184.5" rx="15.71591"/><path class="b" d="M0,78.0359v90.74819A15.76211,15.76211,0,0,0,15.71591,184.5H237.87872a15.76211,15.76211,0,0,0,15.71591-15.71591V52.952C167.90738,117.38658,53.55841,91.37226,0,78.0359Z"/><path class="c" d="M165.6501,90.43372,144.07857,76.94286l-34.361-21.48936q-3.84947-2.40749-7.699-4.81495a4.40766,4.40766,0,0,0-2.65877-.77558c-.08225.00369-.16274.01473-.24415.022-.054.00328-.10763.00964-.16157.01459-.04253.00506-.08534.00875-.1276.01478a4.83123,4.83123,0,0,0-3.74347,2.40173c-.02864.05421-.05094.10968-.07759.16429a4.78361,4.78361,0,0,0-.59864,2.33561v74.66678a5.00388,5.00388,0,0,0,7.45291,4.27678q10.77082-5.87119,21.54165-11.74239l34.3478-18.72308,7.90091-4.30679C169.0171,97.15193,168.70346,92.34328,165.6501,90.43372Z"/><path class="c" d="M70.852,66.17241A26.69134,26.69134,0,0,0,65.389,69.47874c-4.26784,3.21343-8.10407,7.14669-10.306,12.09146a27.878,27.878,0,0,0-1.24427,20.17744A33.27992,33.27992,0,0,0,63.15924,115.764a36.18928,36.18928,0,0,0,7.6928,5.54707c2.77385,1.39652,6.5689.82622,8.132-2.13228,1.42683-2.70056.83263-6.6393-2.13228-8.132-.49708-.25026-.9769-.53865-1.45026-.83046q-.76659-.47259-1.506-.98752-.44874-.31148-.88773-.63671c-.15752-.11666-.31126-.23908-.46995-.35405,1.76523,1.27891.78183.60629.38856.28642a33.09871,33.09871,0,0,1-4.32327-4.20409c-.17272-.20284-.33937-.4104-.50978-.61512-.69212-.83149.90364,1.23021.26469.34593-.32535-.45027-.65-.8993-.95437-1.36432a29.36307,29.36307,0,0,1-1.816-3.28026c-.50265-1.03461.53567,1.40691.13068.32134-.10594-.284-.21753-.56523-.31784-.85136q-.30674-.875-.54008-1.77341c-.16023-.61811-.27522-1.24169-.39812-1.86759-.23675-1.20582.13543,1.52114.03436.28271-.03646-.44669-.08145-.89113-.102-1.33914q-.04722-1.03007,0-2.06172.02313-.50217.06917-1.00294c.05074-.54963.403-1.37623-.05286.28455.356-1.297.52895-2.60691.98953-3.88515.09981-.277.224-.54823.31784-.82687-.58379,1.73325-.33449.78767-.13068.35745q.36437-.76918.788-1.50834.41166-.7192.87494-1.40718.22659-.337.46464-.66606c.864-1.195-.7526.90182-.12226.14789a32.44646,32.44646,0,0,1,4.31723-4.26662c.3771-.31026,1.13881-.73509-.52149.39888.22661-.15477.44148-.32956.66468-.48954q.5457-.39115,1.10743-.75928.9309-.61009,1.90332-1.1537a19.0823,19.0823,0,0,1,1.78766-.90381,5.93382,5.93382,0,0,0,2.73145-3.55209,6.07432,6.07432,0,0,0-.59917-4.57992A5.9992,5.9992,0,0,0,75.432,65.57324a6.98227,6.98227,0,0,0-4.57992.59917Z"/><path class="c" d="M56.23382,41.10387a41.65876,41.65876,0,0,0-11.38028,5.37254A48.52267,48.52267,0,0,0,26.69925,67.371a59.39417,59.39417,0,0,0-2.697,39.54212,55.677,55.677,0,0,0,16.96892,26.49967,55.69487,55.69487,0,0,0,13.648,9.099c.53406.23691,1.07488.45985,1.61465.68308a5.94911,5.94911,0,0,0,4.57991-.59917,5.94328,5.94328,0,0,0,2.13229-8.132,7.0035,7.0035,0,0,0-3.5521-2.73145c1.58353.65488,1.61481.7113.54985.20468-.745-.35439-1.47686-.73656-2.199-1.1353q-1.67385-.92425-3.27616-1.971-.9756-.635-1.92438-1.31-.49234-.35021-.97714-.71087c-.154-.11451-.30637-.23106-.46012-.34584-.82727-.61754,1.24079.97848.42485.32773a55.74146,55.74146,0,0,1-8.646-8.49943c-.15878-.1964-.31165-.39795-.47211-.59293,1.2644,1.5364.5127.66753.22975.28925q-.54582-.7297-1.0648-1.47893-1.03221-1.49048-1.95264-3.05437-.92063-1.56587-1.72115-3.19843c-.27458-.56029-.53213-1.12772-.78983-1.69584-.55192-1.21677.44354,1.11765.0831.20791-.12743-.32163-.25834-.64172-.38238-.96472a48.44723,48.44723,0,0,1-2.31774-8.09409c-.13765-.70588-.253-1.41487-.3675-2.12476-.1723-1.06811.15149,1.32233.02763.23766-.05209-.45626-.10718-.912-.15184-1.36906q-.23478-2.40273-.25515-4.81991-.024-2.48622.15216-4.96956.0753-1.05093.18887-2.09867c.03074-.28334.20243-1.62541.05963-.56853-.14353,1.06232.046-.27724.08776-.53921a48.62323,48.62323,0,0,1,2.02374-8.17285q.30663-.89075.65051-1.76805c.10373-.26466.21521-.5263.31882-.79094.22986-.58709-.38269.88689-.32507.77248.10356-.20561.18682-.42594.28194-.636q.75151-1.65991,1.64138-3.25233.8159-1.45751,1.746-2.84716.44862-.67.923-1.32231c.16725-.23006.3412-.45519.50859-.68508.501-.688-.98127,1.22214-.26461.35008A46.607,46.607,0,0,1,45.90732,60.613q1.03461-.96711,2.13062-1.86567c.66927-.54872,1.30528-.98762-.02477-.00363.36322-.26871.72159-.5433,1.08869-.80686a44.69478,44.69478,0,0,1,7.402-4.31207c.23923-.10986.48025-.21552.72068-.32271,1.13894-.50777-1.47616.59682-.60619.25488.38907-.15293.77581-.31075,1.16814-.45539.46688-.17212.93953-.322,1.41159-.47816.06437-.0213.13043-.03907.19587-.05689a5.94512,5.94512,0,1,0-3.1601-11.46262Z"/><path class="c" d="M176.74286,76.4367a25.91244,25.91244,0,0,1,4.96273,2.93535c.16746.12165.32953.2543.50036.371-1.6603-1.134-.89859-.70914-.52149-.39888.3502.28814.7012.57425,1.04225.87335a28.37,28.37,0,0,1,2.26484,2.2172c.34857.38249.67835.77923,1.01014,1.17607.68482.81909-.90577-1.24056-.28062-.36439.15657.21945.31692.43575.46994.65777a22.55947,22.55947,0,0,1,1.816,3.14031c.20381.43022.45311,1.3758-.13068-.35745.09385.27864.218.54986.31784.82687q.30757.85359.54008,1.73178c.16078.60774.275,1.22118.39812,1.83691.23907,1.19582-.13666-1.52779-.03435-.29642.03689.444.08147.88587.102,1.33127q.04743,1.03007,0,2.06172-.02316.50484-.06917,1.00827c-.04956.54095-.39753,1.39524.05286-.27226-.35692,1.32144-.53233,2.65724-.98953,3.96142-.10031.28613-.2119.56738-.31784.85136-.405,1.08557.63333-1.356.13068-.32134-.25613.52721-.50606,1.0547-.788,1.56906a29.38815,29.38815,0,0,1-1.98237,3.07552c-.63894.88428.95682-1.17742.26469-.34593-.17041.20472-.33706.41228-.50978.61512q-.50469.5927-1.03912,1.15919-1.08061,1.14673-2.268,2.18623c-.38686.33969-.78465.66515-1.18179.99255-.36674.30232-1.13472.8033.55417-.4203-.21.15216-.4137.31349-.623.46678q-.92994.68114-1.90332,1.30038c-.58105.36854-1.17245.73185-1.78766,1.04158a5.9829,5.9829,0,0,0-2.13228,8.132,6.08828,6.08828,0,0,0,8.132,2.13228,36.10687,36.10687,0,0,0,6.49806-4.51757,32.75562,32.75562,0,0,0,9.271-11.93118A28.05394,28.05394,0,0,0,199.756,84.63516a30.222,30.222,0,0,0-9.32056-13.41584,32.64325,32.64325,0,0,0-7.6928-5.04691,6.52575,6.52575,0,0,0-4.57992-.59917,6.06178,6.06178,0,0,0-3.55209,2.73145c-1.34746,2.55035-.92144,6.82993,2.13228,8.132Z"/><path class="c" d="M194.20071,52.56649a26.544,26.544,0,0,1,2.7756.99044c.93453.37-1.72764-.75416-.65964-.2782.2582.11507.51722.228.77413.346q.83288.38247,1.64879.80053,1.94018.99287,3.77783,2.17111,1.04517.66963,2.0526,1.39589c.31413.22655.62144.462.93323.69158.63436.46721-1.31307-1.042-.49746-.38084.18327.14856.36846.29468.5509.44429a43.26726,43.26726,0,0,1,4.24143,3.98071c.71444.76789,1.38689,1.56785,2.0526,2.37777.65875.80143-.56268-.75717-.338-.4462.16616.23.34229.453.50983.682q.51224.70029.99513,1.4215a42.34232,42.34232,0,0,1,3.38735,6.09949c.07638.16879.14642.34093.226.50815.26933.56574-.36979-.89611-.32323-.77509.1018.26457.21639.52463.32072.78831q.37287.94242.70269,1.90119.66494,1.9316,1.15768,3.91675.52555,2.10784.86607,4.2561c.05272.33035.09141.66384.1489.99328-.0122-.06994-.19254-1.5667-.08013-.56923.01925.17082.04033.34143.05944.51228q.13667,1.22169.22027,2.44846a58.14667,58.14667,0,0,1-.11522,9.61109q-.0585.60034-.1313,1.19918c-.02047.1693-.04551.33842-.06368.508-.00879.08208.20642-1.39889.09537-.7423-.1293.76447-.24365,1.53-.3921,2.29131q-.41286,2.11736-1.00955,4.19325-.56985,1.9773-1.30819,3.90084c-.10644.277-.21744.55209-.32687.82791-.45554,1.14818.49448-1.10511.08636-.204-.2774.61247-.55263,1.22484-.84859,1.82877a48.45175,48.45175,0,0,1-3.6738,6.2528q-.482.69627-.98767,1.37582c-.15677.2107-.86365,1.13223-.15591.21411.68825-.89285.00516-.016-.16358.19268q-1.04279,1.29-2.16693,2.5112a54.51267,54.51267,0,0,1-4.40476,4.274c-.678.58812-1.37358,1.1536-2.07429,1.71422-.8639.69119,1.154-.86986.502-.38631-.15459.11464-.30677.2326-.461.34772q-.52227.38979-1.05338.76757-1.7882,1.27192-3.67227,2.40166a46.70734,46.70734,0,0,1-4.35545,2.3045c-.79077.36626,1.23631-.51861,1.178-.49452a6.54246,6.54246,0,0,0-3.5521,2.73145,6.06908,6.06908,0,0,0-.59916,4.57991c.89151,2.75488,4.2348,5.4236,7.31136,4.15127a55.51866,55.51866,0,0,0,13.02909-7.936,56.71074,56.71074,0,0,0,17.85156-24.29468,55.75567,55.75567,0,0,0,3.48745-19.146,58.72729,58.72729,0,0,0-2.88754-19.5538,49.84037,49.84037,0,0,0-17.96166-24.31087A43.01921,43.01921,0,0,0,197.57094,41.165c-.0702-.01985-.13973-.042-.21013-.06117a5.94512,5.94512,0,0,0-3.1601,11.46262Z"/></svg>