<?xml version="1.0" encoding="utf-8"?>
<!-- Generator: Adobe Illustrator 24.2.3, SVG Export Plug-In . SVG Version: 6.00 Build 0)  -->
<svg version="1.1" id="Layer_1" xmlns="http://www.w3.org/2000/svg" xmlns:xlink="http://www.w3.org/1999/xlink" x="0px" y="0px"
	 viewBox="0 0 100 100" style="enable-background:new 0 0 100 100;" xml:space="preserve">
<style type="text/css">
	.st0{fill:#FFFFFF;}
</style>
<path class="st0" d="M43.7,18.1c-0.7-0.3-1.5-0.2-2.1,0.5L23.5,36.7c0,0-0.2,0-13.7,0c-2.7,0-4.8,2.1-4.8,4.7v17.1
	c0,2.5,2.1,4.8,4.8,4.8h13.7l18.1,17.9c0.4,0.4,0.8,0.7,1.3,0.7c1.1,0,1.9-1.1,1.9-2.1V20C44.8,19.1,44.4,18.4,43.7,18.1z"/>
<path class="st0" d="M58.7,67.5c-1,0-1.9-0.6-2.3-1.5c-0.5-1.3,0.1-2.7,1.4-3.3c0.3-0.1,6.8-3.1,6.8-12.8c0-9.3-6.9-12.9-7-12.9
	c-1.2-0.6-1.7-2.1-1.1-3.4c0.6-1.2,2.1-1.7,3.4-1.1c0.4,0.2,9.8,5,9.8,17.4c0,13.2-9.5,17.3-9.9,17.4C59.4,67.5,59.1,67.5,58.7,67.5
	z"/>
<path class="st0" d="M71.1,82.4c-1,0-1.9-0.6-2.3-1.6c-0.5-1.3,0.1-2.7,1.4-3.2c0.5-0.2,13.2-5.7,13.2-28.7
	c0-20.1-12.8-26.4-13.3-26.6c-1.2-0.6-1.8-2.1-1.2-3.3c0.6-1.2,2.1-1.8,3.3-1.2c0.7,0.3,16.2,7.7,16.2,31.2
	c0,26.5-15.7,33-16.4,33.3C71.7,82.3,71.4,82.4,71.1,82.4z"/>
</svg>
