<?xml version="1.0" encoding="utf-8"?>
<!-- Generator: Adobe Illustrator 24.2.3, SVG Export Plug-In . SVG Version: 6.00 Build 0)  -->
<svg version="1.1" id="Layer_1" xmlns="http://www.w3.org/2000/svg" xmlns:xlink="http://www.w3.org/1999/xlink" x="0px" y="0px"
	 viewBox="0 0 100 100" style="enable-background:new 0 0 100 100;" xml:space="preserve">
<style type="text/css">
	.st0{fill:#FFFFFF;}
</style>
<path class="st0" d="M43.7,18.1c-0.7-0.3-1.5-0.2-2.1,0.5L23.5,36.7c0,0-0.2,0-13.7,0c-2.7,0-4.8,2.1-4.8,4.7v17.1
	c0,2.5,2.1,4.8,4.8,4.8h13.7l18.1,17.9c0.4,0.4,0.8,0.7,1.3,0.7c1.1,0,1.9-1.1,1.9-2.1V20C44.8,19.1,44.4,18.4,43.7,18.1z"/>
<path class="st0" d="M78.2,50l8.7-8.7c1.6-1.6,1.6-4.1,0-5.7c-1.6-1.6-4.1-1.6-5.7,0l-8.7,8.7l-8.7-8.7c-1.6-1.6-4.1-1.6-5.7,0
	c-1.6,1.6-1.6,4.1,0,5.7l8.7,8.7l-8.7,8.7c-1.6,1.6-1.6,4.1,0,5.7c0.8,0.8,1.8,1.2,2.8,1.2s2-0.4,2.8-1.2l8.7-8.7l8.7,8.7
	c0.8,0.8,1.8,1.2,2.8,1.2s2-0.4,2.8-1.2c1.6-1.6,1.6-4.1,0-5.7L78.2,50z"/>
</svg>
