<?xml version="1.0" encoding="utf-8"?>
<!-- Generator: Adobe Illustrator 23.1.1, SVG Export Plug-In . SVG Version: 6.00 Build 0)  -->
<svg version="1.1" id="Layer_1" xmlns="http://www.w3.org/2000/svg" xmlns:xlink="http://www.w3.org/1999/xlink" x="0px" y="0px"
	 viewBox="0 0 226.17 226.17" style="enable-background:new 0 0 226.17 226.17;" xml:space="preserve">
<style type="text/css">
	.st0{fill:#66FF33;}
</style>
<title>conspiracy-logo</title>
<path d="M113.09,0C50.63,0,0,50.63,0,113.09s50.63,113.09,113.09,113.09s113.09-50.63,113.09-113.09S175.54,0,113.09,0z
	 M90.48,19.58c7.18-6,15.07-11.09,23.5-15.16c14.27,0.08,28.38,2.98,41.52,8.54c1.41,0.6,2.8,1.22,4.17,1.87
	c-0.97,0.01-1.94,0.04-2.91,0.07c-8.92,0.36-17.77,1.8-26.35,4.27c-7.89,2.22-15.47,5.41-22.56,9.51
	c-9.78,5.68-18.23,12.86-25.19,21.8c-7.48,9.6-12.41,20.36-14,32.43c-1.87,14.18,0.65,27.42,10.01,38.69
	c5.84,7.05,13.28,11.6,22.63,12.17c8.22,0.5,15.35-1.99,19.57-9.5c2.79-4.98,2.85-10.77-2.33-14.32c-1.09-0.75-2.8-0.61-4.23-0.86
	c-0.4-0.03-0.8-0.04-1.21-0.01c1.38-1.28,3.8-1.67,5.29-0.97c4.17,1.98,6.28,5.4,6.52,9.9c0.39,7.11-3.07,12.38-8.68,16.21
	c-7.94,5.43-16.7,5.86-25.66,3.15c-11.71-3.54-20.04-11.29-25.89-21.8C58,103.62,56.18,90.7,57.69,77.22
	c1.24-11.05,4.85-21.34,10.32-30.96C73.85,35.99,81.43,27.17,90.48,19.58z M30.99,62.45c0.89-9.12,2.86-18.11,5.87-26.76
	c9.78-9.66,21.31-17.37,33.97-22.73c1.83-0.78,3.68-1.5,5.55-2.17c-3.51,3.67-6.79,7.56-9.81,11.65
	c-6.91,9.32-12.3,19.48-15.76,30.56c-4.9,15.68-5.99,31.61-1.6,47.6c3.87,14.09,11.2,25.99,23.27,34.57
	c8.44,6,17.83,9.27,28.31,8.43c9.2-0.73,17.12-4.19,22.57-11.96c4.44-6.33,5.43-14.4,0.66-20.87c-2.2-2.98-7.88-5.02-10.84-3.14
	c-1.11,0.71-2.06,1.67-3.11,2.53c-0.21-2.58,3.62-4.67,5.79-4.92c6.62-0.78,11.71,4.65,13.42,9.5c2.98,8.48,0.92,16.16-4.52,22.82
	c-9.67,11.81-22.7,14.98-37.19,13.04c-14.76-1.98-26.62-9.47-36.44-20.44c-7.94-8.87-13.33-19.15-16.73-30.5
	C30.76,87.51,29.76,75.08,30.99,62.45L30.99,62.45z M12.96,70.84c0.58-1.38,1.2-2.74,1.84-4.09c0.02,1.2,0.06,2.4,0.12,3.61
	c0.64,13.33,3.43,26.19,8.74,38.45c3.43,7.87,7.94,15.24,13.39,21.88c8.64,10.6,19.11,18.69,31.94,23.51
	c14.79,5.55,29.62,6.08,44.12-0.91c9.25-4.46,16.19-11.36,19.33-21.38c2.64-8.42,2.06-16.5-4.22-23.3
	c-3.72-4.02-8.43-5.87-13.9-4.16c-2.86,0.89-5.06,2.79-5.43,6.04c-0.11,0.92,0.17,1.89,0.29,3.05c-1.37-1.28-1.82-4.16-1.07-5.61
	c2.47-4.84,7.88-7.43,13.2-6.32c8.87,1.75,13.82,7.68,16.34,15.87c2.41,7.85,1.41,15.56-2.01,22.94c-6.54,14.1-18,22.28-32.58,26.39
	c-16.77,4.72-33.03,2.46-48.79-4.38c-11.18-4.85-20.86-11.88-29.36-20.58c-8.43-8.64-15.2-18.46-20.48-29.27
	C4.47,98.24,7.37,84.05,12.96,70.84z M35.86,189.65c-9.74-9.82-17.52-21.41-22.9-34.15c-0.76-1.79-1.47-3.6-2.12-5.43
	c0.55,0.53,1.1,1.05,1.66,1.57c7.57,7.06,16.08,13.03,25.31,17.73c12.24,6.21,25.19,9.89,38.98,10.41
	c11.45,0.43,22.56-1.24,33.08-5.87c14.6-6.42,25.75-16.4,31.36-31.71c3.37-9.19,3.61-18.51-0.31-27.62
	c-3.08-7.18-8.21-12.46-15.87-14.67c-5.6-1.62-12.69-0.67-16.78,5.24c-2.24,3.25-1.87,7.37,1.1,10.03c0.37,0.33,0.64,0.77,1.16,1.39
	c-2.4-0.4-3.7-1.72-4.55-3.58c-2.25-4.89,0.09-10.15,4-13.15c6.54-5.03,13.79-5.23,21.12-2c11.55,5.09,17.24,14.67,19.34,26.61
	c2.3,13.1-0.97,25.16-7.94,36.23c-10.17,16.15-25.09,25.94-43.13,31.36c-15.25,4.58-30.68,4.79-46.27,2.04
	C47.24,193.06,41.48,191.57,35.86,189.65z M118.74,218.68c-2.02,1.14-4.07,2.22-6.14,3.24c-14.35-0.05-28.54-2.95-41.76-8.54
	c-1.34-0.57-2.66-1.16-3.96-1.78c6.79-0.13,13.55-0.86,20.21-2.17c14.92-2.95,28.67-8.62,40.78-17.84
	c15.3-11.65,25.92-26.5,29.47-45.75c2.08-11.3,0.98-22.3-4.19-32.71c-3.97-8-9.78-14.29-18-17.93c-7.99-3.53-16.09-3.99-23.88,0.78
	c-4.47,2.74-7.03,6.81-7.52,12.03c-0.4,4.14,2.44,9.14,6.73,9.51c0.86,0.08,1.75-0.12,2.95-0.22c-1.66,1.37-3.95,1.67-5.91,0.79
	c-7.02-3.25-7.78-13.17-3.39-19.77c4.51-6.79,11.09-10.02,18.95-10.61c12.27-0.93,22.46,3.89,30.76,12.58
	c11.5,12.05,15.76,26.87,15.24,43.21c-0.5,15.75-5.82,29.96-14.59,42.9C145.23,200.06,133.09,210.59,118.74,218.68z M147.88,217.5
	c0.04-0.04,0.08-0.07,0.11-0.11C147.96,217.43,147.92,217.46,147.88,217.5z M195.78,158.27c-0.39,11.07-2.55,21.81-6.16,32.23
	c-9.81,9.73-21.39,17.49-34.12,22.87c-1.86,0.78-3.73,1.51-5.61,2.19c0.03-0.03,0.06-0.06,0.09-0.09
	c9.25-9.2,16.43-19.93,21.7-31.88c6.89-15.63,9.75-31.91,7.26-48.94c-2.14-14.68-7.96-27.66-18.69-38.08
	c-9.37-9.09-20.49-14.42-33.84-13.78c-9.47,0.45-17.61,3.92-23.31,11.86c-4.47,6.24-5.63,14.46-0.79,20.99
	c2.15,2.9,7.66,5.14,10.96,3.1c1.06-0.66,1.94-1.62,3.23-2.73c-0.54,2.36-1.75,3.6-3.5,4.39c-4.85,2.19-10.2,0.11-13.58-4.46
	c-3.62-4.88-4.47-10.39-3.09-16.22c2.47-10.43,9.35-17.1,18.89-21.1c12.49-5.23,24.97-4.18,37.22,1.02
	c13.31,5.65,23.23,15.17,30.71,27.39C192.79,122.77,196.42,140.04,195.78,158.27z M213.37,155.5c-0.56,1.33-1.16,2.64-1.77,3.94
	c-0.04-1.59-0.1-3.19-0.2-4.8c-0.75-12.34-3.34-24.29-8.17-35.66c-6.62-15.6-16.4-28.82-30.42-38.58
	c-11.97-8.33-25.23-12.91-39.94-12.19c-12.73,0.63-23.96,5-32.51,14.86c-5.34,6.16-8.25,13.32-7.76,21.6
	c0.42,7.11,3.34,13.04,9.75,16.4c4.66,2.44,10.39,2.85,14.06-2.43c0.76-1.1,0.66-2.81,0.92-4.24c0.06-0.35-0.02-0.73-0.05-1.23
	c1.31,1.15,1.7,3.82,0.95,5.33c-2.04,4.12-5.42,6.25-9.95,6.46c-7.65,0.34-13.09-3.55-16.81-9.75c-5.6-9.33-5.22-19.18-0.91-28.79
	c6.77-15.12,19.23-23.35,34.83-27.32c10.78-2.75,21.63-2.41,32.4,0.17c19.54,4.67,35.31,15.38,48.32,30.47
	c6.29,7.32,11.6,15.43,15.81,24.12C221.85,128.16,218.95,142.32,213.37,155.5z M215.55,76.43c-0.51-0.49-1.03-0.97-1.55-1.45
	c-12.17-11.23-25.99-19.68-41.9-24.5c-14.97-4.54-30.1-5.3-45.32-1.45c-10.63,2.69-20.2,7.52-28.22,15.12
	c-8.69,8.22-14.53,18.03-15.69,30.13c-1.01,10.53,1.52,20.03,9.62,27.37c4.49,4.07,9.81,6.18,16.01,5.38
	c4.14-0.54,7.44-2.49,9.77-5.98c2.13-3.05,1.64-7.21-1.13-9.69c-0.25-0.23-0.38-0.58-0.79-1.22c2.14,0.34,3.19,1.56,3.83,2.92
	c1.44,3.04,1.3,6.03-0.25,9.16c-3.38,6.8-12.14,9.42-18.73,8.18c-11.95-2.25-19.22-9.96-23.29-20.91
	c-4.75-12.75-3.21-25.28,2.49-37.34c7.4-15.65,19.65-26.39,35.22-33.47c14.21-6.46,29.19-8.87,44.76-7.88
	c10.31,0.65,20.48,2.7,30.24,6.08c9.67,9.78,17.38,21.31,22.73,33.98C214.15,72.69,214.88,74.55,215.55,76.43z"/>
<path class="st0" d="M170.21,93.35c-3.96-31.67-33.78-54.15-65.36-49.3c-34.1,5.23-55.31,36.58-47.48,70.15
	c3.4,14.56,9.94,27.72,18.13,40.1c5.65,8.53,12.01,16.46,20.42,22.49c8.64,6.19,17.91,8.23,27.99,3.75
	c4.74-2.1,8.84-5.17,12.53-8.77c12.14-11.86,20.69-26.1,27.28-41.59c4.1-9.63,6.77-19.63,6.85-31.1
	C170.5,97.77,170.49,95.55,170.21,93.35z"/>
<path d="M64.37,89.55c0,0,2.25,23.72,10.27,31.43c9.07,8.71,19.95,10.27,31.43,10.27c0,0,3.01-16.88-9.07-30.22
	C84.95,87.72,75.25,90.16,64.37,89.55z"/>
<path d="M161.73,89.55c0,0-2.25,23.72-10.27,31.43c-9.07,8.71-19.95,10.27-31.43,10.27c0,0-3.01-16.88,9.07-30.22
	C141.16,87.72,150.85,90.16,161.73,89.55z"/>
</svg>
